<svg width="56" height="54" viewBox="0 0 56 54" fill="none" xmlns="http://www.w3.org/2000/svg">
<mask id="mask0_26_571" style="mask-type:luminance" maskUnits="userSpaceOnUse" x="8" y="8" width="40" height="39">
<path d="M48 8H8V46.1387H48V8Z" fill="white"/>
</mask>
<g mask="url(#mask0_26_571)">
<path d="M46.1387 15.545H9.86151V26.6909H46.1387V15.545Z" fill="#EBEBEB"/>
<path d="M46.1387 26.6912H9.86151V44.5443H46.1387V26.6912Z" fill="#22D3EE"/>
<path d="M45.1754 13.9946H38.7165V10.8239C38.7165 9.18767 37.8607 8.00055 36.6815 8.00055H19.934C18.7549 8.00055 17.899 9.18853 17.899 10.8239V13.9946H10.8239C10.0755 13.9956 9.35791 14.2934 8.82864 14.8226C8.29937 15.3519 8.00158 16.0695 8.00055 16.818V43.3141C8.00163 44.0627 8.29944 44.7801 8.8287 45.3095C9.35795 45.8386 10.0755 46.1365 10.8239 46.1375H45.1754C45.924 46.1365 46.6414 45.8386 47.1708 45.3095C47.6999 44.7801 47.9977 44.0627 47.9988 43.3141V16.8188C47.998 16.0702 47.7003 15.3524 47.171 14.8229C46.6417 14.2935 45.9242 13.9956 45.1754 13.9946ZM20.4666 10.8239C20.4664 10.7381 20.4724 10.6523 20.4845 10.5672H36.1317C36.1438 10.6523 36.1498 10.7381 36.1496 10.8239V13.9946H20.4666V10.8239ZM45.4321 43.3141C45.4321 43.3822 45.405 43.4475 45.3569 43.4956C45.3088 43.5437 45.2435 43.5708 45.1754 43.5708H10.8239C10.7559 43.5708 10.6906 43.5437 10.6425 43.4956C10.5944 43.4475 10.5673 43.3822 10.5672 43.3141V28.0363H22.6083V28.8064C22.6083 28.8874 22.6242 28.9675 22.6551 29.0423C22.6861 29.1171 22.7315 29.185 22.7887 29.2423C22.8459 29.2995 22.9139 29.3449 22.9886 29.3759C23.0634 29.4069 23.1435 29.4228 23.2245 29.4228H33.3911C33.4721 29.4228 33.5523 29.4069 33.6271 29.3759C33.7019 29.345 33.7698 29.2996 33.8271 29.2423C33.8842 29.1851 33.9297 29.1171 33.9607 29.0423C33.9915 28.9675 34.0075 28.8874 34.0075 28.8064V28.0363H45.4321V43.3141ZM45.4321 25.4685H10.5672V16.8188C10.5673 16.7507 10.5944 16.6855 10.6425 16.6374C10.6906 16.5893 10.7559 16.5622 10.8239 16.5621H45.1754C45.2435 16.5622 45.3088 16.5893 45.3569 16.6374C45.405 16.6855 45.4321 16.7507 45.4321 16.8188V25.4685Z" fill="#2A3255"/>
</g>
</svg>
