<svg width="40" height="40" viewBox="0 0 40 40" fill="black" xmlns="http://www.w3.org/2000/svg">
<path fill-rule="evenodd" clip-rule="evenodd" d="M9.11679 9.11667C9.35116 8.88258 9.66887 8.7511 10.0001 8.7511C10.3314 8.7511 10.6491 8.88258 10.8835 9.11667L30.8835 29.1167C31.0063 29.2311 31.1048 29.3691 31.1731 29.5224C31.2414 29.6758 31.2781 29.8413 31.2811 30.0091C31.2841 30.177 31.2532 30.3437 31.1903 30.4993C31.1275 30.655 31.0339 30.7964 30.9152 30.9151C30.7965 31.0338 30.6551 31.1273 30.4994 31.1902C30.3438 31.2531 30.1771 31.2839 30.0093 31.281C29.8414 31.278 29.6759 31.2413 29.5226 31.173C29.3692 31.1046 29.2312 31.0061 29.1168 30.8833L9.11679 10.8833C8.8827 10.649 8.75122 10.3312 8.75122 10C8.75122 9.66875 8.8827 9.35104 9.11679 9.11667Z" fill="black"/>
<path fill-rule="evenodd" clip-rule="evenodd" d="M30.8834 9.11667C31.1175 9.35104 31.249 9.66875 31.249 10C31.249 10.3312 31.1175 10.649 30.8834 10.8833L10.8834 30.8833C10.6464 31.1041 10.333 31.2243 10.0092 31.2186C9.68536 31.2129 9.37639 31.0817 9.14737 30.8527C8.91834 30.6237 8.78716 30.3147 8.78144 29.9909C8.77573 29.667 8.89594 29.3536 9.11674 29.1167L29.1167 9.11667C29.3511 8.88258 29.6688 8.7511 30.0001 8.7511C30.3313 8.7511 30.649 8.88258 30.8834 9.11667Z" fill="black"/>
</svg>
