<svg width="260" height="260" viewBox="0 0 260 260" fill="none" xmlns="http://www.w3.org/2000/svg">
<g clip-path="url(#clip0_83_5567)">
<path d="M260 0H0V260H260V0Z" fill="white"/>
<path d="M224.426 127.809C227.774 145.154 234.559 180.306 218.322 203.822C188.852 246.501 88.6292 243.493 46.2956 189.684C42.6356 185.032 24.2758 160.765 26.279 127.536C29.7537 69.8999 92.4724 18.8139 142.737 28.8476C172.154 34.7198 191.706 60.4091 199.756 70.9851C203.073 75.3437 218.265 95.8916 224.426 127.809Z" fill="#F4F7FA"/>
<path opacity="0.74" d="M96.3969 196.496C106.008 190.187 119.101 179.501 127.137 162.564C137.676 140.351 130.257 126.903 138.22 87.5725C143.255 62.7042 147.019 45.3999 161.242 38.2743C172.388 32.6904 188.622 34.026 197.14 42.49C204.222 49.5276 206.798 62.3175 206.73 71.1144C206.675 78.2838 204.861 83.1798 208.237 87.5505C211.687 92.0172 216.488 90.6668 219.841 94.1143C226.641 101.106 218.879 118.981 217.624 121.87C203.669 154.007 168.808 171.241 153.511 178.575C140.863 184.639 121.597 192.3 96.3969 196.496Z" fill="url(#paint0_linear_83_5567)"/>
<mask id="mask0_83_5567" style="mask-type:luminance" maskUnits="userSpaceOnUse" x="96" y="34" width="127" height="163">
<path d="M96.3969 196.496C106.008 190.187 119.101 179.501 127.137 162.564C137.676 140.351 130.257 126.903 138.22 87.5725C143.255 62.7042 147.019 45.3999 161.242 38.2743C172.388 32.6904 188.622 34.026 197.14 42.49C204.222 49.5276 206.798 62.3175 206.73 71.1144C206.675 78.2838 204.861 83.1798 208.237 87.5505C211.687 92.0172 216.488 90.6668 219.841 94.1143C226.641 101.106 218.879 118.981 217.624 121.87C203.669 154.007 168.808 171.241 153.511 178.575C140.863 184.639 121.597 192.3 96.3969 196.496Z" fill="white"/>
</mask>
<g mask="url(#mask0_83_5567)">
<g opacity="0.5">
<path d="M85.8587 200.951L85.764 200.461C101.066 197.511 114.547 193.163 125.834 187.538C142.487 179.238 153.85 168.364 159.608 155.218C164.117 144.923 165.126 133.629 166.523 117.996C167.638 105.519 167.303 96.5757 167.007 88.6855C166.621 78.387 166.316 70.2527 169.464 59.0828C172.66 47.7456 178.468 36.9342 186.727 26.9489L187.112 27.2672C178.898 37.1985 173.122 47.9484 169.946 59.2184C166.818 70.3124 167.122 78.4122 167.506 88.6668C167.802 96.5717 168.138 105.532 167.021 118.041C165.672 133.13 164.607 145.049 160.066 155.418C154.259 168.674 142.817 179.632 126.057 187.985C114.729 193.631 101.205 197.993 85.8587 200.951Z" fill="white"/>
<path d="M167.479 109.096L167.244 108.94C167.169 108.891 159.636 103.85 152.94 94.0259C149.006 88.2562 146.124 81.9874 144.371 75.3939C142.181 67.1529 141.76 58.3799 143.121 49.3185L143.615 49.3927C142.265 58.3813 142.681 67.0818 144.85 75.2525C146.586 81.7895 149.443 88.0052 153.34 93.727C159.322 102.509 165.972 107.435 167.287 108.363C177.877 87.2454 192.264 75.3657 202.489 69.1117C213.619 62.3037 222.366 60.506 222.453 60.4887L222.55 60.9786C222.464 60.9959 213.787 62.7821 202.729 69.5504C192.525 75.7956 178.149 87.682 167.605 108.843L167.479 109.096Z" fill="white"/>
<path d="M163.618 142.744L163.543 142.579C163.483 142.447 157.447 129.247 148.805 117.198C140.195 105.193 116.51 97.4154 116.272 97.3382L116.426 96.863C116.666 96.9406 140.507 104.769 149.211 116.906C157.356 128.263 163.192 140.636 163.921 142.206C177.916 140.503 194.771 124.679 206.469 111.673C219.218 97.4981 228.755 83.5228 228.85 83.3834L229.263 83.6642C229.168 83.804 219.612 97.8073 206.841 112.007C199.336 120.351 192.205 127.131 185.645 132.158C177.424 138.458 170.074 142.013 163.798 142.724L163.618 142.744Z" fill="white"/>
<path d="M134.87 185.753C132.616 185.753 131.346 185.688 131.307 185.686L130.81 185.659L131.129 185.277C135.808 179.665 138.265 173.373 138.431 166.576C138.564 161.131 137.236 155.347 134.485 149.385C129.789 139.21 122.475 131.956 122.402 131.884L122.752 131.527C122.826 131.6 130.197 138.909 134.932 149.163C137.719 155.197 139.064 161.057 138.931 166.581C138.767 173.339 136.379 179.603 131.833 185.208C134.311 185.293 145.768 185.513 160.72 183.056C176.264 180.502 198.872 174.451 218.304 160.125L256.006 132.329L256.303 132.731L218.6 160.527C199.084 174.915 176.39 180.989 160.789 183.551C149.228 185.45 139.747 185.753 134.87 185.753Z" fill="white"/>
</g>
</g>
<path d="M132.291 214.918C147.026 217.939 166.175 219.395 185.598 213.67C190.555 212.209 221.175 203.184 220.061 187.799C219.668 182.38 215.669 180.748 215.033 173.513C214.279 164.94 219.411 161.744 224.088 152.166C226.879 146.451 235.045 129.727 227.176 118.025C222.474 111.032 212.258 106.149 203.832 106.705C191.474 107.52 185.388 119.878 175.408 140.991C166.562 159.707 167.317 164.878 160.74 178.228C155.859 188.136 147.481 201.451 132.291 214.918Z" fill="url(#paint1_linear_83_5567)"/>
<mask id="mask1_83_5567" style="mask-type:luminance" maskUnits="userSpaceOnUse" x="132" y="106" width="99" height="112">
<path d="M132.291 214.918C147.026 217.939 166.175 219.395 185.598 213.67C190.555 212.209 221.175 203.184 220.061 187.799C219.668 182.38 215.669 180.748 215.033 173.513C214.279 164.94 219.411 161.744 224.088 152.166C226.879 146.451 235.045 129.727 227.176 118.025C222.474 111.032 212.258 106.149 203.832 106.705C191.474 107.52 185.388 119.878 175.408 140.991C166.562 159.707 167.317 164.878 160.74 178.228C155.859 188.136 147.481 201.451 132.291 214.918Z" fill="white"/>
</mask>
<g mask="url(#mask1_83_5567)">
<g opacity="0.5">
<path d="M109.351 218.161C95.6783 218.161 81.9052 214.568 68.326 207.448L68.558 207.005C83.9692 215.086 99.6258 218.6 115.096 217.448C135.705 215.914 154.917 205.804 172.199 187.399C190.2 168.23 201.596 144.867 207.986 128.643C212.416 117.396 213.888 104.269 212.361 89.626L212.858 89.5743C214.394 104.298 212.911 117.504 208.451 128.826C202.045 145.09 190.618 168.514 172.564 187.741C155.193 206.24 135.871 216.403 115.133 217.947C113.208 218.09 111.281 218.161 109.351 218.161Z" fill="white"/>
<path d="M192.809 160.314L192.7 160.091C192.667 160.025 189.428 153.351 187.45 143.742C185.623 134.869 184.528 121.602 189.681 108.785L190.145 108.972C185.04 121.668 186.126 134.826 187.936 143.628C189.698 152.194 192.467 158.409 193.042 159.646C227.923 142.627 231.644 116.009 231.954 108.243C231.963 108.021 231.967 107.929 231.975 107.875L232.469 107.954C232.464 107.985 232.459 108.12 232.453 108.263C232.14 116.116 228.373 143.071 193.033 160.206L192.809 160.314Z" fill="white"/>
<path d="M195.719 192.053C188.482 192.053 180.706 190.516 172.594 187.483L172.47 187.437L172.439 187.308C172.385 187.087 167.097 164.855 173.2 137.238L179.36 109.359L179.848 109.467L173.688 137.346C167.851 163.763 172.472 185.211 172.894 187.062C183.207 190.899 198.428 194.21 212.619 188.337C221.125 184.817 225.266 179.596 225.307 179.544L225.701 179.852C225.659 179.905 221.436 185.229 212.81 188.798C207.75 190.893 202.182 191.987 196.263 192.05C196.082 192.052 195.9 192.053 195.719 192.053Z" fill="white"/>
</g>
</g>
<path d="M152.239 39.3204L53.1586 31.0875C50.8573 30.9971 48.9875 32.8076 48.9875 35.1316V221.711C48.9875 224.035 50.8573 225.8 53.1586 225.654L153.263 219.277C155.322 219.146 156.988 217.263 156.988 215.072V39.1353C156.988 36.9438 154.298 39.4013 152.239 39.3204Z" fill="url(#paint2_linear_83_5567)"/>
<path d="M129.432 34.6179C129.432 33.3212 130.465 32.2769 131.723 32.3008L132.582 32.2573L136.699 33.8501V35.3061L129.432 34.6179Z" fill="url(#paint3_linear_83_5567)"/>
<path d="M155.935 35.021L55.83 31.0875C53.5287 30.9971 51.6589 32.8076 51.6589 35.1316V221.711C51.6589 224.035 53.5287 225.8 55.83 225.654L155.935 219.277C157.994 219.146 159.659 217.263 159.659 215.072V39.1353C159.659 36.9438 157.994 35.1019 155.935 35.021Z" fill="#D8DEE8"/>
<g opacity="0.3">
<path d="M114.992 172.141C113.291 150.882 126.045 142.09 121.183 122.839C115.171 99.0298 92.0095 97.9822 84.1086 74.5847C81.0796 65.6147 79.8826 52.0607 88.5519 32.3732L55.83 31.0875C53.5287 30.9971 51.6589 32.8075 51.6589 35.1316V221.711C51.6589 224.035 53.5287 225.8 55.83 225.654L145.141 219.964C122.5 202.113 116.037 185.205 114.992 172.141Z" fill="#D8DEE8"/>
</g>
<path d="M155.935 37.3637L55.83 33.5614C54.8867 33.5255 54.1187 34.2709 54.1187 35.2228V221.56C54.1187 222.512 54.8867 223.239 55.83 223.18L155.935 216.934C156.78 216.882 157.467 216.107 157.467 215.207V39.054C157.467 38.1541 156.78 37.3958 155.935 37.3637Z" fill="url(#paint4_linear_83_5567)"/>
<path d="M107.244 119.688C88.5024 119.835 72.9703 104.011 72.9703 84.4117C72.9703 64.8125 88.5024 49.3357 107.244 49.9009C125.612 50.4548 140.286 66.269 140.286 85.1635C140.286 104.058 125.612 119.544 107.244 119.688Z" fill="#D8DEE8"/>
<path d="M138.046 85.1385C138.046 102.78 124.384 117.17 107.245 117.282C89.7792 117.395 75.3751 102.692 75.3751 84.4386C75.3751 66.1853 89.7792 51.8035 107.245 52.3073C124.384 52.8017 138.046 67.497 138.046 85.1385Z" fill="white"/>
<path opacity="0.74" d="M144.751 132.149L68.1423 133.291C66.0012 133.323 64.262 135.113 64.262 137.289C64.262 139.465 66.0012 141.196 68.1423 141.156L144.751 139.693C146.716 139.655 148.306 137.939 148.306 135.86C148.306 133.781 146.716 132.12 144.751 132.149Z" fill="url(#paint5_linear_83_5567)"/>
<path d="M144.751 147L81.994 148.453C79.8845 148.502 78.1708 150.293 78.1708 152.453C78.1708 154.613 79.8845 156.318 81.994 156.26L144.751 154.544C146.716 154.49 148.306 152.761 148.306 150.682C148.306 148.603 146.716 146.955 144.751 147Z" fill="#D8DEE8"/>
<path d="M68.1777 156.638L68.1068 156.64C65.9853 156.698 64.2618 155.058 64.2618 152.977V152.632C64.2618 150.551 65.9853 148.824 68.1068 148.775L68.1777 148.774C70.2944 148.724 72.0067 150.365 72.0067 152.437V152.781C72.0068 154.853 70.2944 156.58 68.1777 156.638Z" fill="#22D3EE"/>
<path d="M68.1423 157.376C65.6032 157.447 63.5325 155.404 63.5325 152.823C63.5325 150.242 65.6032 148.095 68.1423 148.037C70.6744 147.979 72.7295 150.022 72.7295 152.591C72.7295 155.159 70.6744 157.306 68.1423 157.376ZM68.1423 149.512C66.4057 149.552 64.9906 151.021 64.9906 152.786C64.9906 154.551 66.4057 155.948 68.1423 155.901C69.8756 155.855 71.2833 154.386 71.2833 152.627C71.2833 150.869 69.8756 149.471 68.1423 149.512Z" fill="#D8DEE8"/>
<path d="M144.751 160.437L81.994 162.359C79.8845 162.423 78.1708 164.227 78.1708 166.387C78.1708 168.547 79.8845 170.239 81.994 170.165L144.751 167.981C146.716 167.912 148.306 166.172 148.306 164.093C148.306 162.014 146.716 160.377 144.751 160.437Z" fill="#D8DEE8"/>
<path d="M68.1777 170.646L68.1068 170.649C65.9853 170.723 64.2618 169.096 64.2618 167.015V166.669C64.2618 164.589 65.9853 162.849 68.1068 162.784L68.1777 162.782C70.2944 162.717 72.0067 164.344 72.0067 166.417V166.761C72.0068 168.833 70.2944 170.572 68.1777 170.646Z" fill="#22D3EE"/>
<path d="M68.1423 171.385C65.6032 171.474 63.5325 169.447 63.5325 166.866C63.5325 164.285 65.6032 162.122 68.1423 162.046C70.6744 161.969 72.7295 163.997 72.7295 166.565C72.7295 169.134 70.6744 171.296 68.1423 171.385ZM68.1423 163.52C66.4057 163.574 64.9906 165.054 64.9906 166.818C64.9906 168.583 66.4057 169.97 68.1423 169.91C69.8756 169.85 71.2833 168.371 71.2833 166.612C71.2833 164.854 69.8756 163.466 68.1423 163.52Z" fill="#D8DEE8"/>
<path d="M144.751 173.874L81.994 176.264C79.8845 176.344 78.1708 178.161 78.1708 180.321C78.1708 182.481 79.8845 184.16 81.994 184.071L144.751 181.418C146.716 181.334 148.306 179.582 148.306 177.503C148.306 175.424 146.716 173.799 144.751 173.874Z" fill="#D8DEE8"/>
<path d="M68.1423 185.393C65.6032 185.502 63.5325 183.49 63.5325 180.909C63.5325 178.328 65.6032 176.15 68.1423 176.054C70.6744 175.959 72.7295 177.971 72.7295 180.54C72.7295 183.108 70.6744 185.285 68.1423 185.393ZM68.1423 177.529C66.4057 177.596 64.9906 179.086 64.9906 180.85C64.9906 182.615 66.4057 183.992 68.1423 183.919C69.8756 183.846 71.2833 182.356 71.2833 180.598C71.2833 178.839 69.8756 177.462 68.1423 177.529Z" fill="#D8DEE8"/>
<path d="M144.751 187.311L81.994 190.169C79.8845 190.265 78.1708 192.095 78.1708 194.255C78.1708 196.415 79.8845 198.081 81.994 197.976L144.751 194.854C146.716 194.757 148.306 192.992 148.306 190.913C148.306 188.834 146.716 187.221 144.751 187.311Z" fill="#D8DEE8"/>
<path d="M68.1777 198.663L68.1068 198.667C65.9853 198.772 64.2618 197.171 64.2618 195.09V194.745C64.2618 192.664 65.9853 190.899 68.1068 190.802L68.1777 190.799C70.2944 190.702 72.0067 192.304 72.0067 194.376V194.721C72.0068 196.793 70.2944 198.558 68.1777 198.663Z" fill="#22D3EE"/>
<path d="M68.1423 199.402C65.6032 199.529 63.5325 197.533 63.5325 194.952C63.5325 192.371 65.6032 190.178 68.1423 190.063C70.6744 189.949 72.7295 191.945 72.7295 194.514C72.7295 197.082 70.6744 199.275 68.1423 199.402ZM68.1423 191.538C66.4057 191.617 64.9906 193.118 64.9906 194.883C64.9906 196.647 66.4057 198.013 68.1423 197.927C69.8756 197.842 71.2833 196.342 71.2833 194.583C71.2833 192.824 69.8756 191.458 68.1423 191.538Z" fill="#D8DEE8"/>
<mask id="mask2_83_5567" style="mask-type:luminance" maskUnits="userSpaceOnUse" x="77" y="54" width="59" height="61">
<path d="M135.8 85.1134C135.8 101.468 123.126 114.793 107.245 114.875C91.0843 114.959 77.7737 101.345 77.7737 84.4654C77.7737 67.5858 91.0843 54.2688 107.245 54.7137C123.126 55.1511 135.8 68.7584 135.8 85.1134Z" fill="white"/>
</mask>
<g mask="url(#mask2_83_5567)">
<path d="M113.823 64.4533C114.082 62.7074 117.638 61.4381 120.651 61.6795C128.894 62.3397 137.615 74.667 135.468 82.7656C133.588 89.8615 124.101 90.9967 124.378 96.6723C124.588 100.987 130.223 103.187 129.544 104.601C128.831 106.086 121.682 105.597 117.845 100.968C114.223 96.5961 115.058 90.351 115.342 88.2261C116.534 79.3116 122.192 76.5603 120.651 71.8515C119.237 67.5348 113.48 66.7605 113.823 64.4533Z" fill="url(#paint6_linear_83_5567)"/>
<path d="M75.3751 106.743C75.3751 106.743 103.371 89.8407 138.046 106.695C138.046 106.695 133.625 121.167 107.245 122.12C80.0843 123.101 75.3751 106.743 75.3751 106.743Z" fill="url(#paint7_linear_83_5567)"/>
<path d="M102.279 84.739L101.229 92.8102C100.871 95.5642 99.034 97.8672 96.4794 98.7599L87.9447 101.742C87.9447 101.742 104.283 109.872 124.943 101.736L115.521 98.3465C112.848 97.3078 111.026 94.6946 110.91 91.7244L110.64 84.8324L102.279 84.739Z" fill="url(#paint8_linear_83_5567)"/>
<path d="M103.381 90.2025C99.0884 89.013 96.7881 85.3855 95.4242 83.2346C93.1381 79.6294 89.9831 72.1674 92.953 67.9266C94.2712 66.0443 95.3491 66.8705 103.265 63.3114C107.917 61.2197 108.511 60.4968 110.23 60.7073C115.087 61.3022 117.91 68.0145 118.289 68.9164C118.788 70.1024 121.647 76.8986 118.06 83.2656C115.185 88.3705 108.987 91.7555 103.381 90.2025Z" fill="url(#paint9_linear_83_5567)"/>
<path d="M115.022 77.7551C115.022 84.5707 111.047 91.8639 106.12 91.8278C101.167 91.7914 97.1318 84.3679 97.1318 77.4856C97.1318 70.6033 101.167 66.9229 106.12 67.0261C111.047 67.1286 115.022 70.9393 115.022 77.7551Z" fill="url(#paint10_linear_83_5567)"/>
<path d="M96.8334 81.9204C97.6873 81.8831 96.4548 74.7209 99.7623 72.7758C101.958 71.4843 105.77 72.7252 107.914 75.0845C111.294 78.8038 109.403 84.0772 111.963 85.2323C113.588 85.9656 115.758 84.4702 116.798 83.3701C120.045 79.9344 119.603 72.582 115.764 68.3871C112.705 65.0438 108.553 64.8644 107.566 64.8531C101.917 64.7886 96.7306 69.0556 95.5418 74.1544C94.6283 78.0726 96.202 81.948 96.8334 81.9204Z" fill="url(#paint11_linear_83_5567)"/>
</g>
<path opacity="0.35" d="M114.992 172.141C113.291 150.882 126.044 142.09 121.183 122.839C115.171 99.0298 92.0095 97.9822 84.1086 74.5847C81.2046 65.9848 79.9843 53.1703 87.5341 34.7655L55.83 33.5612C54.8867 33.5254 54.1187 34.2707 54.1187 35.2227V221.56C54.1187 222.512 54.8867 223.239 55.83 223.18L142.441 217.776C121.976 200.724 115.994 184.664 114.992 172.141Z" fill="white"/>
<path d="M155.935 35.021L55.83 31.0875C53.5287 30.9971 51.6589 32.8076 51.6589 35.1316V221.711C51.6589 224.035 53.5287 225.8 55.83 225.654L155.935 219.277C157.994 219.146 159.659 217.263 159.659 215.072V39.1353C159.659 36.9438 157.994 35.1019 155.935 35.021Z" fill="#22D3EE"/>
<g opacity="0.3">
<path d="M114.992 172.141C113.291 150.882 126.045 142.09 121.183 122.839C115.171 99.0298 92.0095 97.9822 84.1086 74.5847C81.0796 65.6147 79.8826 52.0607 88.5519 32.3732L55.83 31.0875C53.5287 30.9971 51.6589 32.8075 51.6589 35.1316V221.711C51.6589 224.035 53.5287 225.8 55.83 225.654L145.141 219.964C122.5 202.113 116.037 185.205 114.992 172.141Z" fill="#D8DEE8"/>
</g>
<path d="M155.935 37.3637L55.83 33.5614C54.8867 33.5255 54.1187 34.2709 54.1187 35.2228V221.56C54.1187 222.512 54.8867 223.239 55.83 223.18L155.935 216.934C156.78 216.882 157.467 216.107 157.467 215.207V39.054C157.467 38.1541 156.78 37.3958 155.935 37.3637Z" fill="url(#paint12_linear_83_5567)"/>
<path d="M107.244 119.688C88.5024 119.835 72.9703 104.011 72.9703 84.4117C72.9703 64.8125 88.5024 49.3357 107.244 49.9009C125.612 50.4548 140.286 66.269 140.286 85.1635C140.286 104.058 125.612 119.544 107.244 119.688Z" fill="#D8DEE8"/>
<path d="M138.046 85.1385C138.046 102.78 124.384 117.17 107.245 117.282C89.7792 117.395 75.3751 102.692 75.3751 84.4386C75.3751 66.1853 89.7792 51.8035 107.245 52.3073C124.384 52.8017 138.046 67.497 138.046 85.1385Z" fill="#22D3EE"/>
<path opacity="0.74" d="M144.751 132.149L68.1423 133.291C66.0012 133.323 64.262 135.113 64.262 137.289C64.262 139.465 66.0012 141.196 68.1423 141.156L144.751 139.693C146.716 139.655 148.306 137.939 148.306 135.86C148.306 133.781 146.716 132.12 144.751 132.149Z" fill="url(#paint13_linear_83_5567)"/>
<path d="M144.751 147L81.994 148.453C79.8845 148.502 78.1708 150.293 78.1708 152.453C78.1708 154.613 79.8845 156.318 81.994 156.26L144.751 154.544C146.716 154.49 148.306 152.761 148.306 150.682C148.306 148.603 146.716 146.955 144.751 147Z" fill="#22D3EE"/>
<path d="M68.1777 156.638L68.1068 156.64C65.9853 156.698 64.2618 155.058 64.2618 152.977V152.632C64.2618 150.551 65.9853 148.824 68.1068 148.775L68.1777 148.774C70.2944 148.724 72.0067 150.365 72.0067 152.437V152.781C72.0068 154.853 70.2944 156.58 68.1777 156.638Z" fill="#22D3EE"/>
<path d="M68.1423 157.376C65.6032 157.447 63.5325 155.404 63.5325 152.823C63.5325 150.242 65.6032 148.095 68.1423 148.037C70.6744 147.979 72.7295 150.022 72.7295 152.591C72.7295 155.159 70.6744 157.306 68.1423 157.376ZM68.1423 149.512C66.4057 149.552 64.9906 151.021 64.9906 152.786C64.9906 154.551 66.4057 155.948 68.1423 155.901C69.8756 155.855 71.2833 154.386 71.2833 152.627C71.2833 150.869 69.8756 149.471 68.1423 149.512Z" fill="#D8DEE8"/>
<path d="M144.751 160.437L81.994 162.359C79.8845 162.423 78.1708 164.227 78.1708 166.387C78.1708 168.547 79.8845 170.239 81.994 170.165L144.751 167.981C146.716 167.912 148.306 166.172 148.306 164.093C148.306 162.014 146.716 160.377 144.751 160.437Z" fill="#22D3EE"/>
<path d="M68.1777 170.646L68.1068 170.649C65.9853 170.723 64.2618 169.096 64.2618 167.015V166.669C64.2618 164.589 65.9853 162.849 68.1068 162.784L68.1777 162.782C70.2944 162.717 72.0067 164.344 72.0067 166.417V166.761C72.0068 168.833 70.2944 170.572 68.1777 170.646Z" fill="#22D3EE"/>
<path d="M68.1423 171.385C65.6032 171.474 63.5325 169.447 63.5325 166.866C63.5325 164.285 65.6032 162.122 68.1423 162.046C70.6744 161.969 72.7295 163.997 72.7295 166.565C72.7295 169.134 70.6744 171.296 68.1423 171.385ZM68.1423 163.52C66.4057 163.574 64.9906 165.054 64.9906 166.818C64.9906 168.583 66.4057 169.97 68.1423 169.91C69.8756 169.85 71.2833 168.371 71.2833 166.612C71.2833 164.854 69.8756 163.466 68.1423 163.52Z" fill="#D8DEE8"/>
<path d="M144.751 173.874L81.994 176.264C79.8845 176.344 78.1708 178.161 78.1708 180.321C78.1708 182.481 79.8845 184.16 81.994 184.071L144.751 181.418C146.716 181.334 148.306 179.582 148.306 177.503C148.306 175.424 146.716 173.799 144.751 173.874Z" fill="#22D3EE"/>
<path d="M68.1423 185.393C65.6032 185.502 63.5325 183.49 63.5325 180.909C63.5325 178.328 65.6032 176.15 68.1423 176.054C70.6744 175.959 72.7295 177.971 72.7295 180.54C72.7295 183.108 70.6744 185.285 68.1423 185.393ZM68.1423 177.529C66.4057 177.596 64.9906 179.086 64.9906 180.85C64.9906 182.615 66.4057 183.992 68.1423 183.919C69.8756 183.846 71.2833 182.356 71.2833 180.598C71.2833 178.839 69.8756 177.462 68.1423 177.529Z" fill="#D8DEE8"/>
<path d="M144.751 187.311L81.994 190.169C79.8845 190.265 78.1708 192.095 78.1708 194.255C78.1708 196.415 79.8845 198.081 81.994 197.976L144.751 194.854C146.716 194.757 148.306 192.992 148.306 190.913C148.306 188.834 146.716 187.221 144.751 187.311Z" fill="#22D3EE"/>
<path d="M68.1777 198.663L68.1068 198.667C65.9853 198.772 64.2618 197.171 64.2618 195.09V194.745C64.2618 192.664 65.9853 190.899 68.1068 190.802L68.1777 190.799C70.2944 190.702 72.0067 192.304 72.0067 194.376V194.721C72.0068 196.793 70.2944 198.558 68.1777 198.663Z" fill="#22D3EE"/>
<path d="M68.1423 199.402C65.6032 199.529 63.5325 197.533 63.5325 194.952C63.5325 192.371 65.6032 190.178 68.1423 190.063C70.6744 189.949 72.7295 191.945 72.7295 194.514C72.7295 197.082 70.6744 199.275 68.1423 199.402ZM68.1423 191.538C66.4057 191.617 64.9906 193.118 64.9906 194.883C64.9906 196.647 66.4057 198.013 68.1423 197.927C69.8756 197.842 71.2833 196.342 71.2833 194.583C71.2833 192.824 69.8756 191.458 68.1423 191.538Z" fill="#D8DEE8"/>
<path opacity="0.35" d="M114.992 172.141C113.291 150.882 126.044 142.09 121.183 122.839C115.171 99.0298 92.0095 97.9822 84.1086 74.5847C81.2046 65.9848 79.9843 53.1703 87.5341 34.7655L55.83 33.5612C54.8867 33.5254 54.1187 34.2707 54.1187 35.2227V221.56C54.1187 222.512 54.8867 223.239 55.83 223.18L142.441 217.776C121.976 200.724 115.994 184.664 114.992 172.141Z" fill="white"/>
<path d="M151.581 61.0888L142.417 54.0428L133.16 60.6592V38.4255C133.16 36.6919 132.355 35.0253 130.977 33.908L130.906 33.8502L148.377 34.5156C150.148 34.583 151.581 36.0766 151.581 37.8516V61.0888H151.581Z" fill="#D8DEE8"/>
<path d="M153.258 61.0888L144.094 53.6307L134.836 60.634V37.1001C134.836 35.2652 134.032 33.5011 132.654 32.3184L132.582 32.2572L150.054 32.9615C151.825 33.0329 153.258 34.6138 153.258 36.4927V61.0888Z" fill="url(#paint14_linear_83_5567)"/>
<path d="M141.604 128.722C123.271 129.306 108.068 114.422 108.068 95.533C108.068 76.6437 123.271 61.3818 141.604 61.5093C159.557 61.6341 173.89 76.5284 173.89 94.7135C173.89 112.899 159.557 128.15 141.604 128.722Z" fill="url(#paint15_linear_83_5567)"/>
<path d="M143.914 128.722C125.581 129.306 110.378 114.422 110.378 95.533C110.378 76.6437 125.581 61.3818 143.914 61.5093C161.867 61.6341 176.2 76.5284 176.2 94.7135C176.2 112.899 161.867 128.15 143.914 128.722Z" fill="#22D3EE"/>
<path d="M174.012 94.7407C174.012 111.721 160.667 125.893 143.914 126.404C126.831 126.925 112.732 113.095 112.732 95.5037C112.732 77.9124 126.831 63.731 143.914 63.8269C160.667 63.9209 174.012 77.7608 174.012 94.7407Z" fill="white"/>
<mask id="mask3_83_5567" style="mask-type:luminance" maskUnits="userSpaceOnUse" x="115" y="66" width="57" height="59">
<path d="M171.819 94.768C171.819 110.51 159.437 123.633 143.914 124.086C128.107 124.548 115.08 111.741 115.08 95.4745C115.08 79.208 128.108 66.077 143.914 66.1446C159.437 66.211 171.819 79.0256 171.819 94.768Z" fill="white"/>
</mask>
<g mask="url(#mask3_83_5567)">
<path d="M112.732 117.077C112.732 117.077 140.126 100.142 174.012 115.565C174.012 115.565 169.695 129.599 143.914 131.141C117.342 132.73 112.732 117.077 112.732 117.077Z" fill="url(#paint16_linear_83_5567)"/>
<path d="M139.058 95.1759L138.031 102.974C137.733 107.932 132.921 109.893 132.921 109.893C138.571 116.595 149.37 116.085 153.147 109.532C150.537 108.597 147.611 104.563 147.498 101.705L147.234 95.0741L139.058 95.1759Z" fill="url(#paint17_linear_83_5567)"/>
<path d="M151.517 88.1585C151.517 94.7216 147.632 101.836 142.815 101.915C137.971 101.994 134.024 94.9363 134.024 88.3067C134.024 81.6769 137.971 78.0405 142.815 78.028C147.632 78.0155 151.517 81.5952 151.517 88.1585Z" fill="url(#paint18_linear_83_5567)"/>
<path d="M133.763 89.982C134.248 89.8997 134.732 89.8175 135.216 89.7353C134.994 89.1946 134.076 86.7994 135.216 84.6885C136.31 82.6631 138.885 81.6657 140.851 81.7889C143.083 81.929 144.423 82.9694 145.544 82.1526C146.173 81.6936 146.377 80.8646 146.449 80.2195C146.499 80.6318 146.611 81.2415 146.901 81.9145C147.734 83.8474 149.144 84.2425 149.911 85.5184C150.427 86.3773 150.763 87.8188 149.911 90.3687C150.336 90.3389 150.762 90.309 151.187 90.2793C151.636 88.8479 152.174 86.8189 152.508 84.3388C153.005 80.6565 153.347 78.122 151.936 76.8918C151.655 76.6468 150.412 75.6749 147.435 76.597C146.737 75.8595 145.268 74.5095 143.005 73.8297C142.223 73.5945 138.341 72.428 134.898 74.9577C132.557 76.6784 130.721 79.8867 131.311 82.5347C131.623 83.9349 132.476 84.5604 133.227 87.2665C133.545 88.4089 133.69 89.3711 133.763 89.982Z" fill="url(#paint19_linear_83_5567)"/>
<path d="M150.308 90.5919C150.308 90.5919 150.867 87.7116 152.563 87.9825C154.256 88.2528 151.83 92.9857 150.308 93.5695V90.5919Z" fill="url(#paint20_linear_83_5567)"/>
<path d="M135.114 90.742C135.114 90.742 134.545 87.8456 132.813 88.1478C131.077 88.4507 133.562 93.1916 135.114 93.7458V90.742Z" fill="url(#paint21_linear_83_5567)"/>
</g>
<path d="M173.962 114.332C173.416 115.096 172.87 115.86 172.324 116.625C174.724 118.408 177.613 121.16 177.566 124.487C177.495 129.515 170.788 131.141 170.358 136.281C169.923 141.489 176.134 147.877 180.187 147.093C185.351 146.093 189.944 132.877 185.101 123.505C182.019 117.541 176.138 115.109 173.962 114.332Z" fill="url(#paint22_linear_83_5567)"/>
<path opacity="0.3" d="M173.962 114.332C174.012 115.038 174.199 116.094 174.945 116.952C175.999 118.166 177.269 117.951 178.549 118.591C181.153 119.892 182.468 124.071 181.825 127.436C181.167 130.873 178.588 132.824 177.893 133.333C174.313 135.957 171.219 134.648 170.358 136.282C168.871 139.104 175.458 148.008 180.187 147.093C185.351 146.094 189.944 132.877 185.101 123.505C182.019 117.541 176.138 115.109 173.962 114.332Z" fill="url(#paint23_linear_83_5567)"/>
<path d="M173.564 116.34C173.564 116.34 171.8 115.733 171.287 115.136C170.775 114.54 171.208 112.461 171.229 110.804C171.249 109.147 172.011 111.548 172.187 112.091C172.363 112.634 172.24 113.893 173.592 114.874L173.564 116.34Z" fill="url(#paint24_linear_83_5567)"/>
<path d="M169.462 126.477C168.823 125.22 168.56 125.228 168.404 124.564C168.046 123.052 168.969 121.132 169.751 121.105C170.255 121.088 170.296 121.872 171.364 123.094C172.671 124.59 173.465 124.394 174.234 125.693C174.414 125.996 175.224 127.364 174.726 128.385C174.09 129.688 171.584 129.894 170.536 128.889C170.039 128.413 170.248 128.026 169.462 126.477Z" fill="url(#paint25_linear_83_5567)"/>
<path d="M171.341 127.833C171.341 127.833 170.893 130.222 171.212 132.165C171.5 133.92 174.752 135.744 175.375 136.267C175.998 136.79 173.722 137.357 171.633 137.084C169.545 136.81 163.828 134.981 162.959 133.961C162.09 132.941 163.97 133.444 165.552 133.251C167.134 133.058 168.643 130.407 168.689 129.054C168.736 127.701 171.341 127.833 171.341 127.833Z" fill="url(#paint26_linear_83_5567)"/>
<path d="M170.66 129.616C170.66 129.616 169.061 130.318 167.645 129.186C166.377 128.172 168.262 125.058 169.552 125.018C169.982 125.005 170.61 125.313 170.981 125.764C171.2 126.03 171.213 126.208 171.579 126.636C171.917 127.031 172.066 127.067 172.117 127.258C172.181 127.498 172.071 127.899 171.203 128.589C171.635 128.509 172.008 128.623 172.153 128.875C172.176 128.915 172.224 129.041 172.209 129.171C172.157 129.641 171.543 129.858 170.66 129.616Z" fill="url(#paint27_linear_83_5567)"/>
<path d="M124.08 122.797C124.08 122.797 123.121 122.989 122.797 121.144C122.543 119.697 122.214 119.296 121.975 119.651C121.737 120.006 121.967 120.813 121.967 120.813C121.967 120.813 120.438 120.219 119.494 119.072C118.549 117.924 118.624 119.142 118.75 119.836C118.875 120.531 120.386 122.298 120.969 122.522C121.553 122.746 122.797 124.196 122.797 124.196L124.08 122.797Z" fill="url(#paint28_linear_83_5567)"/>
<path d="M155.281 225.204C155.78 226.22 155.64 226.657 155.516 226.849C155.152 227.413 154.277 226.88 151.992 227.151C151.724 227.183 151.213 227.252 150.575 227.102C150.028 226.973 149.383 226.682 149.411 226.535C149.421 226.482 149.518 226.461 149.555 226.453C150.189 226.318 154.158 225.1 154.158 225.1L155.281 225.204Z" fill="url(#paint29_linear_83_5567)"/>
<path d="M156.141 223.172L155.469 224.963C155.366 225.238 155.113 225.429 154.82 225.451C154.523 225.473 154.2 225.388 154.157 224.929C154.099 224.302 154.433 222.714 154.433 222.714L156.141 223.172Z" fill="url(#paint30_linear_83_5567)"/>
<path d="M182.793 220.178L183.751 222.793L185.143 222.572L184.82 220.15L182.793 220.178Z" fill="url(#paint31_linear_83_5567)"/>
<path d="M184.185 224.234C184.858 223.434 185.46 223.507 185.581 222.957C185.677 222.526 185.412 221.996 185.013 221.795C184.453 221.513 183.774 221.954 183.621 222.054C182.578 222.731 182.862 223.79 181.88 224.25C181.682 224.342 181.369 224.44 181.038 224.75C180.898 224.881 180.551 225.207 180.632 225.431C180.726 225.69 181.346 225.681 181.935 225.673C182.642 225.663 182.995 225.658 183.335 225.445C183.806 225.152 183.665 224.851 184.185 224.234Z" fill="url(#paint32_linear_83_5567)"/>
<path d="M180.602 165.58C181.415 170.806 181.583 175.376 181.481 179.15C181.371 183.211 181.013 183.974 181.251 186.725C181.769 192.709 183.819 193.203 185.386 199.787C187.117 207.057 186.236 213.249 185.877 215.616C185.563 217.684 185.149 219.384 184.821 220.572C184.256 221.283 183.185 221.246 182.06 221.224C180.439 214.64 178.791 208.465 177.17 201.881C174.043 192.101 170.917 182.322 167.79 172.542C172.061 170.221 176.332 167.901 180.602 165.58Z" fill="url(#paint33_linear_83_5567)"/>
<path opacity="0.3" d="M182.06 221.224C180.439 214.64 178.791 208.465 177.17 201.881C174.043 192.101 170.917 182.322 167.79 172.542C172.061 170.221 176.332 167.901 180.603 165.58C180.656 165.926 180.7 166.261 180.748 166.602C175.389 173.307 174.946 177.921 175.557 180.901C176.298 184.515 178.612 185.949 179.189 191.281C179.602 195.093 178.593 195.963 179.216 199.356C180.019 203.727 182.345 205.84 183.722 208.197C185.053 210.476 186.001 213.876 185.198 219.106C185.067 219.654 184.938 220.148 184.821 220.572C184.256 221.282 183.185 221.246 182.06 221.224Z" fill="url(#paint34_linear_83_5567)"/>
<path d="M173.163 171.935C173.06 174.442 172.643 178.236 171.014 182.475C168.829 188.158 166.435 189.519 165.444 194.269C164.409 199.228 166.305 201.17 166.402 205.736C166.492 210.013 164.994 216.128 157.582 223.754C156.38 223.645 155.179 223.535 153.978 223.426C154.941 219.73 156.221 213.966 156.865 206.753C157.188 203.139 157.231 200.499 157.254 199.511C157.391 193.515 158.244 183.32 161.423 164.927C165.336 167.263 169.25 169.599 173.163 171.935Z" fill="url(#paint35_linear_83_5567)"/>
<path d="M121.872 123.505C122.636 123.068 123.401 122.631 124.165 122.194C132.628 130.513 140.003 132.807 145.191 133.356C153.026 134.186 158.498 130.999 168.949 133.169C172.241 133.853 177.979 135.126 181.161 139.816C181.997 141.049 182.294 141.982 183.683 150.826C185.459 162.13 185.522 164.103 185.271 166.537C184.813 170.991 184.536 173.69 182.482 176.08C177.028 182.424 165.436 179.153 163.983 178.722C161.298 177.927 157.126 176.691 155.468 173.143C154.239 170.513 155.558 168.964 155.97 163.844C156.177 161.264 156.825 153.199 152.995 148.403C150.243 144.957 146.417 144.749 142.672 143.577C136.745 141.724 129.108 136.859 121.872 123.505Z" fill="url(#paint36_linear_83_5567)"/>
<g opacity="0.3">
<path d="M177.58 173.058C174.394 170.183 172.512 171.066 170.571 168.783C166.082 163.507 172.761 154.823 168.822 150.659C165.669 147.325 159.645 151.049 156.203 147.097C153.92 144.476 155.976 142.156 153.949 139.445C150.74 135.153 143.544 138.227 134.13 135.535C131.914 134.901 129.95 134.053 128.237 133.135C133.406 139.431 138.469 142.263 142.672 143.578C146.417 144.749 150.243 144.957 152.995 148.403C156.824 153.199 156.177 161.264 155.969 163.844C155.558 168.964 154.239 170.513 155.468 173.143C157.126 176.691 161.298 177.927 163.983 178.722C165.312 179.116 175.11 181.879 180.949 177.504C180.157 175.956 179.077 174.408 177.58 173.058Z" fill="url(#paint37_linear_83_5567)"/>
</g>
<path d="M62.8434 223.617C62.7375 224.534 62.2919 225.272 61.7049 225.503C60.2389 226.08 58.3418 226.298 56.124 226.301C53.8721 226.304 51.9495 226.075 50.4716 225.49C49.9028 225.264 49.4662 224.562 49.345 223.679L45.413 195.021H66.1475L62.8434 223.617Z" fill="url(#paint38_linear_83_5567)"/>
<path d="M55.7802 196.615C61.5059 196.615 66.1475 195.901 66.1475 195.021C66.1475 194.14 61.5059 193.427 55.7802 193.427C50.0545 193.427 45.413 194.14 45.413 195.021C45.413 195.901 50.0545 196.615 55.7802 196.615Z" fill="url(#paint39_linear_83_5567)"/>
<path d="M56.6369 194.911C57.3912 194.911 58.1454 194.911 58.8997 194.911C74.4412 183.846 77.2786 175.934 76.6284 170.566C76.0538 165.821 72.883 164.129 68.1636 152.348C65.3502 145.325 63.9435 141.813 64.0531 137.999C64.2927 129.664 69.5728 128.577 72.4366 117.685C73.5782 113.344 75.4694 106.151 72.1142 99.1446C68.5147 91.628 60.5745 86.4199 58.5824 87.8606C57.2614 88.8158 58.5667 92.7063 59.8613 96.5649C63.2904 106.786 67.7134 109.13 68.1636 115.106C68.4416 118.797 66.935 120.31 63.5694 127.358C56.7542 141.631 53.0705 149.346 54.541 156.862C56.552 167.142 66.4771 168.226 67.1163 177.176C67.6363 184.456 61.5753 190.816 56.6369 194.911Z" fill="url(#paint40_linear_83_5567)"/>
<path d="M45.5125 84.7958C43.3549 84.51 38.6543 93.663 38.7412 103.498C38.8256 113.051 43.3502 114.447 44.7064 124.295C46.4288 136.803 39.6086 138.023 40.6758 150.252C41.6521 161.439 47.6096 163.286 50.994 178.627C52.4856 185.388 52.6836 191.172 52.6063 195.072C53.3586 195.072 54.111 195.072 54.8633 195.072C59.4718 185.506 60.6346 177.56 60.8286 172.017C61.324 157.856 55.6688 154.428 57.6041 140.579C58.8905 131.374 61.9217 129.076 60.6674 121.393C59.8941 116.656 57.9392 112.612 54.7022 105.916C51.611 99.5211 50.1363 98.1424 48.2533 92.5344C46.5006 87.3146 46.5789 84.9371 45.5125 84.7958Z" fill="url(#paint41_linear_83_5567)"/>
<path d="M50.1879 194.749C50.4678 191.298 50.3111 186.396 47.7696 181.69C43.4912 173.769 36.9642 174.752 31.6473 167.664C26.0552 160.209 25.1547 148.297 28.7453 139.773C32.1964 131.58 38.3912 129.762 38.4187 122.36C38.4409 116.375 34.3142 112.064 34.8718 111.72C35.4456 111.366 40.1171 115.744 41.9863 122.198C42.7169 124.721 43.0177 127.556 41.9863 135.258C40.4292 146.886 38.676 148.401 38.7411 152.67C38.8782 161.655 47.7253 162.759 52.2838 172.823C54.3516 177.388 56.0161 184.462 53.5736 195.072C52.445 194.964 51.3165 194.857 50.1879 194.749Z" fill="url(#paint42_linear_83_5567)"/>
</g>
<defs>
<linearGradient id="paint0_linear_83_5567" x1="112.56" y1="74.9803" x2="140.21" y2="110.834" gradientUnits="userSpaceOnUse">
<stop stop-color="#AA80F9"/>
<stop offset="0.9964" stop-color="#6165D7"/>
</linearGradient>
<linearGradient id="paint1_linear_83_5567" x1="260.385" y1="132.639" x2="177.334" y2="167.351" gradientUnits="userSpaceOnUse">
<stop stop-color="#FF9085"/>
<stop offset="1" stop-color="#FB6FBB"/>
</linearGradient>
<linearGradient id="paint2_linear_83_5567" x1="48.9875" y1="128.373" x2="156.988" y2="128.373" gradientUnits="userSpaceOnUse">
<stop stop-color="#444B8C"/>
<stop offset="0.9964" stop-color="#26264F"/>
</linearGradient>
<linearGradient id="paint3_linear_83_5567" x1="129.432" y1="33.7816" x2="136.699" y2="33.7816" gradientUnits="userSpaceOnUse">
<stop stop-color="#AB316D"/>
<stop offset="1" stop-color="#792D3D"/>
</linearGradient>
<linearGradient id="paint4_linear_83_5567" x1="155.821" y1="43.3602" x2="80.6462" y2="166.374" gradientUnits="userSpaceOnUse">
<stop stop-color="white"/>
<stop offset="0.9964" stop-color="#EBEFF2"/>
</linearGradient>
<linearGradient id="paint5_linear_83_5567" x1="64.2619" y1="136.652" x2="148.306" y2="136.652" gradientUnits="userSpaceOnUse">
<stop stop-color="#AA80F9"/>
<stop offset="0.9964" stop-color="#6165D7"/>
</linearGradient>
<linearGradient id="paint6_linear_83_5567" x1="131.097" y1="59.4436" x2="121.826" y2="84.1055" gradientUnits="userSpaceOnUse">
<stop stop-color="#AB316D"/>
<stop offset="1" stop-color="#792D3D"/>
</linearGradient>
<linearGradient id="paint7_linear_83_5567" x1="111.186" y1="86.0804" x2="104.722" y2="115.889" gradientUnits="userSpaceOnUse">
<stop stop-color="#AA80F9"/>
<stop offset="0.9964" stop-color="#6165D7"/>
</linearGradient>
<linearGradient id="paint8_linear_83_5567" x1="106.37" y1="87.4873" x2="106.493" y2="111.363" gradientUnits="userSpaceOnUse">
<stop offset="0.0036" stop-color="#F36F56"/>
<stop offset="1" stop-color="#FFC444"/>
</linearGradient>
<linearGradient id="paint9_linear_83_5567" x1="127.128" y1="34.6055" x2="83.5411" y2="117.151" gradientUnits="userSpaceOnUse">
<stop stop-color="#AB316D"/>
<stop offset="1" stop-color="#792D3D"/>
</linearGradient>
<linearGradient id="paint10_linear_83_5567" x1="109.768" y1="52.8191" x2="104.24" y2="90.0768" gradientUnits="userSpaceOnUse">
<stop offset="0.0036" stop-color="#F36F56"/>
<stop offset="1" stop-color="#FFC444"/>
</linearGradient>
<linearGradient id="paint11_linear_83_5567" x1="123.021" y1="46.74" x2="91.7752" y2="105.914" gradientUnits="userSpaceOnUse">
<stop stop-color="#AB316D"/>
<stop offset="1" stop-color="#792D3D"/>
</linearGradient>
<linearGradient id="paint12_linear_83_5567" x1="155.821" y1="43.3602" x2="80.6462" y2="166.374" gradientUnits="userSpaceOnUse">
<stop stop-color="white"/>
<stop offset="0.9964" stop-color="#EBEFF2"/>
</linearGradient>
<linearGradient id="paint13_linear_83_5567" x1="64.2619" y1="136.652" x2="148.306" y2="136.652" gradientUnits="userSpaceOnUse">
<stop stop-color="#AA80F9"/>
<stop offset="0.9964" stop-color="#6165D7"/>
</linearGradient>
<linearGradient id="paint14_linear_83_5567" x1="155.107" y1="25.0739" x2="127.946" y2="73.213" gradientUnits="userSpaceOnUse">
<stop stop-color="#FF9085"/>
<stop offset="1" stop-color="#FB6FBB"/>
</linearGradient>
<linearGradient id="paint15_linear_83_5567" x1="108.067" y1="95.1234" x2="173.89" y2="95.1234" gradientUnits="userSpaceOnUse">
<stop stop-color="#444B8C"/>
<stop offset="0.9964" stop-color="#26264F"/>
</linearGradient>
<linearGradient id="paint16_linear_83_5567" x1="112.732" y1="120.168" x2="174.012" y2="120.168" gradientUnits="userSpaceOnUse">
<stop stop-color="#AB316D"/>
<stop offset="1" stop-color="#792D3D"/>
</linearGradient>
<linearGradient id="paint17_linear_83_5567" x1="142.972" y1="97.7258" x2="143.089" y2="120.397" gradientUnits="userSpaceOnUse">
<stop offset="0.0036" stop-color="#F36F56"/>
<stop offset="1" stop-color="#FFC444"/>
</linearGradient>
<linearGradient id="paint18_linear_83_5567" x1="146.312" y1="66.4495" x2="140.589" y2="101.792" gradientUnits="userSpaceOnUse">
<stop offset="0.0036" stop-color="#F36F56"/>
<stop offset="1" stop-color="#FFC444"/>
</linearGradient>
<linearGradient id="paint19_linear_83_5567" x1="143.305" y1="73.774" x2="140.504" y2="91.0734" gradientUnits="userSpaceOnUse">
<stop stop-color="#444B8C"/>
<stop offset="0.9964" stop-color="#26264F"/>
</linearGradient>
<linearGradient id="paint20_linear_83_5567" x1="155.268" y1="67.9208" x2="149.563" y2="103.15" gradientUnits="userSpaceOnUse">
<stop offset="0.0036" stop-color="#F36F56"/>
<stop offset="1" stop-color="#FFC444"/>
</linearGradient>
<linearGradient id="paint21_linear_83_5567" x1="137.914" y1="65.0931" x2="132.18" y2="100.505" gradientUnits="userSpaceOnUse">
<stop offset="0.0036" stop-color="#F36F56"/>
<stop offset="1" stop-color="#FFC444"/>
</linearGradient>
<linearGradient id="paint22_linear_83_5567" x1="202.26" y1="173.325" x2="186.687" y2="146.628" gradientUnits="userSpaceOnUse">
<stop offset="0.0036" stop-color="#F36F56"/>
<stop offset="1" stop-color="#FFC444"/>
</linearGradient>
<linearGradient id="paint23_linear_83_5567" x1="180.369" y1="111.647" x2="178.755" y2="133.793" gradientUnits="userSpaceOnUse">
<stop offset="0.0036" stop-color="#F36F56"/>
<stop offset="1" stop-color="#FFC444"/>
</linearGradient>
<linearGradient id="paint24_linear_83_5567" x1="177.866" y1="125.811" x2="171.859" y2="113.689" gradientUnits="userSpaceOnUse">
<stop offset="0.0036" stop-color="#F36F56"/>
<stop offset="1" stop-color="#FFC444"/>
</linearGradient>
<linearGradient id="paint25_linear_83_5567" x1="171.667" y1="127.869" x2="171.395" y2="118.625" gradientUnits="userSpaceOnUse">
<stop stop-color="#AB316D"/>
<stop offset="1" stop-color="#792D3D"/>
</linearGradient>
<linearGradient id="paint26_linear_83_5567" x1="169.666" y1="114.155" x2="168.94" y2="141.316" gradientUnits="userSpaceOnUse">
<stop offset="0.0036" stop-color="#F36F56"/>
<stop offset="1" stop-color="#FFC444"/>
</linearGradient>
<linearGradient id="paint27_linear_83_5567" x1="176.746" y1="123.533" x2="167.776" y2="129.037" gradientUnits="userSpaceOnUse">
<stop offset="0.0036" stop-color="#F36F56"/>
<stop offset="1" stop-color="#FFC444"/>
</linearGradient>
<linearGradient id="paint28_linear_83_5567" x1="126.25" y1="129.015" x2="121.772" y2="121.808" gradientUnits="userSpaceOnUse">
<stop offset="0.0036" stop-color="#F36F56"/>
<stop offset="1" stop-color="#FFC444"/>
</linearGradient>
<linearGradient id="paint29_linear_83_5567" x1="150.646" y1="233.047" x2="155.291" y2="216.933" gradientUnits="userSpaceOnUse">
<stop stop-color="#444B8C"/>
<stop offset="0.9964" stop-color="#26264F"/>
</linearGradient>
<linearGradient id="paint30_linear_83_5567" x1="153.971" y1="229.762" x2="158.856" y2="204.447" gradientUnits="userSpaceOnUse">
<stop stop-color="#FFC444"/>
<stop offset="0.9964" stop-color="#F36F56"/>
</linearGradient>
<linearGradient id="paint31_linear_83_5567" x1="184.033" y1="226.078" x2="183.677" y2="200.297" gradientUnits="userSpaceOnUse">
<stop stop-color="#FFC444"/>
<stop offset="0.9964" stop-color="#F36F56"/>
</linearGradient>
<linearGradient id="paint32_linear_83_5567" x1="182.254" y1="227.078" x2="186.899" y2="210.964" gradientUnits="userSpaceOnUse">
<stop stop-color="#444B8C"/>
<stop offset="0.9964" stop-color="#26264F"/>
</linearGradient>
<linearGradient id="paint33_linear_83_5567" x1="175.087" y1="172.393" x2="188.854" y2="223.914" gradientUnits="userSpaceOnUse">
<stop stop-color="#444B8C"/>
<stop offset="0.9964" stop-color="#26264F"/>
</linearGradient>
<linearGradient id="paint34_linear_83_5567" x1="175.087" y1="172.393" x2="188.854" y2="223.914" gradientUnits="userSpaceOnUse">
<stop stop-color="#444B8C"/>
<stop offset="0.9964" stop-color="#26264F"/>
</linearGradient>
<linearGradient id="paint35_linear_83_5567" x1="131.414" y1="196.006" x2="183.905" y2="192.893" gradientUnits="userSpaceOnUse">
<stop stop-color="#444B8C"/>
<stop offset="0.9964" stop-color="#26264F"/>
</linearGradient>
<linearGradient id="paint36_linear_83_5567" x1="182.525" y1="184.837" x2="166.951" y2="158.14" gradientUnits="userSpaceOnUse">
<stop offset="0.0036" stop-color="#F36F56"/>
<stop offset="1" stop-color="#FFC444"/>
</linearGradient>
<linearGradient id="paint37_linear_83_5567" x1="145.092" y1="136.603" x2="175.232" y2="182.469" gradientUnits="userSpaceOnUse">
<stop offset="0.0036" stop-color="#F36F56"/>
<stop offset="1" stop-color="#FFC444"/>
</linearGradient>
<linearGradient id="paint38_linear_83_5567" x1="48.1051" y1="206.831" x2="74.576" y2="215.729" gradientUnits="userSpaceOnUse">
<stop stop-color="#AB316D"/>
<stop offset="1" stop-color="#792D3D"/>
</linearGradient>
<linearGradient id="paint39_linear_83_5567" x1="60.0392" y1="186.116" x2="49.3986" y2="208.364" gradientUnits="userSpaceOnUse">
<stop stop-color="#FFC444"/>
<stop offset="0.9964" stop-color="#F36F56"/>
</linearGradient>
<linearGradient id="paint40_linear_83_5567" x1="79.1299" y1="91.7626" x2="59.7832" y2="156.896" gradientUnits="userSpaceOnUse">
<stop stop-color="#AA80F9"/>
<stop offset="0.9964" stop-color="#6165D7"/>
</linearGradient>
<linearGradient id="paint41_linear_83_5567" x1="54.04" y1="86.2587" x2="44.6892" y2="198.469" gradientUnits="userSpaceOnUse">
<stop offset="0.0036" stop-color="#E38DDD"/>
<stop offset="1" stop-color="#9571F6"/>
</linearGradient>
<linearGradient id="paint42_linear_83_5567" x1="26.605" y1="153.386" x2="54.7878" y2="153.386" gradientUnits="userSpaceOnUse">
<stop stop-color="#AA80F9"/>
<stop offset="0.9964" stop-color="#6165D7"/>
</linearGradient>
<clipPath id="clip0_83_5567">
<rect width="260" height="260" fill="white"/>
</clipPath>
</defs>
</svg>
