<svg width="260" height="260" viewBox="0 0 260 260" fill="none" xmlns="http://www.w3.org/2000/svg">
<path d="M260 198.847H0V198.977H260V198.847Z" fill="#EBEBEB"/>
<path d="M123.247 175.656H22.8358C21.1994 175.656 19.8677 174.324 19.8677 172.688V31.5432C19.8677 29.9068 21.1994 28.575 22.8358 28.575H123.247C124.883 28.575 126.215 29.9068 126.215 31.5432V172.688C126.215 174.324 124.883 175.656 123.247 175.656ZM22.8358 28.7056C21.2706 28.7056 19.9977 29.9785 19.9977 31.5437V172.688C19.9977 174.254 21.2706 175.527 22.8358 175.527H123.247C124.812 175.527 126.085 174.254 126.085 172.688V31.5432C126.085 29.9785 124.812 28.705 123.247 28.705L22.8358 28.7056Z" fill="#EBEBEB"/>
<path d="M235.721 175.656H135.31C133.674 175.656 132.343 174.324 132.343 172.688V31.5432C132.343 29.9068 133.674 28.575 135.31 28.575H235.721C237.358 28.575 238.689 29.9068 238.689 31.5432V172.688C238.69 174.324 237.358 175.656 235.721 175.656ZM135.31 28.7056C133.745 28.7056 132.473 29.9785 132.473 31.5437V172.688C132.473 174.254 133.745 175.527 135.31 175.527H235.721C237.286 175.527 238.559 174.254 238.559 172.688V31.5432C238.559 29.9785 237.286 28.705 235.721 28.705L135.31 28.7056Z" fill="#EBEBEB"/>
<path d="M40.1835 203.799H26.665V203.929H40.1835V203.799Z" fill="#EBEBEB"/>
<path d="M98.8935 202.388H75.4795V202.518H98.8935V202.388Z" fill="#EBEBEB"/>
<path d="M72.3159 208.628H40.7041V208.758H72.3159V208.628Z" fill="#EBEBEB"/>
<path d="M233.335 207.755H223.333V207.885H233.335V207.755Z" fill="#EBEBEB"/>
<path d="M218.703 207.755H189.951V207.885H218.703V207.755Z" fill="#EBEBEB"/>
<path d="M172.387 205.559H133.664V205.689H172.387V205.559Z" fill="#EBEBEB"/>
<path d="M88.2128 153.747H59.8312L58.1079 133.871H86.49L88.2128 153.747Z" fill="#E6E6E6"/>
<path d="M89.6827 153.747H61.3011L59.5784 133.871H87.96L89.6827 153.747Z" fill="#F0F0F0"/>
<path d="M65.181 149.479L64.2346 138.139H84.0799L85.0263 149.479H65.181Z" fill="white"/>
<path d="M106.395 153.747H102.344V198.846H106.395V153.747Z" fill="#E6E6E6"/>
<path d="M107.674 153.747H104.86V198.846H107.674V153.747Z" fill="#F0F0F0"/>
<path d="M68.4612 158.724H107.674V153.746H68.4612V158.724Z" fill="#F0F0F0"/>
<path d="M69.8475 158.724H65.7961V198.846H69.8475V158.724Z" fill="#E6E6E6"/>
<path d="M71.1262 158.724H68.3125V198.846H71.1262V158.724Z" fill="#F0F0F0"/>
<path d="M41.0093 158.724H36.958V198.846H41.0093V158.724Z" fill="#E6E6E6"/>
<path d="M42.2881 158.724H39.4744V198.846H42.2881V158.724Z" fill="#F0F0F0"/>
<path d="M80.7576 158.724H76.7063V198.846H80.7576V158.724Z" fill="#E6E6E6"/>
<path d="M82.0364 158.724H79.2227V198.846H82.0364V158.724Z" fill="#F0F0F0"/>
<path d="M68.4606 153.747H36.958V158.725H68.4606V153.747Z" fill="#E6E6E6"/>
<path d="M153.522 42.8568H35.8826V110.342H153.522V42.8568Z" fill="#E6E6E6"/>
<path d="M156.666 42.8568H37.3521V110.342H156.666V42.8568Z" fill="#F0F0F0"/>
<path d="M153.522 110.342H35.8826V116.186H153.522V110.342Z" fill="#E6E6E6"/>
<path d="M161.905 110.342H42.5906V116.186H161.905V110.342Z" fill="#F0F0F0"/>
<path d="M152.264 105.941V47.2591L41.7543 47.2591L41.7543 105.941L152.264 105.941Z" fill="#FAFAFA"/>
<path d="M49.8721 105.94L75.7093 47.2592H87.9059L62.0687 105.94H49.8721Z" fill="white"/>
<path d="M43.7924 101.559C43.6187 101.559 43.4778 101.418 43.4778 101.245V50.1233C43.4778 49.9496 43.6187 49.8087 43.7924 49.8087C43.9661 49.8087 44.107 49.9496 44.107 50.1233V101.245C44.107 101.418 43.9661 101.559 43.7924 101.559Z" fill="#F0F0F0"/>
<path d="M64.689 105.94L90.5262 47.2592H95.2811L69.4438 105.94H64.689Z" fill="white"/>
<path d="M152.264 105.941V47.2592H151.705V105.941H152.264Z" fill="#E6E6E6"/>
<path opacity="0.6" d="M157.707 53.8965H40.0682L39.6631 48.97H157.302L157.707 53.8965Z" fill="#EBEBEB"/>
<path opacity="0.6" d="M157.707 61.9757H40.0682L39.6631 57.0497H157.302L157.707 61.9757Z" fill="#EBEBEB"/>
<path opacity="0.6" d="M157.707 70.0549H40.0682L39.6631 65.129H157.302L157.707 70.0549Z" fill="#EBEBEB"/>
<path opacity="0.6" d="M157.707 78.1347H40.0682L39.6631 73.2082H157.302L157.707 78.1347Z" fill="#EBEBEB"/>
<path opacity="0.6" d="M157.707 86.2139H40.0682L39.6631 81.2874H157.302L157.707 86.2139Z" fill="#EBEBEB"/>
<path opacity="0.6" d="M157.707 94.2931H40.0682L39.6631 89.3672H157.302L157.707 94.2931Z" fill="#EBEBEB"/>
<path d="M190.019 74.5338H221.696V42.857H190.019V74.5338Z" fill="#EBEBEB"/>
<path d="M190.019 42.8568H188.615V74.5337H190.019V42.8568Z" fill="#E0E0E0"/>
<path d="M194.31 70.2423H217.405V47.148H194.31V70.2423Z" fill="white"/>
<path d="M205.859 66.4233L213.588 58.6944L205.859 50.9655L198.13 58.6944L205.859 66.4233Z" fill="#F5F5F5"/>
<path d="M179.104 116.185H210.781V84.5086H179.104V116.185Z" fill="#EBEBEB"/>
<path d="M179.104 84.5083H177.699V116.185H179.104V84.5083Z" fill="#E0E0E0"/>
<path d="M183.395 111.894H206.49V88.7996H183.395V111.894Z" fill="white"/>
<path d="M193.303 105.27H196.582C198.396 105.27 199.866 103.8 199.866 101.987V98.7074C199.866 96.8937 198.396 95.4236 196.582 95.4236H193.303C191.49 95.4236 190.019 96.8937 190.019 98.7074V101.987C190.019 103.8 191.489 105.27 193.303 105.27Z" fill="#F5F5F5"/>
<path d="M160.017 131.578H152.118V196.721H160.017V131.578Z" fill="#F0F0F0"/>
<path d="M229.059 196.721H153.212V198.847H229.059V196.721Z" fill="#F0F0F0"/>
<path d="M160.017 196.721H230.154V131.578H160.017V196.721Z" fill="#FAFAFA"/>
<path d="M216.422 169.644H173.749C169.559 169.644 166.152 166.236 166.152 162.047C166.152 157.858 169.56 154.45 173.749 154.45H216.422C220.611 154.45 224.018 157.858 224.018 162.047C224.018 166.236 220.611 169.644 216.422 169.644ZM173.749 154.96C169.841 154.96 166.661 158.139 166.661 162.047C166.661 165.954 169.841 169.133 173.749 169.133H216.422C220.33 169.133 223.509 165.954 223.509 162.047C223.509 158.139 220.33 154.96 216.422 154.96H173.749Z" fill="#F0F0F0"/>
<path d="M216.422 188.544H173.749C169.559 188.544 166.152 185.136 166.152 180.947C166.152 176.758 169.56 173.35 173.749 173.35H216.422C220.611 173.35 224.018 176.758 224.018 180.947C224.018 185.136 220.611 188.544 216.422 188.544ZM173.749 173.86C169.841 173.86 166.661 177.04 166.661 180.947C166.661 184.855 169.841 188.034 173.749 188.034H216.422C220.33 188.034 223.509 184.854 223.509 180.947C223.509 177.039 220.33 173.86 216.422 173.86H173.749Z" fill="#F0F0F0"/>
<path d="M201.524 160.409H188.646C187.774 160.409 187.061 159.695 187.061 158.824C187.061 157.952 187.774 157.239 188.646 157.239H201.524C202.396 157.239 203.109 157.952 203.109 158.824C203.109 159.695 202.396 160.409 201.524 160.409Z" fill="#EBEBEB"/>
<path d="M216.422 150.744H173.749C169.559 150.744 166.152 147.336 166.152 143.147C166.152 138.958 169.56 135.55 173.749 135.55H216.422C220.611 135.55 224.018 138.958 224.018 143.147C224.019 147.336 220.611 150.744 216.422 150.744ZM173.749 136.06C169.841 136.06 166.661 139.239 166.661 143.147C166.661 147.054 169.841 150.233 173.749 150.233H216.422C220.33 150.233 223.509 147.054 223.509 143.147C223.509 139.239 220.33 136.06 216.422 136.06H173.749Z" fill="#F0F0F0"/>
<path d="M201.524 141.509H188.646C187.774 141.509 187.061 140.795 187.061 139.924C187.061 139.052 187.774 138.339 188.646 138.339H201.524C202.396 138.339 203.109 139.052 203.109 139.924C203.109 140.795 202.396 141.509 201.524 141.509Z" fill="#EBEBEB"/>
<path d="M201.524 179.308H188.646C187.774 179.308 187.061 178.595 187.061 177.724C187.061 176.852 187.774 176.139 188.646 176.139H201.524C202.396 176.139 203.109 176.852 203.109 177.724C203.109 178.596 202.396 179.308 201.524 179.308Z" fill="#EBEBEB"/>
<path d="M231.596 128.267H160.017V131.578H231.596V128.267Z" fill="#F0F0F0"/>
<path d="M150.569 131.578H160.017V128.266H150.569V131.578Z" fill="#E6E6E6"/>
<path d="M130 222.332C185.683 222.332 230.822 219.696 230.822 216.444C230.822 213.192 185.683 210.556 130 210.556C74.3174 210.556 29.1777 213.192 29.1777 216.444C29.1777 219.696 74.3174 222.332 130 222.332Z" fill="#F5F5F5"/>
<path d="M215.094 77.0791H136.721C136.721 77.0791 122.6 90.0609 122.6 121.688C122.6 148.868 133.305 185.717 129.287 200.806C126.257 212.188 111.554 214.141 104.512 214.414H179.109C179.109 214.414 203.642 215.895 207.659 200.806C211.677 185.717 200.973 148.868 200.973 121.688C200.973 90.0609 215.094 77.0791 215.094 77.0791Z" fill="#22D3EE"/>
<path opacity="0.7" d="M215.094 77.0791H136.721C136.721 77.0791 122.6 90.0609 122.6 121.688C122.6 148.868 133.305 185.717 129.287 200.806C126.257 212.188 111.554 214.141 104.512 214.414H179.109C179.109 214.414 203.642 215.895 207.659 200.806C211.677 185.717 200.973 148.868 200.973 121.688C200.973 90.0609 215.094 77.0791 215.094 77.0791Z" fill="white"/>
<g opacity="0.8">
<path opacity="0.8" d="M193.773 110.412H131.092C132.865 96.5068 137.644 88.4156 140.28 84.8796H200.694C197.756 91.0676 194.958 99.4968 193.773 110.412Z" fill="#22D3EE"/>
<path opacity="0.3" d="M193.247 117.785H130.478C130.53 116.522 130.603 115.294 130.707 114.109H193.44C193.351 115.305 193.289 116.532 193.247 117.785Z" fill="#22D3EE"/>
<path opacity="0.3" d="M150.159 125.154H130.458C130.421 123.978 130.4 122.824 130.4 121.685V121.482H150.107V121.685C150.107 122.829 150.122 123.989 150.159 125.154Z" fill="#22D3EE"/>
<path opacity="0.3" d="M193.622 132.522H130.899C130.79 131.284 130.702 130.057 130.634 128.851H193.383C193.445 130.068 193.523 131.29 193.622 132.522Z" fill="#22D3EE"/>
<path opacity="0.3" d="M194.314 139.896H131.643C131.498 138.663 131.362 137.436 131.238 136.219H193.934C194.048 137.441 194.178 138.668 194.314 139.896Z" fill="#22D3EE"/>
<path opacity="0.3" d="M195.218 147.264H132.59C132.418 146.037 132.257 144.81 132.101 143.593H194.75C194.896 144.815 195.052 146.037 195.218 147.264Z" fill="#22D3EE"/>
<path opacity="0.3" d="M196.253 154.632H133.656C133.474 153.405 133.292 152.183 133.115 150.961H195.728C195.9 152.183 196.076 153.41 196.253 154.632Z" fill="#22D3EE"/>
<path opacity="0.3" d="M197.361 162.006H134.768C134.67 161.335 134.566 160.654 134.462 159.973C134.378 159.427 134.295 158.881 134.212 158.33H196.804C196.992 159.557 197.174 160.784 197.361 162.006Z" fill="#22D3EE"/>
<path opacity="0.3" d="M135.86 169.374C135.689 168.163 135.512 166.941 135.325 165.703H197.922C198.104 166.93 198.292 168.152 198.468 169.374H135.86Z" fill="#22D3EE"/>
<path opacity="0.3" d="M136.854 176.743C136.708 175.542 136.547 174.314 136.38 173.072H188.587C188.764 174.309 188.93 175.536 189.086 176.743H136.854Z" fill="#22D3EE"/>
<path opacity="0.3" d="M137.623 184.116C137.524 182.915 137.41 181.688 137.28 180.44H199.95C200.091 181.698 200.221 182.926 200.33 184.116H137.623Z" fill="#22D3EE"/>
<path opacity="0.3" d="M137.982 191.485C137.977 190.299 137.935 189.072 137.868 187.814H170.934C171.018 189.098 171.064 190.325 171.08 191.485H137.982Z" fill="#22D3EE"/>
</g>
<path d="M185.127 210.433C181.149 211.156 177.119 210.604 173.119 210.411C171.201 210.318 169.273 210.31 167.366 210.565C165.498 210.814 163.634 211.301 161.747 211.137C162.37 210.801 162.953 210.404 163.501 209.946C163.622 209.844 163.541 209.664 163.415 209.62C157.544 207.56 152.197 213.17 146.351 211.856C148.006 210.629 150.341 210.604 151.756 208.994C151.866 208.868 151.794 208.664 151.619 208.661C146.381 208.579 141.433 210.61 136.255 211.062C136.007 211.084 136.004 211.474 136.255 211.452C141.275 211.013 146.083 209.097 151.142 209.055C149.631 210.405 147.322 210.455 145.782 211.816C145.67 211.915 145.733 212.104 145.867 212.142C151.76 213.769 157.13 208.145 162.951 209.884C162.34 210.36 161.689 210.759 160.982 211.085C160.836 211.153 160.867 211.414 161.029 211.441C162.947 211.763 164.823 211.353 166.715 211.052C168.837 210.714 170.978 210.696 173.12 210.8C177.158 210.996 181.214 211.539 185.232 210.809C185.478 210.765 185.373 210.389 185.127 210.433Z" fill="#22D3EE"/>
<path d="M78.9755 96.2665C79.3051 96.6867 79.7243 97.1823 80.1111 97.6393C80.5084 98.1037 80.9166 98.5613 81.3342 99.009C82.1719 99.9019 83.0185 100.783 83.9134 101.598C85.6996 103.216 87.6163 104.678 89.6235 105.601C89.8736 105.713 90.1248 105.821 90.3759 105.911C90.507 105.965 90.6209 106.001 90.7285 106.035C90.8377 106.073 90.95 106.109 91.0701 106.134C91.5392 106.252 92.0535 106.338 92.5953 106.371C93.6816 106.431 94.8531 106.358 96.0361 106.175C97.2217 106.001 98.4224 105.732 99.6215 105.414C100.814 105.102 102.037 104.715 103.179 104.315L104.231 106.376C101.901 107.81 99.4827 108.923 96.7969 109.682C95.4579 110.052 94.0518 110.319 92.5537 110.367C91.8044 110.389 91.0259 110.353 90.2298 110.211C90.0317 110.182 89.831 110.138 89.6297 110.087C89.4243 110.04 89.2278 109.988 89.0551 109.931C88.6906 109.825 88.3386 109.701 87.9907 109.571C85.2181 108.496 82.9113 106.849 80.8355 105.055C79.8028 104.149 78.8075 103.215 77.8866 102.215C77.4238 101.717 76.9724 101.21 76.5315 100.692C76.0806 100.166 75.6781 99.6642 75.2273 99.0548L78.9755 96.2665Z" fill="#FFB573"/>
<path d="M73.6908 94.797C73.5764 97.7095 74.7058 102.958 74.7058 102.958L81.914 102.085C81.914 102.085 82.1782 94.4023 80.781 92.5454C78.4342 89.4254 73.7989 92.0462 73.6908 94.797Z" fill="#22D3EE"/>
<path d="M102.241 105.069L105.619 101.979L106.049 105.306C106.049 105.306 104.65 107.18 103.064 106.392L102.241 105.069Z" fill="#FFB573"/>
<path d="M107.313 102.159L108.743 104.034L106.049 105.306L105.619 101.979L107.313 102.159Z" fill="#FFB573"/>
<path d="M106.462 93.7394C106.819 93.7175 107.016 93.7378 107.273 93.742C107.403 93.7435 107.518 93.7492 107.598 93.7643L107.869 93.8007C108.185 93.861 108.386 93.951 108.513 94.0602C108.637 94.1699 108.644 94.3103 108.691 94.4398L108.812 94.8345L109.294 96.4132L110.258 99.5706L112.187 105.886C113.462 110.1 114.787 114.3 116.016 118.525C118.539 126.958 120.928 135.426 123.272 143.906C125.614 152.386 127.821 160.901 130.086 169.401C132.385 177.892 134.383 186.462 135.104 195.361C135.219 196.782 134.162 198.026 132.741 198.142C131.628 198.232 130.621 197.597 130.183 196.636C126.492 188.506 124.078 180.044 121.964 171.505C119.817 162.974 117.612 154.459 115.542 145.908C113.473 137.357 111.45 128.795 109.561 120.197C108.584 115.906 107.703 111.591 106.771 107.29L105.391 100.832L104.701 97.603L104.356 95.9884L104.27 95.5848C104.248 95.4486 104.186 95.3228 104.241 95.1662C104.299 95.0092 104.431 94.8329 104.678 94.627L104.898 94.4637C104.961 94.4117 105.058 94.3514 105.172 94.2864C105.394 94.158 105.556 94.0446 105.879 93.8902C106.066 93.8012 106.267 93.7518 106.462 93.7394Z" fill="#263238"/>
<path d="M134.609 196.646C134.521 196.355 134.225 196.177 133.931 196.254L132.787 196.55L131.643 196.847C131.348 196.923 131.176 197.221 131.241 197.518C131.955 200.79 131.257 203.139 132.003 206.018C132.789 209.051 136.205 210.603 136.205 210.603L136.093 209.311L136.623 210.494C136.623 210.494 138.856 207.479 138.07 204.446C137.324 201.567 135.573 199.853 134.609 196.646Z" fill="#22D3EE"/>
<path opacity="0.3" d="M134.609 196.646C134.521 196.355 134.225 196.177 133.931 196.254L132.787 196.55L131.643 196.847C131.348 196.923 131.176 197.221 131.241 197.518C131.955 200.79 131.257 203.139 132.003 206.018C132.789 209.051 136.205 210.603 136.205 210.603L136.093 209.311L136.623 210.494C136.623 210.494 138.856 207.479 138.07 204.446C137.324 201.567 135.573 199.853 134.609 196.646Z" fill="white"/>
<path d="M135.499 204.163C135.598 204.546 135.368 204.937 134.985 205.036C134.603 205.135 134.212 204.905 134.113 204.523C134.013 204.14 134.243 203.75 134.626 203.65C135.009 203.551 135.4 203.781 135.499 204.163Z" fill="#263238"/>
<path d="M136.133 209.468C136.047 209.491 135.958 209.439 135.936 209.352L134.648 204.383C134.626 204.297 134.678 204.208 134.765 204.186C134.852 204.163 134.94 204.215 134.962 204.302L136.249 209.271C136.272 209.358 136.22 209.446 136.133 209.468Z" fill="#263238"/>
<path d="M131.923 178.784L124.915 180.6C124.512 180.705 124.098 180.46 123.993 180.058C123.889 179.655 124.133 179.24 124.536 179.136L131.544 177.32C131.946 177.215 132.361 177.46 132.466 177.862C132.57 178.265 132.326 178.68 131.923 178.784Z" fill="#22D3EE"/>
<path d="M96.343 83.6165C96.2176 83.929 96.2816 84.2545 96.4854 84.3429C96.6898 84.4313 96.9571 84.2499 97.0824 83.9373C97.2077 83.6248 97.1438 83.2993 96.9399 83.2109C96.7356 83.122 96.4683 83.304 96.343 83.6165Z" fill="#263238"/>
<path d="M96.8428 83.1891L97.68 83.2977C97.68 83.2977 97.0596 83.7174 96.8428 83.1891Z" fill="#263238"/>
<path d="M96.4839 84.0346C96.4839 84.0346 96.474 85.6102 96.7969 86.5129C96.2301 86.7193 95.5994 86.2394 95.5994 86.2394L96.4839 84.0346Z" fill="#ED893E"/>
<path d="M97.5993 81.7133C97.5681 81.7066 97.5384 81.692 97.5124 81.6701C96.8364 81.0888 96.1334 81.2588 96.1037 81.2661C95.9971 81.2932 95.889 81.2297 95.8619 81.1236C95.8344 81.0176 95.8973 80.9099 96.0029 80.8813C96.0403 80.8714 96.9321 80.6463 97.7719 81.3685C97.8551 81.4403 97.8645 81.5656 97.7927 81.6488C97.7438 81.7065 97.6689 81.7289 97.5993 81.7133Z" fill="#263238"/>
<path d="M85.3169 83.4548C85.542 85.9846 84.695 90.1316 82.7834 91.5429C82.7834 91.5429 84.2233 94.2052 88.8362 94.8246C93.9083 95.5052 91.5257 92.6504 91.5257 92.6504C88.8269 91.6224 89.115 89.5934 89.8003 87.7437L85.3169 83.4548Z" fill="#FFB573"/>
<path d="M99.1355 96.967C99.5322 99.3314 100.026 101.78 100.542 104.165C100.816 105.358 101.094 106.551 101.417 107.723C101.715 108.905 102.06 110.064 102.421 111.213C102.616 111.778 102.792 112.355 103 112.909L103.312 113.741L103.389 113.945L103.407 114.004C103.42 114.039 103.429 114.073 103.445 114.099C103.491 114.2 103.605 114.348 103.934 114.479C104.252 114.606 104.709 114.689 105.21 114.722C106.222 114.78 107.382 114.652 108.538 114.45C109.69 114.246 110.9 113.965 112.028 113.65L112.981 115.759C112.384 116.118 111.816 116.406 111.214 116.694C110.618 116.983 110.007 117.243 109.377 117.476C108.115 117.939 106.796 118.325 105.294 118.45C104.541 118.51 103.732 118.5 102.84 118.283C101.967 118.076 100.927 117.584 100.195 116.689C100.01 116.473 99.8536 116.238 99.7142 115.999C99.6445 115.88 99.5863 115.759 99.5249 115.637L99.422 115.406L99.0179 114.495C98.7507 113.887 98.5182 113.276 98.2749 112.664C97.8277 111.436 97.4018 110.204 97.03 108.965C96.6561 107.725 96.3327 106.479 96.0149 105.232C95.3925 102.725 94.8912 100.248 94.5132 97.6497L99.1355 96.967Z" fill="#FFB573"/>
<path d="M111.511 113.795L113.519 112.203L114.42 115.295C114.42 115.295 111.674 117.281 110.94 114.945L111.511 113.795Z" fill="#FFB573"/>
<path d="M115.329 112.753L116.047 115.007L114.42 115.295L113.519 112.203L115.329 112.753Z" fill="#FFB573"/>
<path d="M77.8269 211.854L82.0223 212.163L83.2687 202.529L79.0728 202.219L77.8269 211.854Z" fill="#FFB573"/>
<path d="M50.9558 199.613L54.5906 201.823L60.6356 194.272L57.0013 192.061L50.9558 199.613Z" fill="#FFB573"/>
<path d="M57.1256 202.934C57.0772 202.948 57.0262 202.954 56.9737 202.953C56.4392 202.941 55.8349 202.138 55.5224 201.66C55.5011 201.626 55.5006 201.583 55.5234 201.549C55.5463 201.516 55.5864 201.5 55.6254 201.508C55.7959 201.542 57.2972 201.857 57.4948 202.359C57.539 202.471 57.5218 202.586 57.4459 202.692C57.3544 202.819 57.2467 202.9 57.1256 202.934ZM55.8287 201.756C56.2676 202.379 56.6893 202.748 56.9779 202.754C57.0959 202.757 57.1968 202.699 57.2842 202.576C57.331 202.51 57.3226 202.465 57.3102 202.432C57.2056 202.167 56.4256 201.9 55.8287 201.756Z" fill="#22D3EE"/>
<path d="M56.9031 201.635C56.4512 201.762 55.8652 201.778 55.5797 201.701C55.5459 201.692 55.5188 201.666 55.51 201.632C55.5006 201.598 55.5095 201.561 55.5339 201.536C55.5682 201.5 56.3945 200.653 56.9998 200.678C57.1662 200.685 57.303 200.753 57.407 200.88C57.5692 201.077 57.5089 201.237 57.4584 201.315C57.3659 201.458 57.1558 201.564 56.9031 201.635ZM55.8132 201.542C56.3202 201.597 57.134 201.451 57.291 201.207C57.317 201.167 57.3362 201.107 57.2525 201.005C57.1854 200.923 57.1002 200.881 56.992 200.877C56.629 200.862 56.1028 201.275 55.8132 201.542Z" fill="#22D3EE"/>
<path d="M55.681 201.013L52.2329 197.693C52.1076 197.572 51.924 197.559 51.792 197.661L48.8498 199.932C48.5446 200.167 48.5378 200.662 48.8316 200.935C50.0531 202.072 50.6984 202.562 52.2147 204.022C53.1476 204.92 54.42 206.327 55.7081 207.567C56.968 208.78 58.255 207.636 57.8266 207.008C55.9046 204.19 56.1917 203.131 56.017 201.69C55.9863 201.43 55.8646 201.19 55.681 201.013Z" fill="#263238"/>
<path d="M83.8443 212.299C83.382 212.299 82.8813 212.22 82.5261 212.149C82.4845 212.141 82.4533 212.107 82.4476 212.065C82.4414 212.023 82.4632 211.983 82.5001 211.963C82.6925 211.864 84.3945 211.007 84.8973 211.294C84.9951 211.349 85.0507 211.44 85.058 211.558C85.071 211.756 85.006 211.919 84.8656 212.041C84.6462 212.235 84.2608 212.299 83.8443 212.299ZM82.8589 212.008C83.7845 212.162 84.4746 212.122 84.7356 211.893C84.8282 211.812 84.8682 211.707 84.8599 211.572C84.8568 211.52 84.8386 211.489 84.8001 211.467C84.5224 211.312 83.5568 211.677 82.8589 212.008Z" fill="#22D3EE"/>
<path d="M82.5459 212.151C82.5251 212.151 82.5043 212.145 82.4876 212.132C82.459 212.111 82.4434 212.076 82.4471 212.041C82.4549 211.966 82.6488 210.25 83.5879 210.25C83.6145 210.25 83.642 210.252 83.6696 210.254C83.9415 210.282 84.0195 210.42 84.0372 210.53C84.1131 211.004 83.0976 211.913 82.5859 212.142C82.5734 212.149 82.5594 212.151 82.5459 212.151ZM83.5916 210.45C82.9863 210.45 82.7476 211.447 82.6733 211.873C83.1964 211.561 83.8869 210.846 83.8412 210.563C83.8375 210.54 83.8261 210.471 83.6498 210.453C83.6295 210.451 83.6108 210.45 83.5916 210.45Z" fill="#22D3EE"/>
<path d="M82.2841 211.566H77.5677C77.3961 211.566 77.2537 211.685 77.2256 211.852L76.5922 215.584C76.5267 215.971 76.8501 216.337 77.2459 216.33C78.8906 216.302 79.6857 216.206 81.7595 216.206C83.0355 216.206 85.6709 216.338 87.4332 216.338C89.1565 216.338 89.3338 214.596 88.6042 214.438C85.3324 213.73 84.0631 212.755 82.9789 211.824C82.7833 211.656 82.5353 211.566 82.2841 211.566Z" fill="#263238"/>
<path opacity="0.2" d="M83.2671 202.531L82.5755 207.886L78.428 207.191L79.0697 202.222L83.2671 202.531Z" fill="black"/>
<path opacity="0.2" d="M56.9987 192.063L60.6351 194.275L58.1328 197.397L54.4185 195.283L56.9987 192.063Z" fill="black"/>
<path d="M75.711 116.823C78.9953 117.262 85.9628 118.199 92.7015 119.105C99.2842 95.2796 97.3435 94.6259 97.3425 94.6254C96.8241 94.315 95.808 94.0019 95.0295 93.7201C94.2282 93.4305 93.4186 93.1647 92.6017 92.9229C90.9678 92.4393 89.3054 92.0519 87.6263 91.7633C84.3649 91.2002 81.0348 91.0135 77.7307 91.2085C77.0859 91.2465 76.4265 91.6125 76.0636 92.157C75.9944 92.2605 75.9341 92.3702 75.8816 92.483C75.698 92.8767 75.6278 93.3181 75.6772 93.7497C77.1265 106.286 76.6637 110.408 75.711 116.823Z" fill="#22D3EE"/>
<path opacity="0.2" d="M94.3561 101.935C93.8901 105.261 94.7435 107.956 95.2749 109.237C96.4049 104.587 97.0159 101.416 97.3206 99.2529C96.0242 99.1593 94.6759 99.6564 94.3561 101.935Z" fill="black"/>
<path d="M97.1953 94.5557C100.104 96.2229 102.126 100.189 102.736 102.494L96.5401 108.172C96.5401 108.172 93.3255 100.699 93.5844 98.3772C93.846 96.0268 96.095 93.9255 97.1953 94.5557Z" fill="#22D3EE"/>
<path d="M86.2357 78.2267C84.931 82.1683 84.295 83.8063 85.4421 86.6169C87.1675 90.845 92.2812 91.7363 94.734 88.3007C96.9419 85.2082 98.7042 79.2818 95.5624 76.1254C92.4663 73.0163 87.5403 74.2851 86.2357 78.2267Z" fill="#FFB573"/>
<path d="M92.7003 81.7237C92.406 82.4189 92.4044 83.2858 92.576 83.9852C92.8339 85.0377 93.6191 85.1115 94.0975 84.4402C94.5276 83.8359 94.9124 82.5609 94.3887 81.6868C93.8729 80.8257 93.0367 80.9286 92.7003 81.7237Z" fill="#FFB573"/>
<path d="M87.649 73.32C84.8447 71.76 79.7913 76.3245 78.5199 83.7767C77.6094 89.1139 89.0036 91.6931 96.1983 91.6063C95.7231 90.3495 92.7331 86.5639 94.6415 82.9207C96.0278 80.2734 97.6096 80.8839 97.7126 77.8045C97.8415 73.9268 92.7045 71.3268 87.649 73.32Z" fill="#263238"/>
<path d="M94.0442 74.9954C97.3072 74.6777 100.591 77.8845 98.1532 81.0831C98.1532 81.0831 96.3738 79.5023 93.8695 80.0509C92.3802 80.3774 94.0442 74.9954 94.0442 74.9954Z" fill="#263238"/>
<path d="M88.2164 118.502C88.2164 118.502 81.6191 146.387 78.536 162.405C75.2829 179.306 59.6756 196.912 59.6756 196.912L54.3748 193.956C54.3748 193.956 64.195 177.885 67.381 162.105C73.8482 130.073 69.4698 123.621 75.7124 116.824L88.2164 118.502Z" fill="#263238"/>
<path d="M60.2003 197.41L53.5823 193.72L54.549 191.765L61.9725 195.18L60.2003 197.41Z" fill="#22D3EE"/>
<path opacity="0.2" d="M84.7106 124.563C79.5808 129.016 80.1357 144.819 80.6723 151.941C82.8251 141.816 85.4121 130.54 86.929 124.014C86.3887 123.61 85.6534 123.744 84.7106 124.563Z" fill="black"/>
<path d="M92.4493 119.119C92.4493 119.119 95.4174 152.223 93.7981 164.85C92.1139 177.985 83.5432 206.562 83.5432 206.562L77.4915 205.78C77.4915 205.78 82.4075 177.462 83.2817 164.458C84.2343 150.282 80.0067 117.449 80.0067 117.449L92.4493 119.119Z" fill="#263238"/>
<path d="M84.8301 206.907L76.2048 205.793L76.3374 203.246L85.6948 204.153L84.8301 206.907Z" fill="#22D3EE"/>
<path d="M75.5626 115.8L74.636 117.207C74.5642 117.316 74.6911 117.454 74.8877 117.48L92.707 119.872C92.8604 119.893 92.9951 119.835 93.0149 119.741L93.3284 118.252C93.3503 118.149 93.227 118.042 93.0591 118.02L75.8528 115.71C75.7264 115.693 75.6089 115.73 75.5626 115.8Z" fill="#22D3EE"/>
<path opacity="0.5" d="M75.5626 115.8L74.636 117.207C74.5642 117.316 74.6911 117.454 74.8877 117.48L92.707 119.872C92.8604 119.893 92.9951 119.835 93.0149 119.741L93.3284 118.252C93.3503 118.149 93.227 118.042 93.0591 118.02L75.8528 115.71C75.7264 115.693 75.6089 115.73 75.5626 115.8Z" fill="black"/>
<path d="M77.6708 118.02L77.21 117.958C77.1185 117.945 77.0535 117.889 77.066 117.833L77.4903 115.9C77.5028 115.844 77.5881 115.808 77.6796 115.82L78.1403 115.881C78.2318 115.894 78.2968 115.95 78.2843 116.007L77.86 117.939C77.8476 117.996 77.7623 118.032 77.6708 118.02Z" fill="#263238"/>
<path d="M89.3093 119.609L88.8486 119.547C88.7571 119.534 88.6921 119.478 88.7041 119.422L89.1284 117.489C89.1409 117.433 89.2261 117.397 89.3177 117.409L89.7784 117.471C89.8699 117.483 89.9349 117.539 89.9224 117.596L89.4981 119.528C89.4861 119.585 89.4008 119.621 89.3093 119.609Z" fill="#263238"/>
</svg>
