<svg width="260" height="260" viewBox="0 0 260 260" fill="none" xmlns="http://www.w3.org/2000/svg">
<path d="M260 198.847H0V198.977H260V198.847Z" fill="#D1E3FF"/>
<path d="M76.6631 205.4H26.856V205.53H76.6631V205.4Z" fill="#D1E3FF"/>
<path d="M55.0338 202.8H43.1248V202.93H55.0338V202.8Z" fill="#D1E3FF"/>
<path d="M142.422 203.183H118.824V203.313H142.422V203.183Z" fill="#D1E3FF"/>
<path d="M223.773 204.071H198.471V204.201H223.773V204.071Z" fill="#D1E3FF"/>
<path d="M90.7546 205.4H81.6978V205.53H90.7546V205.4Z" fill="#D1E3FF"/>
<path d="M231.705 204.071H228.02V204.201H231.705V204.071Z" fill="#D1E3FF"/>
<path d="M123.247 175.656H22.8358C21.1994 175.656 19.8677 174.324 19.8677 172.688V31.5432C19.8677 29.9068 21.1994 28.575 22.8358 28.575H123.247C124.883 28.575 126.215 29.9068 126.215 31.5432V172.688C126.215 174.324 124.883 175.656 123.247 175.656ZM22.8358 28.7056C21.2706 28.7056 19.9977 29.9785 19.9977 31.5437V172.688C19.9977 174.254 21.2706 175.527 22.8358 175.527H123.247C124.812 175.527 126.085 174.254 126.085 172.688V31.5432C126.085 29.9785 124.812 28.705 123.247 28.705L22.8358 28.7056Z" fill="#D1E3FF"/>
<path d="M235.721 175.656H135.31C133.674 175.656 132.343 174.324 132.343 172.688V31.5432C132.343 29.9068 133.674 28.575 135.31 28.575H235.721C237.358 28.575 238.689 29.9068 238.689 31.5432V172.688C238.69 174.324 237.358 175.656 235.721 175.656ZM135.31 28.7056C133.745 28.7056 132.473 29.9785 132.473 31.5437V172.688C132.473 174.254 133.745 175.527 135.31 175.527H235.721C237.286 175.527 238.559 174.254 238.559 172.688V31.5432C238.559 29.9785 237.286 28.705 235.721 28.705L135.31 28.7056Z" fill="#D1E3FF"/>
<path d="M219.976 38.2881H149.11V120.862H219.976V38.2881Z" fill="#D1E3FF"/>
<path d="M221.902 38.2881H150.01V120.862H221.902V38.2881Z" fill="#F3F8FF"/>
<path d="M219.976 120.862H149.11V125.488H219.976V120.862Z" fill="#D1E3FF"/>
<path d="M230.707 120.862H163.03V125.488H230.707V120.862Z" fill="#F3F8FF"/>
<path d="M219.205 117.36V41.7908L152.707 41.7908V117.36L219.205 117.36Z" fill="#F5FCFF"/>
<path d="M162.274 117.36L178.101 41.7908H198.847L183.02 117.36H162.274Z" fill="white"/>
<path d="M186.378 117.36L202.204 41.7908H211.573L195.747 117.36H186.378Z" fill="white"/>
<path d="M219.206 109.452V41.3173H218.863V109.452H219.206Z" fill="#D1E3FF"/>
<path d="M147.086 38.169V67.5683H154.865C154.865 67.5683 168.841 58.4522 172.017 39.6989C172.339 37.7946 170.881 36.0521 168.95 36.0521H149.203C148.034 36.0526 147.086 37.0001 147.086 38.169Z" fill="#D1E3FF"/>
<path d="M147.086 114.697V69.9416H154.865C154.865 69.9416 159.337 78.9755 163.796 89.3672C168.941 101.355 160.132 114.697 147.086 114.697Z" fill="#D1E3FF"/>
<path d="M154.636 69.9421H147.372C146.942 69.9421 146.593 69.5932 146.593 69.1626V68.3478C146.593 67.9172 146.942 67.5683 147.372 67.5683H154.636C155.067 67.5683 155.416 67.9172 155.416 68.3478V69.1626C155.416 69.5932 155.067 69.9421 154.636 69.9421Z" fill="#F3F8FF"/>
<path d="M224.105 38.169V67.5683H216.326C216.326 67.5683 202.35 58.4522 199.174 39.6989C198.852 37.7946 200.31 36.0521 202.241 36.0521H221.988C223.157 36.0526 224.105 37.0001 224.105 38.169Z" fill="#D1E3FF"/>
<path d="M224.105 114.697V69.9416H216.326C216.326 69.9416 211.854 78.9755 207.394 89.3672C202.249 101.355 211.059 114.697 224.105 114.697Z" fill="#D1E3FF"/>
<path d="M216.555 69.9421H223.819C224.249 69.9421 224.598 69.5932 224.598 69.1626V68.3478C224.598 67.9172 224.249 67.5683 223.819 67.5683H216.555C216.124 67.5683 215.775 67.9172 215.775 68.3478V69.1626C215.775 69.5932 216.124 69.9421 216.555 69.9421Z" fill="#F3F8FF"/>
<path d="M51.8554 84.642C42.4257 84.642 34.7817 76.998 34.7817 67.5683C34.7817 58.1386 42.4257 50.4946 51.8554 50.4946H52.9058V84.6425H51.8554V84.642Z" fill="#D1E3FF"/>
<path d="M64.9774 79.6411C71.645 72.9735 71.645 62.1631 64.9774 55.4955C58.3098 48.8279 47.4995 48.8279 40.8318 55.4955C34.1642 62.1631 34.1642 72.9735 40.8318 79.6411C47.4995 86.3087 58.3098 86.3087 64.9774 79.6411Z" fill="#F3F8FF"/>
<path d="M52.9053 80.4414C60.015 80.4414 65.7785 74.6779 65.7785 67.5683C65.7785 60.4587 60.015 54.6952 52.9053 54.6952C45.7957 54.6952 40.0322 60.4587 40.0322 67.5683C40.0322 74.6779 45.7957 80.4414 52.9053 80.4414Z" fill="white"/>
<path d="M58.2307 72.3528L51.9304 67.9573L53.9283 58.2281L55.6463 58.5811L53.8809 67.1793L59.2343 70.914L58.2307 72.3528Z" fill="#D1E3FF"/>
<path d="M135.313 126.515H113V198.847H135.313V126.515Z" fill="#D1E3FF"/>
<path d="M129.355 198.847H135.313V188.862H123.107L129.355 198.847Z" fill="#F3F8FF"/>
<path d="M49.4453 126.515H27.1321V198.847H49.4453V126.515Z" fill="#D1E3FF"/>
<path d="M135.313 126.515H44.2454V195.41H135.313V126.515Z" fill="#F3F8FF"/>
<path d="M50.2035 198.847H44.2454V188.862H56.4508L50.2035 198.847Z" fill="#F3F8FF"/>
<path d="M130.69 152.188H48.8669V169.429H130.69V152.188Z" fill="#E3EEFF"/>
<path d="M130.69 173.114H48.8669V190.355H130.69V173.114Z" fill="#E3EEFF"/>
<path d="M118.43 154.031H61.1276C59.2847 154.031 57.7913 152.537 57.7913 150.694H121.767C121.767 152.537 120.273 154.031 118.43 154.031Z" fill="#F3F8FF"/>
<path d="M130.69 131.262H48.8669V148.503H130.69V131.262Z" fill="#E3EEFF"/>
<path d="M118.43 133.105H61.1276C59.2847 133.105 57.7913 131.611 57.7913 129.768H121.767C121.767 131.611 120.273 133.105 118.43 133.105Z" fill="#F3F8FF"/>
<path d="M118.43 174.958H61.1276C59.2847 174.958 57.7913 173.464 57.7913 171.621H121.767C121.767 173.464 120.273 174.958 118.43 174.958Z" fill="#F3F8FF"/>
<path d="M214.97 198.847H169.902L166.218 146.98H211.286L214.97 198.847Z" fill="#D1E3FF"/>
<path d="M220.085 198.847H171.295L167.612 146.98H216.402L220.085 198.847Z" fill="#EEF9FF"/>
<path d="M175.092 194.76L171.99 151.067H212.605L215.708 194.76H175.092Z" fill="white"/>
<path d="M203.297 182.034C207.987 177.175 207.561 169.153 202.343 164.117C197.126 159.081 189.094 158.938 184.403 163.797C179.713 168.657 180.14 176.679 185.357 181.715C190.574 186.751 198.606 186.894 203.297 182.034Z" fill="#EEF9FF"/>
<path d="M87.5097 78.5845C89.7894 80.445 92.9354 83.8521 95.8183 88.6454C97.7381 91.8377 98.8957 95.1824 99.4037 99.6013C99.3928 94.5994 99.3772 89.2247 99.3595 84.1521C98.7802 82.8469 97.4579 79.8382 96.5094 77.4618C93.3441 69.5313 92.1648 67.5808 89.3178 60.7402C85.5207 51.6162 81.6296 40.7898 82.7434 41.6551C85.0137 43.4179 93.7144 59.71 94.6545 62.0422C97.8895 70.0638 98.7901 75.9106 99.3501 81.5537C99.3325 76.7894 99.3137 72.4152 99.2961 69.0394C99.2378 58.0299 99.0506 54.4768 98.9591 53.3811C98.6071 52.8242 98.1916 52.1752 97.9493 51.8253C95.9057 48.8701 95.1173 46.3528 93.1918 41.9453C90.4628 35.6996 88.1129 24.6111 88.8004 25.1706C91.6609 27.4992 93.9177 32.5057 96.8822 38.8851C99.8467 45.2644 98.9991 48.933 99.5873 54.3816C99.711 55.4512 99.8051 59.4854 99.8738 65.078C100.643 59.1204 102.085 55.1944 104.717 51.6266C107.954 47.2384 111.086 44.2744 113.384 42.7263C115.682 41.1783 109.416 51.9574 106.42 56.6618C103.751 60.8514 101.293 64.5486 99.9071 68.1897C99.9804 75.7682 100.014 85.3658 100.015 94.2989C100.702 90.233 101.824 85.8556 103.322 82.4658C105.121 78.3926 107.89 72.1458 110.092 70.0263C110.622 69.5172 107.789 81.6676 105.97 84.8983C104.152 88.1291 102.817 91.1737 101.673 93.0051C101.406 93.4326 100.521 95.0799 100.015 96.0279C100.009 106.934 99.9544 116.557 99.8592 119.833H99.3881C99.4203 118.988 99.4255 113.44 99.4151 106.098C98.2805 102.111 95.6857 97.5614 93.5443 93.4107C91.2075 88.88 85.2301 76.7239 87.5097 78.5845Z" fill="#D1E3FF"/>
<path d="M92.8023 126.515H106.437L107.466 113.15H91.7732L92.8023 126.515Z" fill="#E3EEFF"/>
<path d="M90.7571 114.707H108.482L108.99 110.198H90.249L90.7571 114.707Z" fill="#E3EEFF"/>
<path d="M130 222.332C185.683 222.332 230.822 219.696 230.822 216.444C230.822 213.192 185.683 210.556 130 210.556C74.3174 210.556 29.1777 213.192 29.1777 216.444C29.1777 219.696 74.3174 222.332 130 222.332Z" fill="#F0F6FF"/>
<path d="M90.6672 212.068H86.8571L86.4775 203.246H90.2876L90.6672 212.068Z" fill="#B55B52"/>
<path d="M113.542 212.068H109.732L107.817 203.246H111.627L113.542 212.068Z" fill="#B55B52"/>
<path d="M109.461 211.628H113.742C113.898 211.628 114.032 211.736 114.066 211.888L114.818 215.274C114.896 215.626 114.62 215.958 114.261 215.952C112.766 215.926 112.04 215.838 110.158 215.838C109 215.838 106.614 215.959 105.015 215.959C103.451 215.959 103.207 214.377 103.862 214.234C106.797 213.592 107.903 212.706 108.843 211.861C109.012 211.709 109.234 211.628 109.461 211.628Z" fill="#14365B"/>
<path d="M86.8822 211.628H91.0427C91.1982 211.628 91.3334 211.736 91.3672 211.888L92.1196 215.274C92.1976 215.625 91.9308 215.958 91.5715 215.952C90.0708 215.926 87.9019 215.838 86.0153 215.838C83.8095 215.838 81.9047 215.959 79.3177 215.959C77.7536 215.959 77.3194 214.377 77.974 214.234C80.9547 213.582 83.3883 213.512 85.9638 211.924C86.2441 211.752 86.5535 211.628 86.8822 211.628Z" fill="#14365B"/>
<path d="M84.0766 87.5747L78.9379 85.5395C78.9379 85.5395 73.0224 97.6196 71.1608 98.2295C68.6279 99.0595 63.4242 101.366 60.2767 101.799C59.8784 102.299 59.2658 103.876 59.3662 104.45C63.7061 105.87 72.947 103.985 74.8611 102.498C79.2265 99.1089 84.0766 87.5747 84.0766 87.5747Z" fill="#B55B52"/>
<path d="M85.4614 84.8338C86.7453 88.2424 80.2407 98.2805 80.2407 98.2805L72.6211 94.1423C72.6211 94.1423 74.3974 89.1358 77.0239 85.2233C79.7207 81.2058 84.0522 81.0929 85.4614 84.8338Z" fill="#9FC6FF"/>
<path d="M85.5763 85.2649C84.0818 84.5572 82.4074 85.1495 80.7252 87.9647C79.0649 90.7514 77.6848 95.486 77.5652 96.8281L80.2416 98.2805C80.2416 98.2805 86.2476 89.0115 85.5763 85.2649Z" fill="#77B3FC"/>
<path d="M60.9164 101.762L56.6206 99.9986L55.1672 104.643C55.1672 104.643 57.6123 105.082 60.3496 104.643L60.9164 101.762Z" fill="#B55B52"/>
<path d="M53.498 99.8842L53.5688 102.975L55.1667 104.643L56.6206 99.9986L53.498 99.8842Z" fill="#B55B52"/>
<path d="M86.4785 203.248L86.6735 207.796H90.4846L90.2901 203.248H86.4785Z" fill="#9E4541"/>
<path d="M111.628 203.248H107.817L108.806 207.796H112.617L111.628 203.248Z" fill="#9E4541"/>
<path d="M80.9374 82.2265C80.9374 82.2265 76.4404 93.7315 80.7117 115.157C86.8518 115.157 98.102 115.157 101.089 115.157C101.23 112.029 99.2642 96.7694 102.281 82.0305C102.281 82.0305 98.7884 81.3295 95.4599 81.1689C92.8563 81.0435 89.0863 80.9603 86.7972 81.1694C83.7797 81.4445 80.9374 82.2265 80.9374 82.2265Z" fill="#9FC6FF"/>
<path d="M97.8551 85.6695C97.5161 88.0948 98.281 93.899 100.591 100.605C100.598 95.4434 100.909 89.4592 101.998 83.4964V83.4673C100.656 83.3305 98.1801 83.3955 97.8551 85.6695Z" fill="#77B3FC"/>
<path d="M85.481 81.3181C85.9074 81.2609 86.3495 81.2089 86.7967 81.1673C89.0847 80.9593 92.8546 81.0425 95.4598 81.1673C95.8238 81.1881 96.1879 81.2089 96.5519 81.2401L96.427 81.5521C96.3698 81.6925 94.9814 85.0361 89.1626 85.0361C88.3982 85.0361 86.0843 85.0361 85.3563 83.4761C84.9923 82.6961 85.2054 81.8953 85.481 81.3181Z" fill="white"/>
<path d="M94.328 73.0673C93.7815 75.8545 93.51 79.3088 95.46 81.1689C95.46 81.1689 94.3399 83.9961 89.1607 83.9961C84.4282 83.9961 86.7973 81.1689 86.7973 81.1689C89.9054 80.4268 89.7431 76.583 89.2018 74.4172L94.328 73.0673Z" fill="#B55B52"/>
<path d="M93.963 75.6569L90.2918 74.1333L89.8186 74.2581C89.8862 74.7417 90.0994 75.4333 90.3958 76.1197C90.9158 77.2949 92.8086 78.9225 94.2906 79.2345C93.9375 78.1529 93.8746 76.9054 93.963 75.6569Z" fill="#9E4541"/>
<path d="M99.5306 73.6247C98.8551 74.3881 97.89 74.7687 97.0528 74.8067C95.7938 74.8633 95.4475 73.6689 96.0341 72.6289C96.5624 71.6929 97.8541 70.5354 99.0038 70.9711C100.137 71.4007 100.303 72.7516 99.5306 73.6247Z" fill="#9E4541"/>
<path d="M98.9164 64.8523C100.628 65.9537 100.735 71.3076 98.1661 72.0886C95.5973 72.8691 95.6742 62.7661 98.9164 64.8523Z" fill="#0F264C"/>
<path d="M89.1145 67.6C88.699 71.358 88.2653 73.5368 89.8129 75.7707C92.1409 79.131 97.0263 78.2225 98.5561 74.6637C99.9331 71.4605 100.381 65.8528 96.9972 63.7426C93.6629 61.6642 89.5295 63.8414 89.1145 67.6Z" fill="#B55B52"/>
<path d="M88.4863 69.9109C89.493 70.4142 90.7399 67.9754 90.9999 65.404C92.7045 67.0217 102.44 66.8184 100.967 64.4795C98.6902 60.866 90.4014 60.0595 89.1077 62.4572C86.7391 62.5591 86.2045 68.77 88.4863 69.9109Z" fill="#0F264C"/>
<path d="M86.725 71.4085C87.1046 72.3549 87.8857 73.0376 88.6615 73.3543C89.8284 73.8312 90.5559 72.8224 90.3526 71.6456C90.1695 70.5864 89.3422 69.0622 88.1129 69.0862C86.9018 69.1096 86.2914 70.3264 86.725 71.4085Z" fill="#B55B52"/>
<path d="M80.7118 115.157C80.7118 115.157 80.1871 143.643 80.6015 155.261C81.0326 167.346 85.2535 206.915 85.2535 206.915H91.7077C91.7077 206.915 91.9448 168.052 92.2319 156.184C92.5449 143.245 94.107 115.157 94.107 115.157H80.7118Z" fill="#407BFF"/>
<path d="M92.1335 204.938C92.1637 204.938 92.1335 207.047 92.1335 207.047H84.6944L84.3813 204.678L92.1335 204.938Z" fill="#9FC6FF"/>
<path d="M89.625 122.697C89.7482 136.833 90.6005 145.419 92.3472 152.32C92.5708 145.578 92.9894 136.663 93.3648 129.256L89.625 122.697Z" fill="#2B6AD8"/>
<path d="M87.9407 115.157C87.9407 115.157 92.2645 144.273 94.6383 155.181C97.2377 167.126 107.03 206.915 107.03 206.915H114.009C114.009 206.915 107.551 168.09 106.068 156.264C104.458 143.428 101.09 115.157 101.09 115.157H87.9407Z" fill="#407BFF"/>
<path d="M114.008 205.097C114.038 205.097 114.356 207.047 114.356 207.047H106.686L106.007 204.808L114.008 205.097Z" fill="#9FC6FF"/>
<path d="M111.196 202.792C111.165 202.792 111.137 202.77 111.131 202.738C111.073 202.385 105.248 167.332 103.915 156.707C102.469 145.176 99.422 119.609 99.3918 119.352C99.3877 119.317 99.4126 119.285 99.4485 119.28C99.4807 119.274 99.5166 119.302 99.5208 119.337C99.5515 119.594 102.598 145.16 104.044 156.691C105.376 167.314 111.201 202.363 111.26 202.716C111.265 202.752 111.242 202.785 111.206 202.791C111.203 202.792 111.199 202.792 111.196 202.792Z" fill="#2B6AD8"/>
<path d="M94.575 69.6155C94.5225 69.9182 94.6405 70.1917 94.8386 70.226C95.0367 70.2603 95.2395 70.0424 95.2921 69.7398C95.3446 69.4372 95.2265 69.1636 95.0284 69.1293C94.8303 69.095 94.6275 69.3129 94.575 69.6155Z" fill="#0F264C"/>
<path d="M97.9976 70.2083C97.9451 70.5109 98.0631 70.7845 98.2612 70.8188C98.4594 70.8531 98.6621 70.6352 98.7147 70.3326C98.7672 70.0299 98.6491 69.7564 98.451 69.7221C98.2529 69.6878 98.0501 69.9051 97.9976 70.2083Z" fill="#0F264C"/>
<path d="M96.8832 70.1703C96.8832 70.1703 97.2696 72.0361 97.8816 73.0106C97.2592 73.4178 96.3882 73.0314 96.3882 73.0314L96.8832 70.1703Z" fill="#A02724"/>
<path d="M95.3611 73.7147C95.41 73.723 95.4568 73.6902 95.4656 73.6414C95.4739 73.5925 95.4412 73.5457 95.3923 73.5368C94.0632 73.3065 93.6035 72.2712 93.5988 72.2608C93.5785 72.215 93.5255 72.1937 93.4803 72.214C93.4345 72.2337 93.4132 72.2862 93.4335 72.3325C93.4537 72.3788 93.9363 73.4682 95.3611 73.7147Z" fill="#0F264C"/>
<path d="M93.7347 68.3332C93.7888 68.3425 93.846 68.3275 93.8886 68.2869C94.4773 67.7373 95.1241 67.8886 95.1304 67.8907C95.2203 67.9167 95.3249 67.8558 95.3488 67.7586C95.3727 67.6619 95.3134 67.5641 95.2167 67.5402C95.1824 67.5313 94.3717 67.341 93.6421 68.0233C93.5693 68.0914 93.5657 68.2058 93.6333 68.2781C93.6614 68.3087 93.6973 68.3269 93.7347 68.3332Z" fill="#0F264C"/>
<path d="M99.7448 69.2614C99.7713 69.2645 99.7989 69.2614 99.8254 69.2515C99.919 69.2182 99.9679 69.1147 99.9341 69.0206C99.5971 68.081 98.7891 67.8792 98.7547 67.8709C98.6611 67.8449 98.5608 67.9073 98.5374 68.0046C98.5145 68.1013 98.5738 68.198 98.67 68.2219C98.697 68.2281 99.3252 68.3925 99.594 69.1428C99.6185 69.2099 99.6783 69.2541 99.7448 69.2614Z" fill="#0F264C"/>
<path d="M103.373 84.6009L98.7822 87.6787C98.7822 87.6787 105.376 99.4027 104.823 101.281C104.069 103.838 103.018 109.432 101.589 112.27C101.774 112.882 102.726 114.281 103.256 114.524C106.886 111.754 110.575 103.075 110.437 100.655C110.121 95.1371 103.373 84.6009 103.373 84.6009Z" fill="#B55B52"/>
<path d="M102.282 82.0305C105.886 82.5547 110.015 95.0456 110.015 95.0456L102.444 99.3215C102.444 99.3215 99.1099 93.3805 97.4656 88.9694C95.7423 84.3471 98.4157 81.4679 102.282 82.0305Z" fill="#9FC6FF"/>
<path d="M108.202 212.293C107.911 212.293 107.641 212.243 107.468 212.099C107.331 211.984 107.268 211.823 107.281 211.621C107.291 211.471 107.37 211.4 107.436 211.366C107.853 211.15 109.086 211.905 109.225 211.991C109.256 212.011 109.272 212.047 109.266 212.083C109.26 212.118 109.233 212.146 109.198 212.155C108.934 212.22 108.554 212.293 108.202 212.293ZM107.635 211.504C107.588 211.504 107.548 211.512 107.518 211.527C107.494 211.539 107.466 211.563 107.462 211.632C107.452 211.776 107.492 211.883 107.584 211.96C107.792 212.135 108.289 212.158 108.936 212.028C108.506 211.78 107.927 211.504 107.635 211.504Z" fill="#407BFF"/>
<path d="M109.177 212.158C109.162 212.158 109.147 212.155 109.134 212.148C108.74 211.934 107.977 211.099 108.058 210.674C108.072 210.597 108.129 210.464 108.345 210.438C108.486 210.42 108.614 210.46 108.729 210.553C109.172 210.915 109.263 212.014 109.266 212.061C109.269 212.094 109.253 212.126 109.225 212.144C109.211 212.154 109.194 212.158 109.177 212.158ZM108.408 210.614C108.395 210.614 108.381 210.616 108.367 210.617C108.25 210.631 108.24 210.685 108.236 210.708C108.188 210.959 108.674 211.59 109.066 211.887C109.021 211.566 108.9 210.925 108.616 210.693C108.551 210.64 108.483 210.614 108.408 210.614Z" fill="#407BFF"/>
<path d="M85.2977 212.293C84.9197 212.293 84.5697 212.234 84.3721 212.059C84.2463 211.948 84.1896 211.8 84.2031 211.62C84.2114 211.513 84.2629 211.429 84.3518 211.38C84.8141 211.12 86.346 211.898 86.5192 211.987C86.553 212.005 86.5722 212.042 86.5665 212.08C86.5613 212.118 86.5327 212.149 86.4948 212.156C86.1724 212.221 85.7174 212.293 85.2977 212.293ZM84.6082 211.504C84.538 211.504 84.4808 211.515 84.4397 211.538C84.4038 211.558 84.3867 211.587 84.383 211.634C84.3737 211.756 84.4096 211.851 84.4922 211.925C84.7268 212.133 85.3539 212.168 86.1947 212.028C85.6674 211.777 84.9686 211.504 84.6082 211.504Z" fill="#407BFF"/>
<path d="M86.4775 212.158C86.465 212.158 86.4525 212.156 86.4406 212.151C85.9809 211.944 85.0698 211.121 85.1395 210.689C85.1556 210.589 85.2274 210.463 85.4754 210.438C85.6564 210.415 85.828 210.471 85.9762 210.592C86.4608 210.99 86.5633 212.016 86.5674 212.06C86.57 212.092 86.556 212.123 86.53 212.142C86.5144 212.153 86.4962 212.158 86.4775 212.158ZM85.5482 210.614C85.5306 210.614 85.5124 210.616 85.4942 210.617C85.3314 210.634 85.3215 210.697 85.3179 210.718C85.2763 210.976 85.8951 211.624 86.3646 211.906C86.3158 211.606 86.18 210.992 85.8618 210.731C85.7656 210.653 85.6626 210.614 85.5482 210.614Z" fill="#407BFF"/>
<path d="M101.589 112.27L97.9648 111.989L99.8717 115.999C99.8717 115.999 103.048 116.139 103.579 113.711L101.589 112.27Z" fill="#B55B52"/>
<path d="M95.019 113.815L96.9238 117.363L99.8717 115.999L97.9648 111.989L95.019 113.815Z" fill="#B55B52"/>
<path d="M72.1019 216.342H67.0163L55.4775 91.6775L60.5111 91.2095L72.1019 216.342Z" fill="#55A4F2"/>
<path d="M82.2523 216.342H77.1771L65.5447 90.7473L70.5783 90.2787L82.2523 216.342Z" fill="#55A4F2"/>
<path d="M77.1772 216.342H72.102L60.5112 91.2096L65.5448 90.7473L77.1772 216.342Z" fill="#22D3EE"/>
<path d="M64.484 82.0294L59.9532 82.4491L55.4771 91.6775L70.5789 90.2793L64.484 82.0294Z" fill="#DCE9FF"/>
<path d="M61.8714 78.4945L59.9531 82.4491L64.4839 82.0295L61.8714 78.4945Z" fill="#22D3EE"/>
<path d="M198.306 73.5025L192.404 72.8463C192.428 76.8992 192.041 80.9442 191.249 84.9191L189.213 95.1267L195.115 95.7824L197.151 85.5748C197.943 81.6005 198.33 77.5554 198.306 73.5025Z" fill="#22D3EE"/>
<path d="M207.748 85.671H116.619L105.326 216.344H196.455L207.748 85.671Z" fill="#C5E1FF"/>
<path d="M197.014 209.871H105.885L105.326 216.344H196.455L197.014 209.871Z" fill="#22D3EE"/>
<path d="M201.809 85.671H110.68L99.387 216.344H190.515L201.809 85.671Z" fill="white"/>
<path d="M191.075 209.871H99.9465L99.387 216.344H190.515L191.075 209.871Z" fill="#9FC6FF"/>
<path d="M195.574 92.2293H115.801C115.741 92.2293 115.692 92.1799 115.692 92.119C115.692 92.0582 115.741 92.0093 115.801 92.0093H195.574C195.635 92.0093 195.684 92.0587 195.684 92.119C195.684 92.1793 195.635 92.2293 195.574 92.2293Z" fill="#9FC6FF"/>
<path d="M195.12 97.4755H115.348C115.287 97.4755 115.238 97.4261 115.238 97.3658C115.238 97.3055 115.288 97.2561 115.348 97.2561H195.121C195.182 97.2561 195.231 97.3055 195.231 97.3658C195.231 97.4261 195.182 97.4755 195.12 97.4755Z" fill="#9FC6FF"/>
<path d="M194.667 102.722H114.894C114.834 102.722 114.784 102.672 114.784 102.612C114.784 102.552 114.834 102.502 114.894 102.502H194.667C194.727 102.502 194.777 102.551 194.777 102.612C194.777 102.673 194.728 102.722 194.667 102.722Z" fill="#9FC6FF"/>
<path d="M194.213 107.969H114.441C114.38 107.969 114.331 107.919 114.331 107.859C114.331 107.799 114.381 107.749 114.441 107.749H194.213C194.274 107.749 194.323 107.799 194.323 107.859C194.323 107.919 194.274 107.969 194.213 107.969Z" fill="#9FC6FF"/>
<path d="M193.76 113.215H113.988C113.927 113.215 113.878 113.166 113.878 113.105C113.878 113.045 113.927 112.995 113.988 112.995H193.76C193.821 112.995 193.87 113.044 193.87 113.105C193.87 113.166 193.821 113.215 193.76 113.215Z" fill="#9FC6FF"/>
<path d="M193.306 118.462H113.534C113.473 118.462 113.424 118.412 113.424 118.352C113.424 118.292 113.473 118.242 113.534 118.242H193.306C193.367 118.242 193.417 118.292 193.417 118.352C193.417 118.412 193.367 118.462 193.306 118.462Z" fill="#9FC6FF"/>
<path d="M192.853 123.708H113.081C113.02 123.708 112.971 123.659 112.971 123.598C112.971 123.537 113.02 123.489 113.081 123.489H192.853C192.914 123.489 192.963 123.538 192.963 123.598C192.963 123.659 192.914 123.708 192.853 123.708Z" fill="#9FC6FF"/>
<path d="M192.4 128.954H112.627C112.566 128.954 112.518 128.905 112.518 128.844C112.518 128.783 112.567 128.734 112.627 128.734H192.4C192.461 128.734 192.51 128.784 192.51 128.844C192.51 128.904 192.461 128.954 192.4 128.954Z" fill="#9FC6FF"/>
<path d="M191.947 134.201H112.174C112.113 134.201 112.064 134.152 112.064 134.091C112.064 134.03 112.114 133.981 112.174 133.981H191.947C192.007 133.981 192.057 134.03 192.057 134.091C192.057 134.152 192.007 134.201 191.947 134.201Z" fill="#9FC6FF"/>
<path d="M191.493 139.448H111.72C111.659 139.448 111.611 139.398 111.611 139.338C111.611 139.277 111.66 139.227 111.72 139.227H191.493C191.554 139.227 191.603 139.277 191.603 139.338C191.603 139.398 191.554 139.448 191.493 139.448Z" fill="#9FC6FF"/>
<path d="M191.04 144.694H111.267C111.206 144.694 111.157 144.645 111.157 144.584C111.157 144.523 111.207 144.474 111.267 144.474H191.04C191.1 144.474 191.15 144.523 191.15 144.584C191.15 144.645 191.1 144.694 191.04 144.694Z" fill="#9FC6FF"/>
<path d="M190.586 149.941H110.814C110.753 149.941 110.704 149.892 110.704 149.831C110.704 149.77 110.753 149.72 110.814 149.72H190.586C190.647 149.72 190.696 149.77 190.696 149.831C190.696 149.892 190.647 149.941 190.586 149.941Z" fill="#9FC6FF"/>
<path d="M190.133 155.187H110.36C110.299 155.187 110.25 155.137 110.25 155.076C110.25 155.016 110.299 154.966 110.36 154.966H190.133C190.194 154.966 190.243 155.016 190.243 155.076C190.243 155.138 190.194 155.187 190.133 155.187Z" fill="#9FC6FF"/>
<path d="M189.679 160.433H109.907C109.846 160.433 109.796 160.384 109.796 160.323C109.796 160.262 109.846 160.213 109.907 160.213H189.679C189.74 160.213 189.789 160.262 189.789 160.323C189.789 160.385 189.74 160.433 189.679 160.433Z" fill="#9FC6FF"/>
<path d="M189.225 165.68H109.453C109.392 165.68 109.344 165.63 109.344 165.57C109.344 165.509 109.393 165.459 109.453 165.459H189.225C189.286 165.459 189.336 165.509 189.336 165.57C189.336 165.631 189.287 165.68 189.225 165.68Z" fill="#9FC6FF"/>
<path d="M188.772 170.927H109C108.939 170.927 108.89 170.877 108.89 170.816C108.89 170.756 108.94 170.706 109 170.706H188.772C188.833 170.706 188.882 170.756 188.882 170.816C188.882 170.877 188.833 170.927 188.772 170.927Z" fill="#9FC6FF"/>
<path d="M188.318 176.173H108.546C108.485 176.173 108.436 176.123 108.436 176.063C108.436 176.002 108.485 175.952 108.546 175.952H188.318C188.379 175.952 188.429 176.002 188.429 176.063C188.429 176.123 188.38 176.173 188.318 176.173Z" fill="#9FC6FF"/>
<path d="M187.865 181.42H108.093C108.032 181.42 107.983 181.37 107.983 181.309C107.983 181.249 108.033 181.199 108.093 181.199H187.865C187.926 181.199 187.975 181.249 187.975 181.309C187.975 181.37 187.926 181.42 187.865 181.42Z" fill="#9FC6FF"/>
<path d="M187.412 186.666H107.64C107.579 186.666 107.53 186.617 107.53 186.556C107.53 186.495 107.579 186.445 107.64 186.445H187.412C187.473 186.445 187.522 186.495 187.522 186.556C187.522 186.617 187.473 186.666 187.412 186.666Z" fill="#9FC6FF"/>
<path d="M186.959 191.913H107.186C107.125 191.913 107.076 191.863 107.076 191.803C107.076 191.742 107.126 191.692 107.186 191.692H186.959C187.02 191.692 187.069 191.742 187.069 191.803C187.069 191.863 187.02 191.913 186.959 191.913Z" fill="#9FC6FF"/>
<path d="M186.505 197.159H106.733C106.672 197.159 106.622 197.109 106.622 197.048C106.622 196.987 106.672 196.938 106.733 196.938H186.505C186.566 196.938 186.615 196.987 186.615 197.048C186.615 197.11 186.566 197.159 186.505 197.159Z" fill="#9FC6FF"/>
<path d="M186.052 202.405H106.279C106.218 202.405 106.169 202.356 106.169 202.295C106.169 202.234 106.219 202.185 106.279 202.185H186.052C186.113 202.185 186.162 202.234 186.162 202.295C186.162 202.356 186.113 202.405 186.052 202.405Z" fill="#9FC6FF"/>
<path d="M177.527 207.14C177.526 207.14 177.524 207.14 177.523 207.14C177.492 207.138 177.47 207.111 177.472 207.081L187.687 88.8888C187.69 88.8586 187.716 88.8404 187.747 88.8389C187.777 88.8415 187.8 88.8685 187.797 88.8987L177.583 207.09C177.58 207.119 177.556 207.14 177.527 207.14Z" fill="#0053CC"/>
<path d="M185.755 71.9799H179.817C180.289 76.0058 180.351 80.0685 180.003 84.1069L179.107 94.4767H185.046L185.941 84.1069C186.289 80.0685 186.228 76.0053 185.755 71.9799Z" fill="#0053CC"/>
<path d="M133.83 96.5505C133.816 96.5505 133.802 96.5484 133.788 96.5432C133.738 96.526 133.703 96.4798 133.7 96.4267C133.687 96.1516 133.554 95.9015 133.317 95.7039C132.943 95.3924 132.351 95.238 131.814 95.3108C131.399 95.3664 130.987 95.5068 130.59 95.6431C130.152 95.7928 129.699 95.9473 129.225 95.9972C128.391 96.084 127.525 95.8272 126.872 95.3046C126.403 96.0476 125.45 96.4709 124.586 96.3045C123.992 96.1886 123.442 95.7928 123.116 95.2442C122.909 94.8979 122.45 94.7788 122.07 94.9718C121.402 95.3124 120.708 95.6218 120.007 95.8911C119.969 95.9046 119.929 95.9015 119.895 95.8823C119.861 95.8625 119.838 95.8282 119.831 95.7897C119.806 95.6238 119.802 95.4517 119.82 95.2801C119.836 95.135 119.781 94.9967 119.673 94.9099C119.576 94.8319 119.455 94.8111 119.337 94.8516C119.12 94.925 118.856 95.0316 118.546 95.2645L118.43 95.3524C117.897 95.7564 117.461 96.0591 117.161 96.017C117.07 96.0034 116.994 95.9582 116.942 95.8864C116.839 95.7455 116.801 95.5578 116.825 95.3113C116.91 94.4434 117.619 93.6629 118.475 93.4955C118.545 93.4804 118.614 93.5272 118.628 93.5979C118.642 93.6681 118.595 93.7368 118.525 93.7503C117.778 93.8964 117.159 94.5786 117.085 95.3368C117.067 95.5167 117.089 95.6467 117.152 95.7336C117.162 95.7466 117.173 95.7559 117.199 95.7601C117.417 95.7928 117.955 95.3878 118.273 95.1454L118.39 95.057C118.73 94.8017 119.018 94.6852 119.254 94.6052C119.457 94.537 119.67 94.5729 119.837 94.7071C120.014 94.8496 120.105 95.0742 120.08 95.3082C120.07 95.4018 120.067 95.4954 120.072 95.5874C120.711 95.3363 121.343 95.0518 121.953 94.7409C122.454 94.485 123.064 94.6483 123.34 95.1122C123.629 95.5978 124.114 95.9483 124.636 96.0497C125.445 96.2083 126.341 95.7757 126.722 95.0451C126.741 95.0097 126.774 94.9848 126.814 94.9775C126.851 94.9712 126.893 94.9816 126.924 95.0082C127.535 95.5521 128.384 95.8256 129.198 95.7388C129.643 95.692 130.082 95.5422 130.506 95.3971C130.916 95.2567 131.339 95.1127 131.78 95.0534C132.387 94.9718 133.057 95.1486 133.483 95.5042C133.696 95.681 133.841 95.8937 133.911 96.1293C134.739 95.1902 135.726 94.2604 136.965 94.3108C137.093 94.3155 137.278 94.3379 137.393 94.4772C137.51 94.6182 137.497 94.7986 137.477 94.9567L137.334 96.0534C137.967 95.6982 138.533 95.2136 138.979 94.6405C139.235 94.3124 139.483 94.0706 139.715 93.9219C140.157 93.64 140.467 93.7492 140.648 93.8912C140.85 94.0482 140.926 94.2822 140.998 94.5084C141.02 94.5755 141.042 94.6431 141.067 94.7071C141.128 94.8615 141.254 95.0035 141.373 95.0513C141.432 95.0747 141.486 95.0758 141.538 95.0518C141.604 95.0206 141.68 95.0503 141.711 95.1153C141.741 95.1808 141.712 95.2578 141.647 95.2879C141.531 95.342 141.402 95.343 141.276 95.2921C141.09 95.2177 140.913 95.0253 140.825 94.8022C140.798 94.7331 140.774 94.6603 140.751 94.588C140.688 94.3909 140.627 94.2042 140.488 94.0961C140.317 93.963 140.11 93.977 139.854 94.1408C139.65 94.2713 139.418 94.4996 139.184 94.8002C138.663 95.4689 137.987 96.0232 137.23 96.4023C137.186 96.4236 137.135 96.4194 137.096 96.3919C137.057 96.3638 137.037 96.3165 137.042 96.2692L137.218 94.9229C137.232 94.8189 137.243 94.7029 137.193 94.6431C137.156 94.5989 137.078 94.575 136.955 94.5708C136.929 94.5698 136.904 94.5693 136.879 94.5693C135.694 94.5693 134.736 95.5661 133.928 96.5052C133.904 96.5344 133.868 96.5505 133.83 96.5505Z" fill="#22D3EE"/>
<path d="M163.469 96.5323C162.95 96.5323 162.509 96.1126 162.271 95.7138C162.158 95.525 162.067 95.3238 161.978 95.1293C161.87 94.8885 161.766 94.6587 161.626 94.4538C161.048 94.9556 160.362 95.3409 159.634 95.5708C159.592 95.5848 159.542 95.5744 159.508 95.5432C159.473 95.5126 159.458 95.4658 159.467 95.4205C159.508 95.2208 159.534 95.018 159.544 94.8178C159.562 94.4741 159.408 94.1491 159.132 93.9489C158.857 93.7498 158.518 93.705 158.199 93.8278L156.702 94.405C156.464 94.4965 155.739 94.7747 155.348 94.3311C155.3 94.2776 155.261 94.2157 155.223 94.1533C155.169 94.0654 155.122 93.989 155.055 93.9567C154.935 93.9006 154.772 93.9858 154.626 94.0763C153.673 94.6644 152.697 95.2344 151.725 95.77C151.34 95.9826 150.989 96.1584 150.59 96.1625C150.223 96.1662 149.86 95.991 149.596 95.6821C149.405 95.458 149.292 95.1943 149.268 94.927C148.627 95.4356 147.976 95.8573 147.218 95.8573C147.213 95.8573 147.209 95.8573 147.205 95.8573C146.957 95.8563 146.763 95.8027 146.612 95.694C146.273 95.4512 146.229 94.9697 146.36 94.6202C146.491 94.2698 146.761 94.0035 146.999 93.7695C147.049 93.7196 147.132 93.7196 147.183 93.7711C147.234 93.8225 147.233 93.9047 147.181 93.9552C146.962 94.171 146.714 94.4148 146.603 94.7118C146.509 94.9629 146.534 95.3186 146.764 95.4834C146.87 95.5593 147.014 95.5968 147.207 95.5978C147.211 95.5978 147.214 95.5978 147.218 95.5978C147.979 95.5978 148.65 95.1007 149.327 94.5474C149.369 94.5131 149.428 94.5084 149.475 94.5355C149.522 94.5625 149.547 94.6161 149.537 94.6696C149.488 94.9562 149.582 95.264 149.795 95.5141C150.006 95.7616 150.291 95.9031 150.579 95.9031C150.583 95.9031 150.586 95.9031 150.588 95.9031C150.927 95.9 151.248 95.7382 151.601 95.5432C152.569 95.0092 153.541 94.4414 154.49 93.8558C154.625 93.7721 154.906 93.5969 155.168 93.7227C155.305 93.7877 155.38 93.9099 155.446 94.0175C155.477 94.0669 155.506 94.1169 155.544 94.1595C155.729 94.3675 156.078 94.3691 156.611 94.1626L158.108 93.5854C158.504 93.4326 158.944 93.4913 159.287 93.7388C159.635 93.9916 159.83 94.4003 159.807 94.8319C159.8 94.9718 159.785 95.1127 159.764 95.2536C160.425 95.0139 161.042 94.6405 161.56 94.1658C161.587 94.1418 161.627 94.1314 161.658 94.1325C161.694 94.1351 161.728 94.1533 161.75 94.1814C161.953 94.4382 162.088 94.7351 162.218 95.0227C162.302 95.2109 162.391 95.4054 162.496 95.5817C162.74 95.9899 163.186 96.3575 163.628 96.2556C163.972 96.1771 164.196 95.861 164.434 95.5266C164.69 95.1652 164.955 94.7918 165.398 94.6941C165.839 94.5968 166.225 94.8173 166.6 95.03C166.733 95.1054 166.87 95.1829 167.004 95.2422C167.797 95.5937 168.658 95.3846 169.569 95.1631C170.278 94.991 171.01 94.8116 171.733 94.9094C171.804 94.9187 171.854 94.9842 171.845 95.0555C171.835 95.1262 171.774 95.1782 171.699 95.1668C171.025 95.0773 170.316 95.2494 169.63 95.4158C168.717 95.6384 167.773 95.8672 166.898 95.4798C166.753 95.4153 166.609 95.3342 166.472 95.2562C166.123 95.0591 165.793 94.874 165.454 94.9478C165.108 95.0237 164.884 95.341 164.645 95.6764C164.39 96.0362 164.126 96.4085 163.685 96.5089C163.611 96.5245 163.539 96.5323 163.469 96.5323Z" fill="#22D3EE"/>
<path d="M120.043 101.676C120.018 101.676 119.993 101.669 119.971 101.654C119.932 101.628 119.909 101.582 119.914 101.535C119.938 101.263 120 100.996 120.094 100.741C119.306 101.315 118.279 101.544 117.318 101.328C117.153 101.291 116.965 101.236 116.815 101.105C116.464 100.798 116.52 100.221 116.792 99.8754C117.049 99.5498 117.442 99.3793 117.822 99.2332C117.891 99.2077 117.965 99.241 117.99 99.3081C118.016 99.3751 117.983 99.45 117.916 99.476C117.554 99.6149 117.213 99.7625 116.996 100.037C116.802 100.284 116.75 100.703 116.986 100.91C117.092 101.002 117.242 101.045 117.374 101.074C118.463 101.317 119.693 100.921 120.434 100.085C120.48 100.034 120.557 100.027 120.611 100.068C120.665 100.11 120.677 100.186 120.639 100.244C120.423 100.566 120.276 100.932 120.207 101.314L123.601 99.5207C123.657 99.4906 123.728 99.5067 123.766 99.5582C123.804 99.6096 123.799 99.6809 123.755 99.7267C123.699 99.7833 123.708 99.8587 123.724 99.9112C123.763 100.03 123.872 100.132 123.984 100.151C124.222 100.193 124.473 100.043 124.685 99.8899L124.724 99.8624C124.955 99.6955 125.216 99.5067 125.53 99.4932C125.723 99.4838 125.906 99.5462 126.081 99.605C127.785 100.182 129.61 100.385 131.377 100.202C131.654 100.173 131.933 100.136 132.212 100.097C133.286 99.9518 134.396 99.801 135.434 100.161C135.502 100.184 135.537 100.259 135.514 100.326C135.491 100.394 135.416 100.43 135.349 100.406C134.369 100.067 133.29 100.212 132.247 100.355C131.965 100.393 131.684 100.431 131.404 100.46C129.597 100.648 127.736 100.44 126.018 99.8577C125.838 99.7969 125.688 99.7428 125.541 99.7527C125.305 99.7631 125.087 99.9206 124.876 100.073L124.837 100.101C124.58 100.286 124.273 100.466 123.939 100.407C123.735 100.371 123.545 100.2 123.477 99.9908C123.467 99.9575 123.459 99.9243 123.455 99.8915L120.105 101.661C120.086 101.671 120.065 101.676 120.043 101.676Z" fill="#22D3EE"/>
<path d="M141.039 101.352C141.01 101.352 140.983 101.343 140.961 101.326C140.929 101.302 140.909 101.264 140.909 101.224L140.9 100.448C140.899 100.377 140.956 100.318 141.028 100.317H141.03C141.101 100.317 141.159 100.375 141.16 100.446L141.166 101.05C142.225 100.723 143.184 100.13 143.949 99.3262C143.972 99.3013 144.005 99.2867 144.04 99.2857C144.077 99.2914 144.108 99.2976 144.133 99.3216C144.288 99.4698 144.329 99.6835 144.364 99.8722C144.399 100.059 144.43 100.221 144.55 100.287C144.635 100.334 144.754 100.323 144.868 100.309C145.609 100.213 146.331 100.008 147.01 99.7006C147.614 99.4266 148.445 99.0506 149.019 99.5275C149.056 99.5582 149.091 99.5914 149.125 99.6252C149.184 99.683 149.24 99.737 149.302 99.7656C149.371 99.7968 149.458 99.8 149.55 99.8031C149.605 99.8052 149.66 99.8072 149.714 99.814C149.909 99.84 150.077 99.9242 150.241 100.006C150.329 100.05 150.416 100.094 150.508 100.128C150.724 100.208 150.996 100.187 151.08 100.017C151.112 99.9523 151.191 99.9263 151.254 99.9575C151.319 99.9892 151.345 100.067 151.314 100.131C151.159 100.445 150.736 100.488 150.418 100.372C150.318 100.335 150.221 100.287 150.124 100.238C149.974 100.162 149.831 100.091 149.68 100.071C149.635 100.065 149.587 100.064 149.54 100.062C149.432 100.058 149.311 100.054 149.195 100.002C149.091 99.9549 149.012 99.8779 148.944 99.8103C148.914 99.7817 148.885 99.7532 148.854 99.7272C148.403 99.3548 147.69 99.6778 147.117 99.9367C146.414 100.255 145.668 100.467 144.901 100.566C144.751 100.585 144.577 100.599 144.424 100.514C144.196 100.389 144.15 100.14 144.108 99.9201C144.087 99.8093 144.066 99.7022 144.027 99.6169C143.208 100.437 142.19 101.034 141.073 101.347C141.062 101.351 141.05 101.352 141.039 101.352Z" fill="#22D3EE"/>
<path d="M158.012 100.98C157.968 100.98 157.924 100.976 157.879 100.967C157.719 100.936 157.568 100.818 157.496 100.668C157.436 100.544 157.435 100.413 157.493 100.3C157.526 100.236 157.604 100.211 157.668 100.245C157.732 100.277 157.757 100.356 157.723 100.42C157.698 100.469 157.712 100.52 157.73 100.555C157.766 100.632 157.849 100.696 157.93 100.713C158.099 100.746 158.288 100.664 158.464 100.57C159.11 100.224 159.684 99.7688 160.168 99.2186C160.207 99.1744 160.27 99.1624 160.323 99.1874C160.567 99.307 160.608 99.566 160.644 99.7948C160.663 99.918 160.683 100.045 160.733 100.14C160.787 100.242 160.868 100.309 160.981 100.344C161.282 100.434 161.723 100.285 162.037 100.115L163.907 99.1006C164.043 99.0272 164.249 98.918 164.463 98.9638C164.636 99.0023 164.755 99.126 164.86 99.2358C164.887 99.2638 164.913 99.2919 164.941 99.3179C165.553 99.9003 166.55 99.5712 167.43 99.2794L167.594 99.2248C169.217 98.6939 171.004 98.6861 172.631 99.204C172.699 99.2259 172.737 99.2992 172.715 99.3673C172.693 99.436 172.62 99.4724 172.552 99.4521C170.978 98.9513 169.246 98.9581 167.676 99.4729L167.512 99.527C166.61 99.826 165.487 100.198 164.762 99.5072C164.732 99.4781 164.702 99.4474 164.673 99.4162C164.586 99.3257 164.504 99.2399 164.407 99.2186C164.298 99.1952 164.166 99.2571 164.031 99.3299L162.16 100.344C161.985 100.439 161.377 100.735 160.906 100.593C160.724 100.538 160.589 100.427 160.502 100.262C160.432 100.13 160.409 99.9804 160.386 99.8364C160.36 99.6731 160.338 99.5556 160.282 99.4822C159.793 100.015 159.224 100.458 158.586 100.8C158.407 100.895 158.215 100.98 158.012 100.98Z" fill="#22D3EE"/>
<path d="M130.349 107.46C130.33 107.46 130.311 107.455 130.293 107.447C130.241 107.423 130.212 107.367 130.22 107.31C130.336 106.558 130.339 105.798 130.232 105.045C129.9 105.368 129.525 105.695 129.062 105.862C128.528 106.057 127.794 105.984 127.43 105.472C127.4 105.43 127.371 105.385 127.341 105.338C127.196 105.117 127.085 104.962 126.958 105.003C126.903 105.021 126.851 105.081 126.804 105.134L125.283 106.883C125.243 106.93 125.176 106.941 125.123 106.912C125.069 106.882 125.043 106.82 125.06 106.761L125.348 105.79C124.287 105.813 123.218 105.751 122.167 105.606C122.119 105.6 122.078 105.566 122.062 105.519L121.909 105.073C121.397 105.501 120.819 105.953 120.125 106.136C119.438 106.316 118.558 106.165 118.116 105.545C117.699 105.915 117.078 106.049 116.548 105.873C116.489 105.853 116.452 105.794 116.461 105.732C116.524 105.252 116.97 104.854 117.455 104.847C117.536 104.838 117.586 104.903 117.587 104.975C117.588 105.047 117.531 105.106 117.459 105.107C117.141 105.112 116.837 105.355 116.742 105.658C117.205 105.766 117.725 105.607 118.043 105.253C118.071 105.221 118.113 105.207 118.155 105.21C118.197 105.215 118.234 105.24 118.254 105.277C118.59 105.892 119.435 106.05 120.06 105.885C120.764 105.699 121.36 105.197 121.887 104.752C121.92 104.725 121.965 104.716 122.005 104.726C122.047 104.738 122.08 104.769 122.094 104.81L122.283 105.36C123.353 105.503 124.44 105.56 125.521 105.527C125.561 105.524 125.602 105.544 125.628 105.577C125.653 105.61 125.661 105.654 125.65 105.694L125.481 106.262L126.609 104.964C126.671 104.893 126.755 104.796 126.879 104.756C127.203 104.651 127.409 104.966 127.56 105.197C127.588 105.24 127.615 105.282 127.643 105.321C127.932 105.728 128.532 105.778 128.974 105.618C129.469 105.439 129.874 105.037 130.23 104.683C130.265 104.649 130.315 104.638 130.361 104.652C130.408 104.666 130.441 104.706 130.45 104.753C130.577 105.477 130.604 106.21 130.53 106.939L131.666 105.692C131.914 105.421 132.221 105.084 132.638 104.961C133.117 104.821 133.594 104.993 134.055 105.159C134.511 105.323 134.943 105.477 135.345 105.332C135.414 105.307 135.486 105.342 135.511 105.41C135.536 105.477 135.501 105.552 135.433 105.576C134.942 105.754 134.446 105.576 133.968 105.403C133.526 105.244 133.109 105.094 132.712 105.21C132.365 105.311 132.096 105.606 131.859 105.866L130.447 107.416C130.42 107.445 130.385 107.46 130.349 107.46Z" fill="#22D3EE"/>
<path d="M145.144 106.22C145.097 106.22 145.051 106.215 145.004 106.204C144.645 106.118 144.531 105.764 144.431 105.451C144.364 105.241 144.301 105.041 144.178 104.914C143.347 105.583 142.276 105.959 141.202 105.959C141.13 105.959 141.073 105.901 141.073 105.829C141.073 105.757 141.131 105.699 141.203 105.699H141.203C141.207 105.699 141.212 105.699 141.216 105.699C142.254 105.699 143.303 105.316 144.094 104.645C144.139 104.608 144.203 104.605 144.251 104.636C144.498 104.803 144.594 105.105 144.679 105.371C144.783 105.7 144.862 105.903 145.064 105.951C145.178 105.979 145.31 105.938 145.425 105.899C145.907 105.735 146.358 105.497 146.767 105.192C146.896 105.096 147.015 105.007 147.16 104.97C147.422 104.904 147.663 105.019 147.877 105.12C147.919 105.14 147.96 105.16 148.001 105.177C148.746 105.502 149.558 105.328 150.418 105.143C151.191 104.977 151.991 104.805 152.757 105.02C152.826 105.039 152.866 105.111 152.847 105.18C152.827 105.249 152.755 105.29 152.686 105.27C151.983 105.073 151.215 105.238 150.472 105.397C149.609 105.582 148.716 105.772 147.898 105.415C147.854 105.396 147.81 105.375 147.766 105.355C147.574 105.264 147.395 105.18 147.224 105.221C147.128 105.246 147.04 105.312 146.947 105.382C146.492 105.721 146.016 105.971 145.509 106.144C145.392 106.185 145.269 106.22 145.144 106.22Z" fill="#22D3EE"/>
<path d="M115.674 117.295C115.467 117.295 115.271 117.256 115.087 117.18C114.885 117.096 114.74 116.977 114.657 116.827C114.371 116.312 114.888 115.773 115.418 115.468C115.479 115.432 115.559 115.453 115.595 115.515C115.631 115.578 115.609 115.657 115.547 115.693C115.203 115.891 114.676 116.326 114.884 116.7C114.951 116.822 115.086 116.897 115.187 116.939C115.738 117.17 116.441 116.98 117.276 116.377C117.857 115.956 118.402 115.48 118.898 114.961C118.923 114.934 118.961 114.92 118.997 114.92C119.034 114.922 119.069 114.939 119.092 114.967C119.262 115.174 119.246 115.446 119.231 115.686C119.218 115.902 119.206 116.105 119.322 116.227C119.424 116.334 119.613 116.362 119.885 116.309C120.672 116.158 121.389 115.735 122.083 115.327C122.375 115.155 122.677 114.978 122.983 114.821C123.071 114.774 123.169 114.729 123.28 114.729C123.282 114.729 123.282 114.729 123.283 114.729C123.614 114.731 123.71 115.048 123.787 115.303C123.84 115.476 123.894 115.656 124.004 115.745C124.151 115.864 124.343 115.8 124.64 115.683C124.817 115.613 125 115.54 125.188 115.528C125.487 115.507 125.751 115.657 126.001 115.798C126.058 115.83 126.114 115.861 126.17 115.891C126.413 116.018 126.76 116.099 126.94 115.913C126.991 115.861 127.073 115.86 127.124 115.91C127.176 115.959 127.177 116.042 127.127 116.094C126.848 116.383 126.387 116.297 126.05 116.122C125.991 116.091 125.932 116.058 125.874 116.024C125.646 115.896 125.431 115.769 125.204 115.788C125.057 115.797 124.895 115.862 124.737 115.924C124.446 116.04 124.118 116.17 123.841 115.947C123.669 115.808 123.6 115.58 123.539 115.379C123.458 115.108 123.409 114.99 123.283 114.99H123.282C123.227 114.99 123.166 115.019 123.103 115.053C122.803 115.207 122.505 115.382 122.216 115.552C121.503 115.972 120.766 116.406 119.935 116.566C119.57 116.637 119.301 116.583 119.134 116.407C118.94 116.203 118.957 115.92 118.972 115.671C118.981 115.526 118.99 115.386 118.96 115.271C118.488 115.751 117.973 116.193 117.428 116.588C116.777 117.059 116.19 117.295 115.674 117.295Z" fill="#22D3EE"/>
<path d="M132.89 117.324C132.694 117.324 132.503 117.289 132.319 117.2C131.958 117.024 131.801 116.598 131.831 116.267C131.859 115.981 132.023 115.77 132.272 115.704C132.34 115.685 132.412 115.727 132.431 115.795C132.45 115.864 132.409 115.936 132.339 115.955C132.146 116.007 132.101 116.188 132.09 116.291C132.068 116.53 132.189 116.848 132.432 116.965C132.866 117.176 133.397 117.009 133.905 116.819L136.646 115.794C136.738 115.76 136.875 115.709 137.015 115.751C137.19 115.804 137.266 115.962 137.328 116.089C137.367 116.17 137.404 116.246 137.455 116.288C137.558 116.371 137.742 116.336 138 116.182L140.213 114.863C140.323 114.797 140.49 114.696 140.676 114.724C141.017 114.773 141.095 115.127 141.158 115.412C141.176 115.496 141.195 115.58 141.219 115.655C141.376 116.134 141.991 116.318 142.473 116.217C142.95 116.117 143.369 115.809 143.774 115.512L143.893 115.425C144.136 115.249 144.429 115.066 144.748 115.067C144.978 115.071 145.18 115.169 145.375 115.263L145.415 115.282C146.384 115.747 147.457 116.01 148.533 116.046C148.462 115.896 148.432 115.722 148.448 115.537C148.479 115.19 148.667 114.85 148.941 114.65C149.455 114.273 150.134 114.302 150.616 114.393C151.187 114.501 151.746 114.727 152.232 115.045C152.288 115.081 152.344 115.12 152.399 115.158C152.578 115.28 152.746 115.396 152.935 115.464C153.486 115.667 154.095 115.442 154.683 115.223C154.836 115.166 154.988 115.11 155.137 115.061C156.615 114.578 158.222 114.793 159.639 114.983L165.21 115.728C165.281 115.737 165.33 115.803 165.321 115.874C165.312 115.945 165.251 115.996 165.175 115.985L159.605 115.24C158.215 115.054 156.639 114.843 155.219 115.308C155.072 115.356 154.924 115.411 154.774 115.467C154.142 115.702 153.487 115.945 152.846 115.709C152.626 115.628 152.436 115.498 152.253 115.372C152.198 115.335 152.145 115.298 152.09 115.263C151.631 114.963 151.105 114.75 150.566 114.648C150.138 114.567 149.534 114.538 149.094 114.86C148.879 115.017 148.73 115.285 148.706 115.56C148.688 115.77 148.748 115.958 148.875 116.091C148.911 116.128 148.921 116.184 148.9 116.231C148.88 116.279 148.833 116.31 148.781 116.31C147.584 116.308 146.381 116.034 145.302 115.516L145.261 115.496C145.084 115.41 144.916 115.33 144.742 115.326C144.739 115.326 144.736 115.326 144.733 115.326C144.49 115.326 144.261 115.478 144.047 115.634L143.927 115.721C143.5 116.034 143.058 116.358 142.526 116.471C141.934 116.596 141.173 116.351 140.972 115.735C140.944 115.653 140.924 115.56 140.904 115.467C140.84 115.179 140.79 115.002 140.638 114.98C140.555 114.97 140.45 115.022 140.346 115.085L138.133 116.404C137.998 116.485 137.587 116.729 137.291 116.488C137.195 116.41 137.141 116.299 137.094 116.201C137.039 116.087 137.001 116.017 136.94 115.998C136.889 115.984 136.818 116.007 136.737 116.036L133.995 117.061C133.632 117.2 133.254 117.324 132.89 117.324Z" fill="#22D3EE"/>
<path d="M171.366 116.359C171.245 116.359 171.126 116.338 171.016 116.272C170.878 116.19 170.788 116.021 170.794 115.853C170.799 115.717 170.866 115.606 170.978 115.55C171.041 115.518 171.12 115.543 171.152 115.607C171.184 115.671 171.159 115.749 171.095 115.782C171.069 115.795 171.056 115.822 171.054 115.862C171.051 115.935 171.092 116.015 171.149 116.048C171.28 116.127 171.469 116.099 171.649 116.065C172.631 115.875 173.61 115.63 174.563 115.336C175.04 115.188 175.605 115.186 175.753 115.623C175.771 115.675 175.78 115.729 175.788 115.784C175.797 115.848 175.805 115.903 175.831 115.938C175.879 116.003 176.01 116.007 176.117 116.005C177.519 115.97 178.905 115.728 180.236 115.286C180.304 115.263 180.378 115.3 180.4 115.369C180.423 115.437 180.386 115.51 180.318 115.533C178.963 115.983 177.551 116.229 176.123 116.265C175.947 116.268 175.742 116.253 175.623 116.093C175.558 116.006 175.543 115.908 175.53 115.822C175.524 115.783 175.519 115.743 175.507 115.707C175.39 115.364 174.716 115.561 174.639 115.585C173.678 115.881 172.688 116.128 171.699 116.32C171.589 116.341 171.477 116.359 171.366 116.359Z" fill="#22D3EE"/>
<path d="M111.095 185.617C110.9 185.617 110.708 185.581 110.525 185.492C110.164 185.317 110.006 184.89 110.038 184.559C110.065 184.273 110.23 184.063 110.478 183.996C110.549 183.978 110.619 184.019 110.638 184.088C110.656 184.157 110.615 184.229 110.546 184.247C110.352 184.299 110.306 184.48 110.297 184.584C110.274 184.823 110.396 185.141 110.639 185.259C111.072 185.469 111.604 185.302 112.112 185.112L114.853 184.087C114.944 184.053 115.081 184.001 115.223 184.044C115.397 184.097 115.474 184.255 115.536 184.383C115.574 184.463 115.611 184.539 115.662 184.581C115.765 184.664 115.949 184.629 116.207 184.475L118.42 183.156C118.53 183.09 118.697 182.992 118.882 183.018C119.224 183.067 119.302 183.421 119.365 183.705C119.384 183.79 119.402 183.874 119.426 183.949C119.582 184.426 120.197 184.611 120.68 184.511C121.156 184.41 121.574 184.103 121.979 183.808L122.101 183.718C122.343 183.542 122.638 183.362 122.955 183.36C123.186 183.365 123.388 183.462 123.583 183.556L123.623 183.575C124.593 184.041 125.666 184.303 126.741 184.339C126.67 184.189 126.64 184.015 126.656 183.83C126.686 183.484 126.875 183.144 127.149 182.943C127.664 182.567 128.343 182.597 128.823 182.686C129.395 182.795 129.954 183.02 130.44 183.338C130.495 183.374 130.55 183.412 130.604 183.449C130.783 183.572 130.953 183.689 131.142 183.759C131.695 183.962 132.302 183.736 132.891 183.517C133.043 183.461 133.195 183.405 133.345 183.356C134.822 182.873 136.43 183.087 137.847 183.277L143.417 184.022C143.488 184.032 143.538 184.098 143.529 184.168C143.519 184.24 143.458 184.287 143.383 184.28L137.813 183.535C136.422 183.349 134.845 183.139 133.426 183.603C133.279 183.651 133.131 183.706 132.981 183.762C132.349 183.996 131.695 184.241 131.053 184.004C130.832 183.922 130.641 183.791 130.456 183.664C130.403 183.629 130.35 183.592 130.297 183.557C129.839 183.258 129.312 183.045 128.774 182.942C128.345 182.863 127.741 182.833 127.302 183.154C127.086 183.312 126.938 183.58 126.914 183.854C126.896 184.064 126.956 184.253 127.082 184.385C127.119 184.423 127.128 184.478 127.108 184.526C127.087 184.574 127.041 184.605 126.989 184.605C125.793 184.603 124.59 184.329 123.51 183.811L123.47 183.791C123.292 183.706 123.124 183.624 122.95 183.621C122.947 183.621 122.944 183.621 122.94 183.621C122.698 183.621 122.468 183.773 122.254 183.93L122.133 184.019C121.706 184.331 121.265 184.654 120.734 184.767C120.144 184.894 119.38 184.646 119.179 184.031C119.152 183.948 119.132 183.856 119.111 183.763C119.048 183.475 118.998 183.298 118.845 183.276C118.757 183.267 118.661 183.316 118.553 183.381L116.341 184.699C116.206 184.78 115.796 185.026 115.499 184.784C115.402 184.706 115.348 184.595 115.302 184.497C115.247 184.383 115.209 184.312 115.148 184.294C115.096 184.277 115.022 184.303 114.945 184.332L112.203 185.357C111.838 185.492 111.46 185.617 111.095 185.617Z" fill="#22D3EE"/>
<path d="M149.574 184.651C149.453 184.651 149.333 184.629 149.223 184.564C149.084 184.482 148.995 184.313 149.001 184.144C149.005 184.008 149.073 183.897 149.185 183.841C149.25 183.81 149.327 183.835 149.36 183.899C149.391 183.963 149.366 184.041 149.302 184.073C149.276 184.086 149.262 184.113 149.261 184.153C149.259 184.226 149.299 184.306 149.356 184.339C149.489 184.418 149.675 184.39 149.856 184.356C150.835 184.166 151.816 183.921 152.77 183.627C153.248 183.48 153.812 183.478 153.961 183.915C153.978 183.966 153.987 184.021 153.995 184.075C154.004 184.139 154.013 184.194 154.038 184.229C154.086 184.294 154.217 184.3 154.325 184.297C155.726 184.261 157.112 184.019 158.443 183.578C158.512 183.555 158.585 183.592 158.608 183.66C158.63 183.728 158.594 183.801 158.526 183.824C157.171 184.273 155.759 184.52 154.331 184.556C154.148 184.563 153.95 184.544 153.83 184.384C153.765 184.297 153.75 184.2 153.737 184.113C153.732 184.074 153.727 184.035 153.714 183.998C153.597 183.656 152.923 183.851 152.846 183.876C151.883 184.173 150.894 184.42 149.906 184.611C149.8 184.632 149.686 184.651 149.574 184.651Z" fill="#22D3EE"/>
<path d="M139.606 122.393C139.112 122.393 138.566 122.285 138.108 121.931C137.921 121.786 137.767 121.594 137.658 121.377C137.517 121.485 137.36 121.569 137.196 121.619C136.35 121.881 135.472 121.495 134.885 121.126C134.786 121.063 134.684 121 134.603 121.005C134.5 121.008 134.399 121.094 134.297 121.19L133.93 121.537C133.645 121.805 133.247 121.913 132.868 121.828C132.488 121.742 132.176 121.474 132.034 121.111L131.868 120.686C130.277 121.27 128.497 121.421 126.832 121.109C126.223 121.453 125.537 121.681 124.845 121.769C124.805 121.775 124.767 121.761 124.739 121.734C124.711 121.707 124.695 121.669 124.699 121.63C124.727 121.284 124.659 120.93 124.505 120.618C123.831 120.921 123.068 121.003 122.346 120.848L122.202 120.815C122.036 120.775 121.879 120.737 121.724 120.745C121.481 120.754 121.245 120.873 121.024 120.995L120.777 121.132C120.295 121.403 119.796 121.684 119.234 121.774C118.619 121.872 117.87 121.671 117.539 121.108C117.186 121.341 116.809 121.538 116.397 121.468C116.117 121.421 115.857 121.171 115.781 120.874C115.722 120.644 115.785 120.436 115.953 120.304C116.009 120.259 116.091 120.268 116.135 120.325C116.179 120.382 116.17 120.464 116.113 120.508C116.005 120.594 116.009 120.719 116.033 120.81C116.084 121.008 116.259 121.181 116.44 121.212C116.804 121.275 117.171 121.048 117.515 120.811C117.548 120.789 117.587 120.782 117.626 120.793C117.663 120.804 117.694 120.831 117.709 120.867C117.937 121.408 118.644 121.605 119.193 121.517C119.709 121.435 120.188 121.166 120.65 120.906L120.9 120.766C121.148 120.631 121.414 120.496 121.714 120.484C121.908 120.479 122.087 120.52 122.262 120.561L122.401 120.593C123.109 120.745 123.856 120.652 124.504 120.331C124.565 120.3 124.64 120.322 124.675 120.383C124.867 120.716 124.968 121.103 124.966 121.489C125.588 121.39 126.2 121.174 126.745 120.86C126.772 120.844 126.804 120.84 126.834 120.845C128.509 121.167 130.306 121.009 131.896 120.398C131.961 120.372 132.038 120.405 132.063 120.472L132.276 121.016C132.388 121.303 132.625 121.506 132.926 121.574C133.225 121.642 133.527 121.56 133.752 121.348L134.119 121.001C134.225 120.902 134.386 120.751 134.597 120.746C134.766 120.746 134.898 120.827 135.017 120.903C135.564 121.247 136.367 121.605 137.119 121.372C137.275 121.323 137.424 121.239 137.554 121.128C137.498 120.957 137.467 120.776 137.466 120.594C137.465 120.169 137.627 119.805 137.925 119.571C137.954 119.548 137.991 119.538 138.027 119.545C138.063 119.551 138.095 119.572 138.115 119.602C138.307 119.899 138.339 120.268 138.204 120.641C138.129 120.845 138.01 121.035 137.86 121.194C137.954 121.405 138.095 121.592 138.267 121.726C138.999 122.291 140.007 122.146 140.544 122.01C140.94 121.909 141.332 121.76 141.712 121.615C142.097 121.469 142.495 121.317 142.904 121.213C143.528 121.053 144.176 121.003 144.803 120.954C145.311 120.914 145.837 120.873 146.34 120.774C146.537 120.735 146.736 120.688 146.936 120.641C147.804 120.436 148.7 120.222 149.492 120.642C149.555 120.675 149.579 120.754 149.546 120.818C149.512 120.881 149.433 120.906 149.37 120.872C148.666 120.499 147.817 120.699 146.996 120.894C146.792 120.942 146.59 120.99 146.39 121.029C145.871 121.131 145.338 121.173 144.822 121.214C144.206 121.261 143.57 121.311 142.968 121.465C142.573 121.566 142.182 121.715 141.804 121.858C141.418 122.006 141.018 122.157 140.607 122.262C140.351 122.326 139.995 122.393 139.606 122.393ZM137.969 119.884C137.81 120.065 137.725 120.311 137.726 120.592C137.726 120.697 137.739 120.803 137.763 120.907C137.845 120.799 137.912 120.678 137.959 120.551C138.044 120.315 138.047 120.084 137.969 119.884Z" fill="#22D3EE"/>
<path d="M158.81 121.942C158.657 121.942 158.503 121.931 158.348 121.908C158.313 121.903 158.281 121.884 158.261 121.855C158.24 121.827 158.232 121.791 158.238 121.756C158.281 121.526 158.267 121.283 158.198 121.058C156.834 121.629 155.295 121.778 153.847 121.474C153.804 121.465 153.769 121.436 153.752 121.396C153.737 121.355 153.742 121.31 153.766 121.274L154.162 120.695C154.202 120.636 154.282 120.621 154.343 120.661C154.401 120.701 154.417 120.782 154.376 120.842L154.092 121.257C155.475 121.507 156.935 121.334 158.221 120.765C158.254 120.751 158.29 120.75 158.323 120.763C158.355 120.777 158.381 120.802 158.394 120.835C158.501 121.096 158.542 121.387 158.514 121.668C159.666 121.781 160.767 121.184 161.83 120.604C162.135 120.438 162.449 120.267 162.76 120.115C162.923 120.035 163.116 119.954 163.314 120.011C163.535 120.074 163.649 120.268 163.75 120.439C163.776 120.483 163.801 120.526 163.828 120.567C164.242 121.184 165.187 121.172 165.906 121.053C166.149 121.013 166.372 120.976 166.599 121.021C166.775 121.057 166.929 121.138 167.077 121.217C167.128 121.244 167.179 121.271 167.231 121.295C168.095 121.71 169.217 121.571 170.665 120.869C171.361 120.531 172.156 120.207 172.776 120.637C172.835 120.678 172.85 120.759 172.809 120.818C172.768 120.877 172.687 120.891 172.628 120.851C172.123 120.5 171.409 120.798 170.779 121.103C169.254 121.842 168.057 121.982 167.118 121.529C167.064 121.503 167.01 121.475 166.956 121.447C166.817 121.373 166.687 121.305 166.548 121.276C166.369 121.24 166.178 121.271 165.976 121.305C164.806 121.499 164 121.291 163.612 120.712C163.582 120.667 163.554 120.619 163.526 120.571C163.443 120.429 163.363 120.296 163.242 120.261C163.132 120.229 162.999 120.287 162.873 120.348C162.568 120.498 162.257 120.668 161.954 120.832C160.952 121.379 159.919 121.942 158.81 121.942Z" fill="#22D3EE"/>
<path d="M115.2 132.456C115.158 132.456 115.116 132.452 115.075 132.444C114.722 132.374 114.524 132.014 114.511 131.694C114.499 131.38 114.623 131.089 114.732 130.833C114.76 130.767 114.837 130.736 114.903 130.765C114.969 130.793 114.999 130.869 114.971 130.935C114.873 131.166 114.761 131.428 114.771 131.684C114.78 131.896 114.907 132.146 115.126 132.189C115.254 132.215 115.394 132.168 115.527 132.114C116.066 131.895 116.555 131.549 116.94 131.111C116.974 131.073 117.028 131.057 117.077 131.074C117.297 131.145 117.331 131.363 117.358 131.538C117.375 131.645 117.392 131.756 117.444 131.815C117.515 131.895 117.665 131.899 117.902 131.825C118.703 131.571 119.495 131.26 120.255 130.902C120.363 130.85 120.737 130.692 121.018 130.799C121.129 130.842 121.212 130.922 121.259 131.031C121.297 131.122 121.299 131.216 121.301 131.3C121.303 131.381 121.305 131.451 121.337 131.491C121.382 131.547 121.496 131.551 121.676 131.501L123.74 130.929C124.124 130.822 124.602 130.689 125.055 130.829C125.325 130.913 125.564 131.125 125.678 131.383C125.747 131.539 125.764 131.7 125.729 131.85C126.396 132.106 127.191 132.023 127.787 131.628C127.846 131.588 127.927 131.604 127.968 131.665C128.007 131.724 127.991 131.805 127.931 131.844C127.23 132.31 126.281 132.386 125.513 132.041C125.482 132.027 125.457 132 125.445 131.968C125.433 131.935 125.434 131.899 125.449 131.867C125.516 131.724 125.481 131.581 125.44 131.488C125.357 131.299 125.175 131.138 124.978 131.077C124.598 130.959 124.161 131.081 123.81 131.179L121.746 131.751C121.638 131.78 121.312 131.87 121.135 131.653C121.049 131.544 121.045 131.418 121.042 131.305C121.041 131.239 121.039 131.177 121.02 131.131C121.001 131.087 120.972 131.059 120.926 131.041C120.806 130.995 120.586 131.032 120.367 131.136C119.596 131.5 118.794 131.815 117.982 132.072C117.854 132.113 117.468 132.234 117.25 131.987C117.148 131.87 117.124 131.715 117.102 131.578C117.087 131.481 117.075 131.415 117.054 131.373C116.656 131.798 116.165 132.136 115.627 132.354C115.497 132.406 115.351 132.456 115.2 132.456Z" fill="#22D3EE"/>
<path d="M133.74 133.511C133.327 133.511 133.184 133.278 133.133 133.124C133.03 132.813 133.148 132.37 133.391 131.966C133.007 132.118 132.592 132.194 132.179 132.193C131.608 132.187 131.168 131.98 130.97 131.626C130.835 131.383 130.87 131.044 131.055 130.802C131.202 130.61 131.414 130.526 131.625 130.578C131.695 130.595 131.737 130.666 131.72 130.736C131.703 130.805 131.635 130.851 131.562 130.83C131.418 130.796 131.311 130.896 131.262 130.96C131.157 131.097 131.101 131.326 131.198 131.499C131.412 131.883 131.958 131.931 132.182 131.933C132.193 131.933 132.204 131.933 132.216 131.933C132.756 131.933 133.292 131.778 133.751 131.495C133.905 131.336 134.076 131.201 134.256 131.109C134.313 131.077 134.383 131.095 134.422 131.149C134.459 131.201 134.453 131.273 134.405 131.318C134.253 131.462 134.087 131.591 133.91 131.702C133.512 132.128 133.276 132.726 133.381 133.041C133.44 133.219 133.615 133.287 133.903 133.239C134.974 132.852 135.638 132.321 136.479 131.65C136.661 131.505 136.85 131.354 137.053 131.197C137.098 131.162 137.161 131.162 137.208 131.193C137.254 131.226 137.274 131.286 137.256 131.34L136.978 132.188C138.238 132.093 139.472 131.626 140.475 130.861C140.482 130.856 140.488 130.851 140.495 130.847C140.551 130.803 140.633 130.815 140.677 130.872C140.72 130.928 140.709 131.01 140.652 131.054C140.646 131.058 140.64 131.063 140.634 131.067C140.28 131.342 140.024 131.734 139.915 132.166L143.185 131.409C143.297 131.383 143.505 131.334 143.664 131.454C143.791 131.549 143.823 131.699 143.847 131.819C143.854 131.851 143.86 131.881 143.868 131.912C144.026 132.49 144.922 132.51 145.3 132.491C146.401 132.436 146.717 132.311 147.24 132.105C147.542 131.986 147.917 131.838 148.543 131.665C148.693 131.656 148.789 131.691 148.846 131.765C148.954 131.907 148.887 132.119 148.817 132.343C148.769 132.495 148.698 132.724 148.755 132.782C148.772 132.798 148.885 132.876 149.416 132.705L152.216 131.054C152.489 130.892 152.832 130.691 153.211 130.713C153.702 130.74 154.079 131.127 154.353 131.462L154.406 131.528C154.654 131.832 154.909 132.148 155.259 132.256C155.456 132.316 155.704 132.264 155.867 132.126C155.943 132.062 156.03 131.955 156.01 131.804C156.002 131.744 156.038 131.685 156.095 131.665C156.151 131.645 156.217 131.667 156.249 131.719C156.468 132.071 156.797 132.351 157.178 132.513C157.44 132.465 157.566 132.177 157.711 131.847C157.859 131.509 158.026 131.125 158.396 131C158.646 130.917 158.905 130.984 159.133 131.044C162.512 131.936 166.187 131.537 169.428 131.186C169.506 131.176 169.564 131.23 169.572 131.301C169.58 131.373 169.528 131.437 169.456 131.445C166.191 131.798 162.492 132.197 159.075 131.298C158.864 131.242 158.656 131.187 158.479 131.246C158.218 131.335 158.087 131.634 157.948 131.951C157.789 132.316 157.608 132.729 157.175 132.776C157.151 132.779 157.132 132.776 157.112 132.767C156.763 132.626 156.451 132.396 156.21 132.108C156.169 132.187 156.111 132.26 156.034 132.325C155.804 132.519 155.463 132.592 155.181 132.505C154.757 132.373 154.462 132.011 154.203 131.692L154.15 131.627C153.895 131.315 153.583 130.994 153.196 130.973C152.89 130.948 152.59 131.135 152.346 131.278L149.52 132.941C149.004 133.11 148.72 133.114 148.571 132.967C148.401 132.797 148.49 132.515 148.568 132.265C148.6 132.161 148.661 131.968 148.637 131.923C148.637 131.924 148.625 131.919 148.594 131.919C148.59 131.919 148.586 131.919 148.582 131.92C147.999 132.085 147.63 132.23 147.335 132.347C146.805 132.555 146.456 132.694 145.313 132.75C144.385 132.795 143.764 132.515 143.617 131.979C143.607 131.945 143.599 131.908 143.592 131.871C143.573 131.782 143.556 131.698 143.508 131.662C143.45 131.619 143.341 131.64 143.243 131.662L139.776 132.465C139.734 132.476 139.69 132.463 139.658 132.434C139.627 132.404 139.612 132.361 139.618 132.319C139.657 132.056 139.745 131.801 139.872 131.569C138.937 132.099 137.873 132.41 136.8 132.459C136.758 132.459 136.717 132.441 136.691 132.407C136.665 132.373 136.657 132.329 136.671 132.287L136.875 131.666C136.796 131.729 136.717 131.791 136.641 131.852C135.781 132.539 135.102 133.081 133.967 133.489C133.884 133.504 133.808 133.511 133.74 133.511Z" fill="#22D3EE"/>
</svg>
