<svg width="636" height="560" viewBox="0 0 636 560" fill="none" xmlns="http://www.w3.org/2000/svg">
<g clip-path="url(#clip0_487_24346)">
<mask id="mask0_487_24346" style="mask-type:luminance" maskUnits="userSpaceOnUse" x="14" y="16" width="608" height="527">
<path d="M621.371 16H14.5V542.936H621.371V16Z" fill="white"/>
</mask>
<g mask="url(#mask0_487_24346)">
<g opacity="0.2">
<path opacity="0.2" d="M474.98 76.0027H165.518V396.356H474.98V76.0027Z" fill="#D9FAFF"/>
<path opacity="0.2" d="M295.478 82.3533L247.749 232.548H220.607L268.339 82.3533H295.478Z" fill="white"/>
<path opacity="0.2" d="M253.58 82.3533L205.851 232.548H190.138L237.863 82.3533H253.58Z" fill="white"/>
<path opacity="0.2" d="M456.109 80.9937L408.377 231.189H381.238L428.97 80.9937H456.109Z" fill="white"/>
<path opacity="0.2" d="M414.208 80.9937L366.482 231.189H350.769L398.494 80.9937H414.208Z" fill="white"/>
<path opacity="0.2" d="M456.109 242.079L408.377 392.271H381.238L428.97 242.079H456.109Z" fill="white"/>
<path opacity="0.2" d="M414.208 242.079L366.482 392.271H350.769L398.494 242.079H414.208Z" fill="white"/>
<path opacity="0.2" d="M295.478 242.079L247.749 392.271H220.607L268.339 242.079H295.478Z" fill="white"/>
<path opacity="0.2" d="M253.58 242.079L205.851 392.271H190.138L237.863 242.079H253.58Z" fill="white"/>
<path opacity="0.2" d="M325.693 397.139V82.0252C325.693 80.7038 324.623 79.6331 323.301 79.6331H316.741C315.419 79.6331 314.349 80.7038 314.349 82.0252V397.139C314.349 398.461 315.419 399.531 316.741 399.531H323.301C324.623 399.531 325.693 398.461 325.693 397.139Z" fill="#E2B38E"/>
<path opacity="0.2" d="M160.075 81.1187V396.233C160.075 397.555 161.146 398.625 162.467 398.625H169.028C170.349 398.625 171.42 397.555 171.42 396.233V81.1187C171.42 79.7976 170.349 78.7266 169.028 78.7266H162.467C161.146 78.7266 160.075 79.7976 160.075 81.1187Z" fill="#E2B38E"/>
<path opacity="0.2" d="M469.535 81.1187V396.233C469.535 397.555 470.606 398.625 471.927 398.625H478.488C479.809 398.625 480.88 397.555 480.88 396.233V81.1187C480.88 79.7976 479.809 78.7266 478.488 78.7266H471.927C470.606 78.7266 469.535 79.7976 469.535 81.1187Z" fill="#E2B38E"/>
<path opacity="0.2" d="M322.847 401.026H316.287C315.255 401.026 314.268 400.617 313.539 399.887C312.809 399.158 312.399 398.171 312.399 397.139V82.0251C312.399 80.9941 312.809 80.0053 313.539 79.2763C314.268 78.5473 315.255 78.1379 316.287 78.1379H322.847C323.879 78.1379 324.865 78.5473 325.595 79.2763C326.325 80.0053 326.734 80.9941 326.734 82.0251V397.139C326.734 398.171 326.325 399.158 325.595 399.887C324.865 400.617 323.879 401.026 322.847 401.026ZM316.29 81.1281C316.05 81.1281 315.823 81.2226 315.656 81.3906C315.488 81.559 315.393 81.7871 315.393 82.0251V397.139C315.393 397.375 315.488 397.606 315.656 397.773C315.823 397.941 316.05 398.036 316.29 398.036H322.85C323.089 398.036 323.316 397.941 323.484 397.773C323.651 397.606 323.747 397.375 323.747 397.139V82.0251C323.747 81.7871 323.651 81.559 323.484 81.3906C323.316 81.2226 323.089 81.1281 322.85 81.1281H316.29Z" fill="#385868"/>
<path opacity="0.2" d="M168.57 400.12H162.012C160.981 400.12 159.992 399.711 159.263 398.981C158.534 398.252 158.125 397.265 158.125 396.233V81.1186C158.125 80.0879 158.534 79.0991 159.263 78.3701C159.992 77.6411 160.981 77.2314 162.012 77.2314H168.573C169.603 77.2314 170.592 77.6411 171.321 78.3701C172.05 79.0991 172.46 80.0879 172.46 81.1186V396.233C172.46 396.745 172.359 397.25 172.163 397.719C171.968 398.192 171.681 398.622 171.32 398.981C170.959 399.343 170.53 399.63 170.058 399.824C169.586 400.019 169.08 400.12 168.57 400.12ZM162.012 80.2216C161.774 80.2216 161.546 80.3161 161.378 80.4844C161.21 80.6528 161.115 80.8809 161.115 81.1186V396.233C161.115 396.469 161.21 396.7 161.378 396.867C161.546 397.035 161.774 397.13 162.012 397.13H168.573C168.81 397.13 169.038 397.035 169.207 396.867C169.375 396.7 169.47 396.469 169.47 396.233V81.1186C169.47 80.8809 169.375 80.6528 169.207 80.4844C169.038 80.3161 168.81 80.2216 168.573 80.2216H162.012Z" fill="#385868"/>
<path opacity="0.2" d="M478.032 400.12H471.471C470.44 400.12 469.453 399.711 468.723 398.981C467.994 398.252 467.584 397.265 467.584 396.233V81.1186C467.584 80.0879 467.994 79.0991 468.723 78.3701C469.453 77.6411 470.44 77.2314 471.471 77.2314H478.032C479.063 77.2314 480.05 77.6411 480.78 78.3701C481.509 79.0991 481.919 80.0879 481.919 81.1186V396.233C481.919 397.265 481.509 398.252 480.78 398.981C480.05 399.711 479.063 400.12 478.032 400.12ZM471.471 80.2216C471.232 80.2216 471.005 80.3161 470.837 80.4844C470.67 80.6528 470.574 80.8809 470.574 81.1186V396.233C470.574 396.469 470.67 396.7 470.837 396.867C471.005 397.035 471.232 397.13 471.471 397.13H478.032C478.271 397.13 478.498 397.035 478.665 396.867C478.833 396.7 478.929 396.469 478.929 396.233V81.1186C478.929 80.8809 478.833 80.6528 478.665 80.4844C478.498 80.3161 478.271 80.2216 478.032 80.2216H471.471Z" fill="#385868"/>
<path opacity="0.2" d="M481.208 70.1033H160.658C159.337 70.1033 158.266 71.174 158.266 72.4954V79.0558C158.266 80.3768 159.337 81.4479 160.658 81.4479H481.208C482.529 81.4479 483.6 80.3768 483.6 79.0558V72.4954C483.6 71.174 482.529 70.1033 481.208 70.1033Z" fill="#E2B38E"/>
<path opacity="0.2" d="M480.747 82.9429H160.204C159.173 82.9429 158.184 82.5333 157.455 81.8043C156.726 81.0753 156.316 80.0864 156.316 79.0557V72.4953C156.316 71.4643 156.726 70.4755 157.455 69.7465C158.184 69.0175 159.173 68.6082 160.204 68.6082H480.747C481.779 68.6082 482.766 69.0175 483.495 69.7465C484.225 70.4755 484.635 71.4643 484.635 72.4953V79.0557C484.635 80.0864 484.225 81.0753 483.495 81.8043C482.766 82.5333 481.779 82.9429 480.747 82.9429ZM160.204 71.5983C159.966 71.5983 159.737 71.6928 159.569 71.8608C159.401 72.0292 159.307 72.2573 159.307 72.4953V79.0557C159.307 79.2934 159.401 79.5216 159.569 79.6899C159.737 79.858 159.966 79.9528 160.204 79.9528H480.747C480.987 79.9528 481.214 79.858 481.381 79.6899C481.549 79.5216 481.644 79.2934 481.644 79.0557V72.4953C481.644 72.2573 481.549 72.0292 481.381 71.8608C481.214 71.6928 480.987 71.5983 480.747 71.5983H160.204Z" fill="#385868"/>
<path opacity="0.2" d="M481.208 390.456H160.658C159.337 390.456 158.266 391.527 158.266 392.848V399.409C158.266 400.73 159.337 401.801 160.658 401.801H481.208C482.529 401.801 483.6 400.73 483.6 399.409V392.848C483.6 391.527 482.529 390.456 481.208 390.456Z" fill="#E2B38E"/>
<path opacity="0.2" d="M480.747 403.296H160.204C159.173 403.296 158.184 402.886 157.455 402.157C156.726 401.427 156.316 400.437 156.316 399.409V392.848C156.316 391.817 156.726 390.827 157.455 390.097C158.184 389.371 159.173 388.961 160.204 388.961H480.747C481.779 388.961 482.766 389.371 483.495 390.097C484.225 390.827 484.635 391.817 484.635 392.848V399.409C484.635 400.437 484.225 401.427 483.495 402.157C482.766 402.886 481.779 403.296 480.747 403.296ZM160.204 391.951C159.966 391.951 159.737 392.044 159.569 392.214C159.401 392.382 159.307 392.609 159.307 392.848V399.409C159.307 399.645 159.401 399.875 159.569 400.043C159.737 400.21 159.966 400.306 160.204 400.306H480.747C480.987 400.306 481.214 400.21 481.381 400.043C481.549 399.875 481.644 399.645 481.644 399.409V392.848C481.644 392.609 481.549 392.382 481.381 392.214C481.214 392.044 480.987 391.951 480.747 391.951H160.204Z" fill="#385868"/>
<path opacity="0.2" d="M481.208 231.64H160.658C159.337 231.64 158.266 232.711 158.266 234.032V240.592C158.266 241.913 159.337 242.984 160.658 242.984H481.208C482.529 242.984 483.6 241.913 483.6 240.592V234.032C483.6 232.711 482.529 231.64 481.208 231.64Z" fill="#E2B38E"/>
<path opacity="0.2" d="M480.747 244.48H160.204C159.173 244.48 158.184 244.07 157.455 243.341C156.726 242.612 156.316 241.624 156.316 240.593V234.032C156.316 233.001 156.726 232.013 157.455 231.284C158.184 230.555 159.173 230.145 160.204 230.145H480.747C481.779 230.145 482.766 230.555 483.495 231.284C484.225 232.013 484.635 233.001 484.635 234.032V240.593C484.635 241.624 484.225 242.612 483.495 243.341C482.766 244.07 481.779 244.48 480.747 244.48ZM160.204 233.135C159.966 233.135 159.737 233.23 159.569 233.398C159.401 233.566 159.307 233.794 159.307 234.032V240.593C159.307 240.831 159.401 241.059 159.569 241.227C159.737 241.395 159.966 241.49 160.204 241.49H480.747C480.987 241.49 481.214 241.395 481.381 241.227C481.549 241.059 481.644 240.831 481.644 240.593V234.032C481.644 233.794 481.549 233.566 481.381 233.398C481.214 233.23 480.987 233.135 480.747 233.135H160.204Z" fill="#385868"/>
</g>
<g opacity="0.2">
<path opacity="0.2" d="M59.7656 330.01V332.403H96.8435V330.01H59.7656Z" fill="#385868"/>
<path opacity="0.2" d="M108.2 340.12L108.188 342.512L145.266 342.692L145.278 340.3L108.2 340.12Z" fill="#385868"/>
<path opacity="0.2" d="M61.9533 358.537L61.7383 380.036L64.1304 380.06L64.3454 358.561L61.9533 358.537Z" fill="#385868"/>
<path opacity="0.2" d="M112.357 320.062L112.142 341.561L114.534 341.585L114.749 320.086L112.357 320.062Z" fill="#385868"/>
<path opacity="0.2" d="M79.3986 349.222H125.976C129.074 349.222 131.586 346.71 131.586 343.613V338.266C131.586 335.168 129.074 332.657 125.976 332.657H79.3986C76.3005 332.657 73.7891 335.168 73.7891 338.266V343.613C73.7891 346.71 76.3005 349.222 79.3986 349.222Z" fill="#F2F2F2"/>
<path opacity="0.2" d="M125.976 350.421H79.3866C77.5824 350.418 75.8526 349.701 74.577 348.424C73.3011 347.15 72.5834 345.419 72.5811 343.616V338.272C72.5817 336.466 73.299 334.735 74.5749 333.458C75.8508 332.181 77.5812 331.464 79.3866 331.461H125.976C127.78 331.464 129.51 332.181 130.786 333.458C132.061 334.732 132.779 336.463 132.782 338.266V343.61C132.781 345.416 132.064 347.147 130.788 348.424C129.512 349.701 127.781 350.418 125.976 350.421ZM79.3866 333.853C78.2166 333.856 77.095 334.319 76.2676 335.148C75.4402 335.976 74.9747 337.097 74.9732 338.266V343.61C74.9732 344.782 75.4378 345.903 76.2655 346.731C77.0929 347.563 78.2154 348.026 79.3866 348.029H125.976C127.146 348.026 128.268 347.563 129.095 346.734C129.923 345.906 130.388 344.785 130.39 343.616V338.272C130.39 337.1 129.925 335.979 129.097 335.151C128.27 334.319 127.147 333.856 125.976 333.853H79.3866Z" fill="#385868"/>
<path opacity="0.2" d="M39.6417 365.788H86.2193C89.3174 365.788 91.8288 363.276 91.8288 360.178V354.832C91.8288 351.734 89.3174 349.222 86.2193 349.222H39.6417C36.5437 349.222 34.0322 351.734 34.0322 354.832V360.178C34.0322 363.276 36.5437 365.788 39.6417 365.788Z" fill="#F2F2F2"/>
<path opacity="0.2" d="M86.2191 366.987H39.6445C38.7496 366.984 37.8636 366.807 37.0372 366.463C36.2107 366.122 35.4599 365.62 34.8276 364.986C34.1954 364.352 33.6941 363.602 33.3524 362.773C33.0107 361.945 32.8352 361.06 32.8359 360.166V354.823C32.8383 353.017 33.5561 351.288 34.8319 350.012C36.1077 348.738 37.8373 348.02 39.6415 348.017H86.2191C88.0234 348.02 89.7529 348.738 91.0288 350.012C92.3044 351.288 93.0223 353.017 93.0247 354.823V360.166C93.0262 361.972 92.3103 363.706 91.0338 364.983C89.7576 366.263 88.0258 366.984 86.2191 366.987ZM39.6445 350.421C38.4745 350.421 37.3528 350.888 36.5255 351.716C35.6981 352.541 35.2326 353.663 35.231 354.835V360.166C35.2326 361.335 35.6981 362.457 36.5255 363.285C37.3528 364.113 38.4745 364.577 39.6445 364.58H86.2191C87.3892 364.577 88.5108 364.113 89.3381 363.285C90.1655 362.457 90.6311 361.335 90.6326 360.166V354.823C90.6311 353.651 90.1655 352.529 89.3381 351.704C88.5108 350.876 87.3892 350.409 86.2191 350.409L39.6445 350.421Z" fill="#385868"/>
</g>
<g opacity="0.2">
<path opacity="0.2" d="M41.5156 82.6919V85.084H78.5934V82.6919H41.5156Z" fill="#385868"/>
<path opacity="0.2" d="M89.8645 91.584L89.8525 93.9761L126.93 94.1573L126.942 91.7652L89.8645 91.584Z" fill="#385868"/>
<path opacity="0.2" d="M43.5724 109.587L43.3574 131.086L45.7495 131.11L45.9644 109.611L43.5724 109.587Z" fill="#385868"/>
<path opacity="0.2" d="M93.9806 71.1174L93.7656 92.6166L96.1577 92.6405L96.3727 71.1414L93.9806 71.1174Z" fill="#385868"/>
<path opacity="0.2" d="M61.0626 100.699H107.64C110.738 100.699 113.25 98.188 113.25 95.0899V89.7435C113.25 86.6455 110.738 84.134 107.64 84.134H61.0626C57.9645 84.134 55.4531 86.6455 55.4531 89.7435V95.0899C55.4531 98.188 57.9645 100.699 61.0626 100.699Z" fill="#F2F2F2"/>
<path opacity="0.2" d="M107.637 101.892H61.0652C59.2624 101.887 57.5353 101.168 56.2612 99.8929C54.9874 98.6173 54.2709 96.889 54.2686 95.0862V89.7428C54.2709 87.9386 54.9886 86.2091 56.2645 84.9332C57.5404 83.6576 59.2699 82.9396 61.0741 82.9373H107.637C109.441 82.9396 111.17 83.6576 112.446 84.9332C113.722 86.2091 114.44 87.9386 114.442 89.7428V95.0862C114.44 96.8905 113.722 98.6203 112.446 99.8959C111.17 101.172 109.441 101.889 107.637 101.892ZM61.0622 85.3264C59.8936 85.3312 58.7747 85.7985 57.9497 86.6262C57.125 87.4539 56.6616 88.5746 56.6607 89.7428V95.0862C56.6622 96.2563 57.1277 97.3782 57.9551 98.2053C58.7825 99.0326 59.9041 99.4982 61.0741 99.4997H107.637C108.807 99.4982 109.928 99.0326 110.756 98.2053C111.583 97.3782 112.049 96.2563 112.05 95.0862V89.7428C112.049 88.5728 111.583 87.4512 110.756 86.6238C109.928 85.7964 108.807 85.3312 107.637 85.3294L61.0622 85.3264Z" fill="#385868"/>
<path opacity="0.2" d="M21.3058 117.261H67.8833C70.9814 117.261 73.4928 114.749 73.4928 111.651V106.305C73.4928 103.207 70.9814 100.695 67.8833 100.695H21.3058C18.2078 100.695 15.6963 103.207 15.6963 106.305V111.651C15.6963 114.749 18.2078 117.261 21.3058 117.261Z" fill="#F2F2F2"/>
<path opacity="0.2" d="M67.8801 118.46H21.3056C19.5008 118.457 17.7707 117.74 16.4949 116.463C15.219 115.187 14.5016 113.456 14.5 111.651V106.302C14.5024 104.498 15.2202 102.768 16.4959 101.492C17.7717 100.217 19.5014 99.4987 21.3056 99.4963H67.8801C69.685 99.4981 71.4154 100.215 72.6916 101.491C73.9681 102.767 74.6863 104.497 74.6887 106.302V111.645C74.6887 113.452 73.9716 115.184 72.6949 116.462C71.4181 117.74 69.6865 118.458 67.8801 118.46ZM21.3056 101.891C20.1361 101.893 19.0149 102.358 18.1876 103.185C17.3603 104.011 16.8945 105.132 16.8921 106.302V111.645C16.8937 112.815 17.3592 113.937 18.1865 114.764C19.0139 115.592 20.1355 116.057 21.3056 116.059H67.8801C69.0502 116.057 70.1718 115.592 70.9991 114.764C71.8265 113.937 72.2921 112.815 72.2936 111.645V106.302C72.2921 105.132 71.8265 104.01 70.9991 103.183C70.1718 102.356 69.0502 101.89 67.8801 101.888L21.3056 101.891Z" fill="#385868"/>
</g>
<g opacity="0.2">
<path opacity="0.2" d="M536.192 341.292L536.18 343.684L573.261 343.864L573.269 341.472L536.192 341.292Z" fill="#385868"/>
<path opacity="0.2" d="M584.307 349.94L584.295 352.332L621.376 352.511L621.388 350.119L584.307 349.94Z" fill="#385868"/>
<path opacity="0.2" d="M538.86 368.359L538.645 389.858L541.037 389.882L541.252 368.383L538.86 368.359Z" fill="#385868"/>
<path opacity="0.2" d="M589.261 329.891L589.049 351.39L591.441 351.414L591.653 329.915L589.261 329.891Z" fill="#385868"/>
<path opacity="0.2" d="M555.496 359.045H602.074C605.172 359.045 607.683 356.533 607.683 353.435V348.089C607.683 344.991 605.172 342.479 602.074 342.479H555.496C552.398 342.479 549.887 344.991 549.887 348.089V353.435C549.887 356.533 552.398 359.045 555.496 359.045Z" fill="#F2F2F2"/>
<path opacity="0.2" d="M602.065 360.244H555.499C553.696 360.241 551.965 359.523 550.688 358.246C549.414 356.973 548.696 355.241 548.693 353.438V348.095C548.696 346.289 549.414 344.561 550.688 343.284C551.965 342.01 553.696 341.292 555.499 341.289H602.065C603.868 341.292 605.599 342.01 606.873 343.284C608.149 344.561 608.867 346.289 608.87 348.095V353.438C608.867 355.241 608.149 356.973 606.873 358.246C605.599 359.523 603.868 360.241 602.065 360.244ZM555.49 343.678C554.321 343.678 553.2 344.145 552.371 344.973C551.543 345.798 551.079 346.92 551.076 348.092V353.435C551.079 354.604 551.543 355.726 552.371 356.554C553.2 357.382 554.321 357.846 555.49 357.849H602.065C603.234 357.846 604.355 357.382 605.183 356.554C606.012 355.726 606.475 354.604 606.478 353.435V348.092C606.475 346.92 606.012 345.798 605.183 344.973C604.355 344.145 603.234 343.678 602.065 343.678H555.49Z" fill="#385868"/>
<path opacity="0.2" d="M515.738 375.613H562.316C565.414 375.613 567.925 373.102 567.925 370.004V364.657C567.925 361.56 565.414 359.048 562.316 359.048H515.738C512.641 359.048 510.129 361.56 510.129 364.657V370.004C510.129 373.102 512.641 375.613 515.738 375.613Z" fill="#F2F2F2"/>
<path opacity="0.2" d="M562.314 376.809H515.739C513.936 376.806 512.205 376.089 510.928 374.812C509.654 373.538 508.937 371.807 508.934 370.004V364.651C508.937 362.845 509.654 361.117 510.928 359.84C512.205 358.566 513.936 357.849 515.739 357.846H562.314C564.117 357.849 565.848 358.566 567.125 359.84C568.399 361.117 569.116 362.845 569.119 364.651V369.995C569.119 371.801 568.402 373.532 567.128 374.809C565.851 376.089 564.12 376.806 562.314 376.809ZM515.739 360.244C514.57 360.244 513.449 360.71 512.62 361.539C511.792 362.364 511.329 363.488 511.326 364.657V370.001C511.329 371.17 511.792 372.291 512.62 373.119C513.449 373.948 514.57 374.411 515.739 374.414H562.314C563.483 374.411 564.604 373.948 565.432 373.119C566.261 372.291 566.724 371.17 566.727 370.001V364.651C566.724 363.482 566.261 362.358 565.432 361.533C564.604 360.704 563.483 360.238 562.314 360.238L515.739 360.244Z" fill="#385868"/>
</g>
<g opacity="0.2">
<path opacity="0.2" d="M536.196 27.9255L536.184 30.3176L573.264 30.4988L573.276 28.1067L536.196 27.9255Z" fill="#385868"/>
<path opacity="0.2" d="M584.304 36.5737L584.295 38.9658L621.373 39.147L621.385 36.7549L584.304 36.5737Z" fill="#385868"/>
<path opacity="0.2" d="M538.844 54.4663L538.629 75.9655L541.021 75.9894L541.236 54.4902L538.844 54.4663Z" fill="#385868"/>
<path opacity="0.2" d="M589.249 15.9961L589.037 37.4953L591.429 37.5192L591.642 16.02L589.249 15.9961Z" fill="#385868"/>
<path opacity="0.2" d="M555.496 45.689H602.074C605.172 45.689 607.683 43.1775 607.683 40.0794V34.7331C607.683 31.635 605.172 29.1235 602.074 29.1235H555.496C552.398 29.1235 549.887 31.635 549.887 34.7331V40.0794C549.887 43.1775 552.398 45.689 555.496 45.689Z" fill="#F2F2F2"/>
<path opacity="0.2" d="M602.065 46.8844H555.499C553.696 46.882 551.965 46.1641 550.688 44.8884C549.414 43.6126 548.696 41.8829 548.693 40.0787V34.7323C548.696 32.9281 549.414 31.1985 550.688 29.9227C551.965 28.6469 553.696 27.9291 555.499 27.9268H602.065C603.868 27.9291 605.599 28.6469 606.873 29.9227C608.149 31.1985 608.867 32.9281 608.87 34.7323V40.0757C608.867 41.8805 608.152 43.6109 606.876 44.8873C605.599 46.1638 603.871 46.882 602.065 46.8844ZM555.49 30.3189C554.321 30.3205 553.2 30.786 552.371 31.6133C551.543 32.4407 551.079 33.5623 551.076 34.7323V40.0757C551.079 41.2458 551.543 42.3674 552.371 43.1948C553.2 44.0221 554.321 44.4876 555.49 44.4892H602.065C603.234 44.4876 604.355 44.0221 605.183 43.1948C606.012 42.3674 606.475 41.2458 606.478 40.0757V34.7323C606.478 33.5618 606.012 32.4394 605.183 31.6114C604.358 30.7834 603.234 30.3175 602.065 30.3159L555.49 30.3189Z" fill="#385868"/>
<path opacity="0.2" d="M515.738 62.2518H562.316C565.414 62.2518 567.925 59.7404 567.925 56.6423V51.2959C567.925 48.1978 565.414 45.6863 562.316 45.6863H515.738C512.641 45.6863 510.129 48.1978 510.129 51.2959V56.6423C510.129 59.7404 512.641 62.2518 515.738 62.2518Z" fill="#F2F2F2"/>
<path opacity="0.2" d="M562.314 63.4502H515.739C513.936 63.4478 512.205 62.7302 510.928 61.4543C509.654 60.1787 508.937 58.4489 508.934 56.6446V51.2833C508.937 49.479 509.654 47.7495 510.928 46.4736C512.205 45.1979 513.936 44.4801 515.739 44.4778H562.314C564.12 44.4794 565.848 45.1968 567.125 46.4727C568.402 47.7486 569.119 49.4787 569.122 51.2833V56.6267C569.122 57.5219 568.949 58.4085 568.608 59.2359C568.264 60.0632 567.765 60.8153 567.131 61.4492C566.5 62.0828 565.749 62.5857 564.921 62.929C564.096 63.2723 563.208 63.4496 562.314 63.4502ZM515.739 46.8848C514.573 46.8866 513.452 47.3497 512.626 48.1741C511.798 48.9982 511.332 50.1159 511.326 51.2833V56.6267C511.329 57.7967 511.792 58.9183 512.62 59.7457C513.449 60.5731 514.57 61.0386 515.739 61.0401H562.314C563.483 61.0386 564.604 60.5731 565.432 59.7457C566.261 58.9183 566.724 57.7967 566.727 56.6267V51.2833C566.724 50.1132 566.261 48.9916 565.432 48.1642C564.604 47.3369 563.483 46.8716 562.314 46.8698L515.739 46.8848Z" fill="#385868"/>
</g>
<path d="M515.583 539.946H108.025V542.936H515.583V539.946Z" fill="#385868"/>
<path d="M561.332 539.946H523.955V542.936H561.332V539.946Z" fill="#385868"/>
<path d="M101.747 539.946H75.7324V542.936H101.747V539.946Z" fill="#385868"/>
<path d="M349.597 302.271V317.108C349.597 321.04 351.158 324.811 353.939 327.591C356.72 330.372 360.493 331.936 364.425 331.936H382.519C390.673 331.936 398.492 335.174 404.257 340.939C410.022 346.704 413.261 354.524 413.261 362.678V447.517H252.247V362.678C252.248 354.524 255.487 346.707 261.252 340.942C267.017 335.177 274.836 331.939 282.989 331.939H301.082C303.029 331.939 304.958 331.553 306.757 330.809C308.555 330.064 310.19 328.97 311.567 327.594C312.943 326.216 314.035 324.58 314.78 322.783C315.525 320.983 315.907 319.054 315.907 317.108V302.271" fill="#FFC6AD"/>
<path d="M412.023 363.605V448.447H252.247V363.605C252.248 355.451 255.487 347.634 261.252 341.869C267.017 336.104 274.836 332.866 282.989 332.866H291.591C292.402 340.572 297.817 347.882 304.527 351.749C311.341 355.675 319.349 357.023 327.204 357.379C337.278 357.837 347.594 356.715 356.807 352.613C365.553 348.726 373.252 341.642 377.059 332.878H381.281C389.432 332.878 397.248 336.113 403.013 341.875C408.778 347.637 412.02 355.454 412.023 363.605Z" fill="#22D3EE"/>
<path d="M411.404 363.605V378.131C411.404 369.977 408.165 362.157 402.4 356.392C396.635 350.627 388.816 347.389 380.662 347.389H376.44C372.624 356.165 364.934 363.237 356.188 367.124C346.975 371.227 336.659 372.348 326.585 371.89C318.73 371.535 310.722 370.183 303.908 366.26C297.195 362.394 291.78 355.083 290.972 347.377H282.37C278.331 347.377 274.331 348.17 270.6 349.715C266.868 351.261 263.478 353.525 260.622 356.383C257.766 359.239 255.502 362.63 253.957 366.362C252.412 370.093 251.618 374.091 251.619 378.131V363.605C251.619 359.568 252.415 355.57 253.961 351.838C255.507 348.11 257.772 344.719 260.627 341.866C263.483 339.011 266.873 336.747 270.603 335.204C274.334 333.658 278.332 332.866 282.37 332.866H290.972C291.783 340.572 297.198 347.882 303.908 351.749C310.722 355.675 318.73 357.023 326.585 357.379C336.659 357.837 346.975 356.715 356.188 352.613C364.934 348.726 372.633 341.642 376.44 332.878H380.662C388.813 332.878 396.629 336.113 402.394 341.875C408.159 347.637 411.401 355.454 411.404 363.605Z" fill="#BEF8D9"/>
<path d="M348.978 304.432V315.709L348.709 315.774C337.765 318.388 326.417 318.866 315.291 317.183V304.432H348.978Z" fill="#E39493"/>
<path d="M346.565 302.271C346.565 307.285 346.476 312.306 346.565 317.317C346.61 319.832 347.22 322.305 348.347 324.55C349.478 326.799 351.098 328.76 353.09 330.297C356.244 332.722 359.967 333.73 363.911 333.73C369.646 333.73 375.381 333.706 381.116 333.73C390.526 333.769 399.554 338.26 404.966 346.032C408.701 351.393 410.22 357.496 410.22 363.972V436.962C410.22 440.29 409.956 443.744 410.22 447.066C410.22 447.218 410.22 447.365 410.22 447.532L412.014 445.738H257.543C255.509 445.738 253.315 445.502 251.287 445.738C251.194 445.744 251.102 445.744 251.009 445.738L252.803 447.532V365.787C252.803 361.198 253.039 356.769 254.678 352.389C258.165 343.071 266.561 336.149 276.282 334.244C279.125 333.688 281.984 333.733 284.864 333.733H295.503C298.113 333.733 300.789 333.892 303.358 333.356C305.78 332.83 308.055 331.769 310.015 330.253C311.976 328.734 313.572 326.799 314.69 324.586C316.257 321.426 316.466 318.172 316.466 314.734V302.271C316.466 299.962 312.878 299.959 312.878 302.271C312.878 307.285 312.968 312.306 312.878 317.317C312.825 319.73 312.11 322.083 310.811 324.117C309.513 326.153 307.68 327.792 305.514 328.856C302.781 330.205 299.91 330.142 296.965 330.142H286.499C283.961 330.142 281.383 330.04 278.85 330.279C273.834 330.755 268.993 332.376 264.703 335.022C260.413 337.665 256.789 341.259 254.11 345.529C250.623 351.121 249.227 357.436 249.227 363.96V418.055C249.227 427.71 249 437.398 249.227 447.06C249.227 447.215 249.227 447.359 249.227 447.526C249.234 447.999 249.425 448.453 249.76 448.788C250.095 449.123 250.547 449.314 251.021 449.32H392.237C398.728 449.32 405.265 449.553 411.753 449.32C411.846 449.32 411.939 449.32 412.032 449.32C412.504 449.314 412.958 449.123 413.293 448.788C413.628 448.453 413.82 447.999 413.826 447.526V365.787C413.826 361.162 413.622 356.623 412.091 352.182C410.45 347.452 407.75 343.158 404.197 339.63C400.645 336.098 396.336 333.428 391.597 331.813C384.965 329.577 377.8 330.145 370.905 330.145C368.363 330.145 365.822 330.172 363.277 330.145C361.076 330.145 358.912 329.595 356.98 328.545C355.048 327.496 353.41 325.977 352.214 324.132C350.351 321.192 350.165 318.08 350.165 314.737V302.271C350.165 299.962 346.577 299.959 346.577 302.271H346.565Z" fill="#385868"/>
<path d="M311.353 128.273C313.482 134.253 319.925 137.423 325.947 139.417C336.817 143.01 348.215 144.746 359.661 144.552C367.836 144.408 376.107 143.29 384.118 144.97C392.128 146.651 400.07 151.991 401.76 159.99" fill="#EF7679"/>
<path d="M303.566 102.227C319.949 90.0631 339.804 81.568 360.2 82.193C380.596 82.8179 401.281 93.7888 410.046 112.214C421.86 137.032 410.99 167.672 407.124 193.277C402.842 221.714 403.503 250.678 409.074 278.891C411.648 291.895 415.383 304.98 422.332 316.378C423.998 319.111 427.155 321.925 428.369 324.787C429.915 328.432 428.668 328.554 424.395 329.747C418.035 331.52 411.128 330.743 404.66 330.271C397.466 329.747 390.2 329.137 383.341 326.916C371.978 323.235 360.316 313.047 362.299 299.873" fill="#EF7679"/>
<path d="M425.322 329.741C418.962 331.514 412.055 330.737 405.587 330.267C398.393 329.741 391.127 329.134 384.268 326.913C372.905 323.229 361.244 313.044 363.223 299.87L359.533 287.505C365.738 299.167 377.633 307.916 390.571 311.492C400.519 314.243 410.928 314.336 421.151 312.688C421.818 313.936 422.524 315.167 423.262 316.381C424.928 319.114 428.085 321.925 429.296 324.787C430.845 328.429 429.598 328.548 425.322 329.741Z" fill="#DB6A72"/>
<path d="M288.398 178.963C305.645 177.168 301.414 155.14 308.133 139.155C312.433 128.922 313.889 116.31 307.353 107.337C297.844 94.2816 278.785 91.3632 264.262 96.557C244.443 103.644 240.768 124.664 239.97 143.484C239.216 161.213 243.172 178.699 247.92 195.663C250.704 205.575 252.424 215.741 253.937 225.908C257.13 247.392 259.385 269.564 254.107 290.63C248.829 311.695 234.644 331.703 213.994 338.437C231.038 341.113 249.146 340.003 264.474 332.098C279.801 324.192 291.795 308.687 292.515 291.455" fill="#EF7679"/>
<path d="M262.309 323.148C251.209 328.874 238.648 331.03 226.095 330.773C221.761 333.966 216.946 336.454 211.832 338.141C228.876 340.817 246.984 339.707 262.312 331.801C277.639 323.896 289.633 308.391 290.353 291.159L290.138 285.238C288.338 301.364 276.823 315.664 262.309 323.148Z" fill="#DB6A72"/>
<path d="M381.155 143.829C385.377 151.226 387.698 159.482 387.596 168.964C387.452 182.464 382.62 195.896 384.905 209.008C385.569 212.809 386.807 216.358 387.76 220.036C393.412 241.804 388.302 267.486 376.876 284.201C365.451 300.916 348.589 309.088 332.093 309.07H331.985C315.489 309.088 298.627 300.916 287.202 284.201C275.776 267.486 270.666 241.804 276.318 220.036C277.271 216.358 278.509 212.811 279.173 209.008C281.461 195.893 276.629 182.462 276.482 168.964C276.383 159.485 278.701 149.991 282.923 142.594L293.649 126.118L324.244 117.148L343.082 120.855" fill="#FFC6AD"/>
<path d="M376.882 274.621C365.457 291.336 348.595 299.508 332.099 299.49H331.991C315.494 299.508 298.633 291.336 287.207 274.621C279.63 263.534 274.834 248.499 274.111 233.282C273.214 251.121 278.297 269.618 287.207 282.659C298.633 299.373 315.494 307.546 331.991 307.528H332.099C348.595 307.546 365.457 299.373 376.882 282.659C385.796 269.618 390.864 251.121 389.979 233.285C389.255 248.499 384.459 263.534 376.882 274.621Z" fill="#E39493"/>
<path d="M384.854 152.102C384.815 152.102 384.773 152.084 384.734 152.075C384.136 151.948 383.532 151.836 382.919 151.741C375.482 150.559 367.837 151.525 360.278 151.657C346.684 151.893 322.901 151.537 314.552 138.641C322.659 151.142 284.43 172.405 276.577 176.684L275.979 171.081C275.917 170.483 275.866 169.861 276.186 169.367C276.485 168.991 276.882 168.704 277.334 168.539C290.93 162.122 300.83 152.85 306.915 138.847C306.954 138.754 306.993 138.662 307.029 138.569C307.202 138.15 307.373 137.729 307.531 137.301L307.558 137.235C309.02 133.773 310.075 130.153 310.701 126.447L312.585 132.792C312.671 131.895 312.725 130.98 312.746 130.083V130.002C312.764 129.027 312.746 128.059 312.671 127.096C312.521 124.786 312.069 122.506 311.329 120.314V118.906L317.539 117.085C317.079 119.65 316.206 122.356 317.172 124.778C318.251 127.487 321.232 128.845 323.974 129.844C338.285 135.05 353.424 137.597 368.65 137.361C370.002 137.34 371.356 137.295 372.714 137.247L380.545 141.975C380.673 142.202 380.805 142.435 380.931 142.668L380.814 142.65C380.984 142.949 381.149 143.249 381.31 143.548C382.761 146.279 383.948 149.144 384.854 152.102Z" fill="#E39493"/>
<path d="M311.968 129.2C314.097 135.181 320.541 138.35 326.563 140.345C337.433 143.935 348.831 145.669 360.277 145.473C368.452 145.329 376.723 144.211 384.734 145.891C392.744 147.572 400.686 152.912 402.376 160.911L408.619 113.75L311.888 108.804L311.968 129.2Z" fill="#EF7679"/>
<path d="M415.129 332.358C412.223 332.358 409.311 332.133 406.458 331.912L404.55 331.769C396.713 331.197 389.674 330.546 382.878 328.345C376.598 326.315 370.711 322.526 366.692 317.948C361.878 312.467 359.845 306.14 360.816 299.657L363.774 300.1C362.718 307.156 365.998 312.628 368.938 315.975C372.612 320.161 378.028 323.632 383.799 325.501C390.275 327.594 397.129 328.231 404.769 328.79L406.688 328.937C412.507 329.385 418.523 329.834 424.01 328.318L424.653 328.142C425.867 327.807 427.239 327.427 427.527 327.143C427.527 327.041 427.527 326.617 427.009 325.385C426.387 323.919 425.081 322.341 423.816 320.813C422.817 319.664 421.899 318.447 421.071 317.174C417.3 310.99 411.801 300.324 407.615 279.199C401.985 250.823 401.321 221.685 405.654 193.082C406.5 187.47 407.657 181.747 408.88 175.683C413.231 154.139 417.728 131.862 408.701 112.889C404.643 104.359 397.739 97.0836 388.738 91.8508C380.025 86.8318 370.211 84.0259 360.161 83.6787C337.042 82.973 317.103 94.0336 304.464 103.414L302.67 101.022C315.704 91.3455 336.27 79.9679 360.242 80.6886C370.791 81.0031 381.098 83.9359 390.233 89.2225C399.757 94.7602 407.074 102.484 411.395 111.562C415.638 120.478 417.393 130.902 416.777 143.431C416.23 154.381 413.984 165.492 411.816 176.239C410.599 182.264 409.451 187.954 408.614 193.492C404.332 221.757 404.987 250.551 410.551 278.592C414.642 299.25 419.967 309.602 423.621 315.592C424.378 316.743 425.209 317.843 426.115 318.881C427.518 320.573 428.965 322.326 429.757 324.192C430.355 325.627 430.843 327.131 430.218 328.423C429.515 329.876 427.894 330.324 425.433 331L424.8 331.177C421.633 332.059 418.386 332.358 415.129 332.358Z" fill="#385868"/>
<path d="M332.159 310.759H331.931C313.811 310.759 297.063 301.46 285.976 285.238C273.806 267.438 269.348 241.157 274.876 219.855C275.196 218.618 275.552 217.386 275.899 216.193C276.634 213.812 277.238 211.394 277.708 208.947C279.042 201.308 277.894 193.629 276.677 185.502C275.881 180.176 275.056 174.668 274.999 169.175C274.894 159.362 277.254 149.739 281.637 142.049L284.236 143.544C280.169 150.666 277.894 159.99 277.992 169.157C278.049 174.444 278.856 179.847 279.637 185.074C280.833 193.082 282.074 201.358 280.656 209.477C280.167 212.028 279.539 214.552 278.776 217.036C278.438 218.208 278.088 219.428 277.777 220.624C272.451 241.142 276.739 266.439 288.449 283.57C298.971 298.963 314.822 307.79 331.937 307.79H332.162C349.283 307.79 365.131 298.966 375.653 283.57C387.363 266.439 391.654 241.142 386.325 220.624C386.026 219.428 385.664 218.211 385.327 217.036C384.564 214.552 383.936 212.028 383.446 209.477C382.028 201.361 383.269 193.082 384.465 185.074C385.246 179.847 386.056 174.444 386.11 169.157C386.203 160.28 384.16 152.305 379.864 144.782L382.462 143.287C387.028 151.285 389.199 159.753 389.1 169.178C389.043 174.671 388.218 180.179 387.423 185.505C386.206 193.632 385.057 201.311 386.391 208.95C386.86 211.397 387.465 213.815 388.2 216.196C388.544 217.392 388.9 218.621 389.223 219.858C394.754 241.163 390.293 267.441 378.126 285.244C367.039 301.46 350.294 310.759 332.159 310.759Z" fill="#385868"/>
<path d="M307.534 140.688C301.425 155.22 289.079 167.929 273.922 171.454C272.56 171.773 271.18 172.014 269.79 172.175C264.372 166.664 254.591 155.579 255.039 147.739C255.658 136.924 273.877 119.617 278.216 113.436C280.204 110.595 282.519 103.255 284.441 96.144C284.893 96.2128 285.338 96.2906 285.79 96.3713C294.061 97.9142 301.736 101.981 306.754 108.87C313.275 117.856 311.825 130.468 307.534 140.688Z" fill="#EF7679"/>
<path d="M230.26 341.247C224.735 341.232 219.22 340.79 213.763 339.926L207.609 338.96L213.533 337.028C231.949 331.021 246.942 313.106 252.659 290.279C258.062 268.702 255.389 245.858 252.459 226.141C251.017 216.447 249.298 206.107 246.478 196.066C241.87 179.56 237.705 161.772 238.483 143.421C239.269 124.882 242.857 102.627 263.764 95.1484C271.553 92.4088 279.951 91.8912 288.017 93.6533C296.761 95.5819 303.865 100.01 308.569 106.466C311.81 110.918 313.404 116.414 313.308 122.804C313.227 128.187 311.915 134.038 309.52 139.743C306.059 148.058 300.732 155.465 293.95 161.392C286.774 167.585 278.518 171.316 270.062 172.193L269.763 169.217C285.087 167.632 299.613 155.609 306.772 138.586C309.023 133.231 310.252 127.759 310.33 122.762C310.417 117.033 309.014 112.144 306.165 108.227C301.901 102.373 295.4 98.3418 287.387 96.5657C279.865 94.9241 272.036 95.4085 264.775 97.9651C256.175 101.039 250.159 107.001 246.377 116.187C242.639 125.271 241.787 136.152 241.473 143.55C240.71 161.491 244.819 179.001 249.37 195.261C252.222 205.449 253.963 215.911 255.416 225.701C258.388 245.705 261.097 268.897 255.559 291.006C250.177 312.535 236.778 329.909 219.932 337.716C232.586 339.023 248.969 338.428 263.788 330.782C279.672 322.589 290.362 307.132 291.023 291.407L294.013 291.532C293.31 308.313 281.986 324.763 265.164 333.44C253.628 339.387 241.243 341.247 230.26 341.247Z" fill="#385868"/>
<path d="M400.298 160.295C398.597 152.26 390.353 147.805 383.81 146.43C378.066 145.233 371.978 145.518 366.091 145.802C363.998 145.903 361.827 146.008 359.689 146.044C348.072 146.25 336.503 144.489 325.476 140.835C316.903 137.997 311.823 134.053 309.927 128.776L312.743 127.771C314.316 132.184 318.655 135.435 326.402 137.997C337.11 141.545 348.341 143.255 359.62 143.057C361.713 143.021 363.857 142.916 365.929 142.817C372.005 142.518 378.288 142.219 384.408 143.508C388.708 144.394 392.748 146.253 396.219 148.941C399.93 151.893 402.346 155.606 403.207 159.679L400.298 160.295Z" fill="#385868"/>
<path d="M303.411 193.178C303.495 190.11 305.899 187.556 309.033 187.556C312.166 187.556 314.573 190.11 314.654 193.178C314.717 195.483 318.305 195.492 318.242 193.178C318.108 188.172 314.143 183.968 309.033 183.968C303.923 183.968 299.958 188.175 299.823 193.178C299.76 195.486 303.348 195.486 303.411 193.178Z" fill="#385868"/>
<path d="M346.367 193.178C346.451 190.11 348.855 187.556 351.989 187.556C355.122 187.556 357.53 190.11 357.61 193.178C357.673 195.483 361.261 195.492 361.198 193.178C361.064 188.172 357.099 183.968 351.989 183.968C346.879 183.968 342.914 188.175 342.779 193.178C342.716 195.486 346.305 195.486 346.367 193.178Z" fill="#385868"/>
<path d="M336.136 225.935C336.052 229.002 333.648 231.556 330.514 231.556C327.38 231.556 324.973 229.002 324.893 225.935C324.83 223.629 321.242 223.62 321.305 225.935C321.439 230.94 325.404 235.144 330.514 235.144C335.624 235.144 339.589 230.937 339.724 225.935C339.787 223.626 336.198 223.626 336.136 225.935Z" fill="#385868"/>
<path d="M409.471 130.45C408.981 124.237 406.314 118.352 402.729 113.254C393.758 100.486 378.909 92.3228 363.42 90.4031C347.931 88.4834 331.973 92.562 318.628 100.653C317.766 101.177 316.86 101.778 316.496 102.72C316.035 103.916 316.582 105.225 317.031 106.421C318.514 110.416 318.9 114.735 318.152 118.929C317.689 121.498 316.816 124.21 317.781 126.635C318.861 129.344 321.842 130.704 324.584 131.703C338.895 136.908 354.034 139.454 369.26 139.217C376.472 139.101 383.795 138.371 390.819 140.001C397.843 141.63 404.732 146.259 406.604 153.226C407.731 152.448 408.646 151.405 409.271 150.188C409.899 148.971 410.213 147.618 410.192 146.25" fill="#DB6A72"/>
<path d="M246.123 166.46C242.573 152.191 242.965 137.224 247.259 123.16C249.053 117.326 251.64 111.499 256.197 107.447C260.754 103.395 266.818 101.496 272.858 100.898C277.51 100.441 282.292 100.716 286.702 102.262C298.31 106.329 305.564 119.327 304.413 131.565C303.262 143.804 294.647 154.682 283.613 160.106C277.708 163.01 271.195 164.511 265.269 167.372C259.342 170.234 253.745 174.955 252.345 181.387" fill="#DB6A72"/>
<path d="M387.997 96.1531C389.865 97.4664 391.642 98.9092 393.31 100.471C394.85 101.937 396.297 103.495 397.649 105.136C399.912 107.924 401.856 110.96 403.435 114.187C404.101 115.562 404.631 116.839 405.058 117.972C405.262 118.543 405.45 119.073 405.615 119.566L406.009 120.93L406.165 121.51L406.275 122.027C406.341 122.35 406.389 122.625 406.422 122.846C406.488 123.292 406.485 123.537 406.422 123.558C406.359 123.579 406.201 123.381 405.994 122.984C405.893 122.786 405.773 122.538 405.641 122.242L405.432 121.767L405.181 121.229L404.61 119.964L403.895 118.469C403.372 117.41 402.753 116.22 402.017 114.937C400.292 111.938 398.292 109.108 396.037 106.484C394.697 104.954 393.277 103.496 391.785 102.115C390.173 100.647 388.469 99.282 386.684 98.028C384.893 96.7712 383.024 95.6269 381.092 94.6013L380.396 94.2215L379.693 93.8717C379.226 93.6444 378.769 93.4022 378.306 93.1869C377.376 92.7683 376.473 92.3377 375.564 91.9909C373.859 91.2918 372.122 90.6791 370.358 90.1549L369.126 89.823C368.722 89.7124 368.327 89.5987 367.93 89.524C367.143 89.3625 366.396 89.1592 365.669 89.0605C364.943 88.9618 364.255 88.8004 363.594 88.7615L362.634 88.6538L362.174 88.6L361.728 88.5791L360.095 88.4894C359.596 88.4894 359.136 88.4894 358.72 88.4894H358.122L357.608 88.5193C357.288 88.5342 357.01 88.5432 356.791 88.5402C356.346 88.5402 356.101 88.4984 356.086 88.4206C356.071 88.3429 356.283 88.2292 356.711 88.0857C356.926 88.014 357.192 87.9332 357.512 87.8465L358.029 87.709L358.627 87.6103C359.049 87.5427 359.521 87.4727 360.042 87.401C360.562 87.3591 361.127 87.3322 361.74 87.2993L362.207 87.2754H362.688L363.696 87.2993C364.392 87.2993 365.116 87.392 365.881 87.4608C366.647 87.5296 367.439 87.6731 368.274 87.7957C368.689 87.8525 369.108 87.9482 369.532 88.0409L370.833 88.3249C372.696 88.7878 374.532 89.361 376.329 90.0413C377.286 90.3822 378.234 90.8038 379.211 91.2194C379.696 91.4317 380.177 91.6709 380.668 91.9011L381.403 92.254L382.133 92.6367C384.166 93.6728 386.125 94.8476 387.997 96.1531Z" fill="white"/>
<path d="M378.67 188.214C378.222 192.556 378.407 196.473 378.909 199.26C379.151 200.656 379.447 201.768 379.621 202.549C379.794 203.329 379.881 203.805 379.737 203.876C379.594 203.948 379.265 203.604 378.799 202.896C378.186 201.87 377.695 200.776 377.336 199.636C376.38 196.76 375.919 192.517 376.389 187.975C376.604 185.858 376.942 183.756 377.396 181.678C377.803 179.773 378.227 178.089 378.592 176.672C379.349 173.852 379.893 172.121 380.207 172.166C380.521 172.211 380.536 174.059 380.183 176.977C380.013 178.436 379.749 180.159 379.465 182.06C379.181 183.962 378.873 186.046 378.67 188.214Z" fill="white"/>
<path d="M380.195 154.243C380.781 155.727 381.104 157.303 381.149 158.898C381.149 160.121 380.943 160.878 380.635 160.914C380.327 160.95 379.962 160.268 379.555 159.191C379.149 158.115 378.658 156.644 378.06 155.074C377.761 154.291 377.438 153.555 377.148 152.882L376.335 151.088C375.866 150.06 375.597 149.351 375.839 149.136C376.081 148.92 376.79 149.279 377.663 150.161C378.168 150.682 378.617 151.253 379.002 151.866C379.475 152.619 379.872 153.415 380.195 154.243Z" fill="white"/>
<path d="M245.937 161.919C245.6 158.205 245.5 154.474 245.638 150.748C245.752 149.031 245.823 147.399 246.03 145.886C246.122 145.126 246.188 144.391 246.299 143.691L246.64 141.679C246.831 140.393 247.13 139.254 247.354 138.249C247.474 137.747 247.576 137.277 247.689 136.853L248.036 135.695C248.458 134.305 248.712 133.548 248.763 133.563C248.814 133.578 248.655 134.365 248.323 135.77L248.042 136.939C247.949 137.37 247.872 137.836 247.773 138.342C247.588 139.349 247.331 140.489 247.175 141.768L246.876 143.772C246.783 144.469 246.732 145.201 246.655 145.952C246.475 147.447 246.43 149.076 246.335 150.778C246.239 154.469 246.358 158.163 246.691 161.841C247.064 165.758 247.674 169.46 248.329 172.806L248.847 175.246C248.927 175.644 249.014 176.03 249.113 176.409L249.385 177.534C249.567 178.269 249.726 178.987 249.911 179.666L250.44 181.621C250.76 182.874 251.113 183.986 251.397 184.973L251.798 186.346L252.157 187.494C252.581 188.875 252.794 189.65 252.755 189.668C252.716 189.686 252.399 188.944 251.888 187.574L251.466 186.444C251.316 186.029 251.167 185.574 251.002 185.087C250.679 184.109 250.291 182.994 249.935 181.756L249.358 179.803C249.157 179.124 248.984 178.407 248.787 177.671L248.488 176.544C248.386 176.164 248.29 175.775 248.189 175.378L247.638 172.932C246.872 169.294 246.304 165.618 245.937 161.919Z" fill="#516D7B"/>
<path d="M249.122 146.093C249.4 144.078 249.791 142.082 250.294 140.112C250.543 139.215 250.773 138.345 251.039 137.556C251.171 137.161 251.284 136.772 251.416 136.41L251.801 135.367C252.038 134.7 252.301 134.114 252.519 133.594C252.63 133.337 252.731 133.094 252.818 132.876L253.117 132.278C253.47 131.569 253.688 131.19 253.736 131.211C253.85 131.261 253.177 132.87 252.307 135.54L251.972 136.59C251.855 136.955 251.757 137.34 251.64 137.735C251.401 138.524 251.197 139.38 250.97 140.28C250.552 142.074 250.16 144.083 249.87 146.2C249.58 148.317 249.451 150.35 249.385 152.201C249.385 153.128 249.344 153.995 249.367 154.83C249.367 155.242 249.367 155.64 249.388 156.026L249.436 157.126C249.577 159.928 249.807 161.659 249.684 161.677C249.634 161.677 249.523 161.262 249.365 160.481L249.239 159.832C249.197 159.596 249.164 159.336 249.125 159.058C249.051 158.502 248.949 157.862 248.895 157.159L248.796 156.05C248.763 155.664 248.755 155.26 248.731 154.854C248.68 154.019 248.683 153.128 248.677 152.192C248.71 150.152 248.858 148.116 249.122 146.093Z" fill="#516D7B"/>
<path d="M293.062 107.983C295.228 110.125 297.11 112.537 298.662 115.159C299.389 116.355 299.984 117.551 300.522 118.666C301.06 119.782 301.485 120.864 301.844 121.857C302.423 123.419 302.9 125.018 303.273 126.641C303.53 127.792 303.617 128.435 303.572 128.435C303.527 128.435 303.33 127.837 302.974 126.707C302.618 125.577 302.107 123.977 301.33 122.042C300.944 121.074 300.471 120.033 299.939 118.93C299.407 117.826 298.779 116.678 298.049 115.512C296.494 112.97 294.637 110.625 292.518 108.53C291.411 107.461 290.232 106.469 288.989 105.561C287.829 104.717 286.612 103.953 285.347 103.276L284.45 102.81C284.151 102.66 283.852 102.532 283.553 102.391C282.955 102.092 282.372 101.895 281.81 101.658C281.248 101.422 280.683 101.252 280.141 101.084C279.6 100.917 279.08 100.752 278.572 100.648C276.977 100.248 275.35 99.9879 273.71 99.8704C273.411 99.8375 273.159 99.8255 272.935 99.8195L272.367 99.7866C272.068 99.7627 271.895 99.7388 271.895 99.7149C271.895 99.691 272.056 99.6611 272.364 99.6341L272.938 99.5923C273.199 99.5725 273.46 99.5666 273.722 99.5743C275.394 99.5785 277.061 99.763 278.694 100.125C279.217 100.217 279.747 100.385 280.309 100.522C280.871 100.66 281.436 100.869 282.028 101.066C282.62 101.264 283.224 101.497 283.822 101.778C284.121 101.913 284.438 102.041 284.746 102.191L285.676 102.654C286.981 103.329 288.235 104.098 289.429 104.954C290.711 105.875 291.925 106.887 293.062 107.983Z" fill="#516D7B"/>
<path d="M296.381 118.789C297.324 120.664 298.063 122.635 298.585 124.668C298.803 125.555 298.972 126.453 299.093 127.359C299.144 127.786 299.219 128.193 299.243 128.591L299.303 129.736C299.341 130.39 299.341 131.046 299.303 131.7C299.303 131.999 299.285 132.26 299.264 132.505L299.174 133.178C299.06 133.985 298.974 134.422 298.92 134.416C298.866 134.41 298.854 133.958 298.878 133.157L298.902 132.49C298.902 132.245 298.887 131.982 298.878 131.697C298.851 131.129 298.878 130.48 298.776 129.772L298.669 128.657C298.63 128.271 298.54 127.873 298.477 127.46C298.367 126.629 298.131 125.762 297.915 124.847C296.854 120.886 294.957 117.198 292.351 114.032C291.732 113.323 291.155 112.629 290.556 112.052C290.257 111.753 289.982 111.454 289.692 111.2L288.846 110.464C288.323 109.974 287.785 109.612 287.351 109.268C287.124 109.098 286.917 108.928 286.72 108.787L286.164 108.419C285.497 107.971 285.138 107.699 285.162 107.651C285.186 107.603 285.596 107.788 286.316 108.165L286.914 108.482C287.13 108.608 287.348 108.76 287.593 108.916C288.15 109.263 288.686 109.642 289.199 110.052L290.096 110.766C290.395 111.018 290.694 111.317 291.011 111.607C291.679 112.232 292.313 112.893 292.91 113.586C294.249 115.192 295.413 116.936 296.381 118.789Z" fill="#516D7B"/>
<path d="M264.683 268.134C264.638 271.235 264.464 274.261 264.183 277.171C263.902 280.08 263.475 282.873 262.987 285.516L262.598 287.469C262.464 288.109 262.299 288.737 262.165 289.358C261.893 290.602 261.54 291.789 261.235 292.947C261.073 293.521 260.891 294.08 260.724 294.633C260.556 295.186 260.401 295.73 260.206 296.251L259.668 297.791L259.405 298.535L259.124 299.253C258.747 300.198 258.412 301.104 258.026 301.944C257.641 302.784 257.327 303.58 256.953 304.297C256.579 305.015 256.271 305.697 255.948 306.31L255.033 307.963C254.893 308.211 254.767 308.448 254.639 308.663L254.268 309.261L253.67 310.197C253.523 310.464 253.346 310.714 253.144 310.941C253.244 310.653 253.376 310.376 253.538 310.116L254.065 309.147L254.405 308.531C254.522 308.31 254.639 308.071 254.767 307.817L255.616 306.139C255.915 305.52 256.214 304.838 256.558 304.112C256.902 303.385 257.213 302.587 257.569 301.753C257.925 300.918 258.251 300.012 258.61 299.062L258.879 298.344L259.127 297.602L259.638 296.068C259.821 295.548 259.961 295.004 260.129 294.457C260.296 293.91 260.463 293.35 260.616 292.779C260.915 291.628 261.244 290.45 261.513 289.212C261.648 288.596 261.812 287.971 261.926 287.334L262.296 285.394C262.76 282.768 263.193 280.011 263.436 277.105C263.678 274.198 263.869 271.211 263.914 268.134C263.951 262.341 263.651 256.55 263.017 250.792C262.452 245.475 261.731 240.712 261.073 236.72C260.416 232.728 259.833 229.502 259.438 227.271C259.243 226.156 259.091 225.289 258.998 224.7C258.93 224.405 258.895 224.104 258.894 223.802C259.011 224.084 259.096 224.378 259.148 224.679C259.288 225.259 259.489 226.117 259.728 227.223C260.212 229.436 260.876 232.647 261.603 236.636C262.329 240.625 263.098 245.391 263.714 250.726C264.393 256.503 264.717 262.317 264.683 268.134Z" fill="#516D7B"/>
<path d="M272.379 316.51C274.042 314.041 275.481 311.43 276.679 308.706L277.427 306.846L277.609 306.397C277.666 306.248 277.711 306.098 277.762 305.946L278.061 305.049C278.246 304.466 278.455 303.912 278.602 303.365L279.011 301.786C279.311 300.788 279.439 299.855 279.61 299.044C279.687 298.638 279.771 298.261 279.828 297.911L279.956 296.951C280.118 295.797 280.231 295.157 280.282 295.157C280.333 295.157 280.321 295.809 280.252 296.981L280.19 297.959C280.154 298.315 280.088 298.698 280.031 299.11C279.914 300.05 279.749 300.983 279.538 301.906L279.17 303.518C279.035 304.077 278.838 304.642 278.665 305.237L278.387 306.134C278.339 306.287 278.297 306.433 278.24 306.595L278.064 307.055L277.334 308.984C275.012 314.595 271.537 319.656 267.135 323.839L265.622 325.202L265.257 325.531C265.134 325.639 265.003 325.734 264.877 325.83L264.133 326.428C263.639 326.805 263.185 327.191 262.709 327.517L261.337 328.441C260.552 328.97 259.74 329.46 258.906 329.906C258.541 330.109 258.206 330.306 257.886 330.468L256.989 330.878C255.919 331.365 255.321 331.61 255.297 331.562C255.273 331.514 255.832 331.18 256.852 330.614L257.701 330.148C258 329.969 258.329 329.753 258.678 329.55C259.372 329.101 260.195 328.653 261.023 328.007L262.347 327.056C262.805 326.724 263.244 326.33 263.723 325.947L264.444 325.349C264.563 325.247 264.692 325.151 264.811 325.05L265.164 324.718L266.632 323.351C268.748 321.246 270.672 318.959 272.379 316.51Z" fill="#516D7B"/>
<path d="M275.752 294.418C275.947 293.174 276.069 291.981 276.144 290.892C276.171 290.348 276.207 289.828 276.21 289.344C276.213 288.859 276.225 288.405 276.21 287.989C276.21 286.332 276.126 285.298 276.24 285.298C276.353 285.298 276.595 286.297 276.748 287.989C276.784 288.408 276.82 288.868 276.829 289.364C276.838 289.861 276.829 290.39 276.829 290.949C276.76 293.374 276.375 295.78 275.683 298.105C275.516 298.637 275.361 299.145 275.184 299.6C275.008 300.054 274.843 300.497 274.679 300.882C274.009 302.431 273.444 303.31 273.36 303.275C273.276 303.239 273.659 302.267 274.176 300.697C274.308 300.305 274.452 299.875 274.586 299.408C274.721 298.942 274.864 298.443 275.008 297.913C275.292 296.834 275.54 295.662 275.752 294.418Z" fill="#516D7B"/>
<path d="M341.493 136.439C344.119 137.035 346.774 137.496 349.447 137.821C350.682 137.946 351.854 138.084 352.961 138.141C353.511 138.174 354.043 138.224 354.557 138.242L356.031 138.293C356.97 138.341 357.826 138.32 358.57 138.329H359.614L360.49 138.308C361.545 138.29 362.131 138.308 362.134 138.356C362.137 138.404 361.56 138.494 360.505 138.604L359.629 138.691C359.309 138.715 358.959 138.73 358.582 138.748C357.832 138.781 356.973 138.84 356.026 138.825H354.53C354.013 138.825 353.475 138.787 352.919 138.766C351.803 138.736 350.616 138.619 349.366 138.512C343.942 137.963 338.608 136.725 333.498 134.828C332.329 134.373 331.21 133.955 330.209 133.491C329.7 133.264 329.201 133.057 328.734 132.833L327.398 132.178C326.54 131.775 325.798 131.341 325.137 130.982C324.808 130.8 324.5 130.632 324.222 130.468L323.472 130.002C322.575 129.439 322.093 129.105 322.12 129.06C322.147 129.015 322.679 129.26 323.615 129.741L324.393 130.145L325.332 130.6C326.007 130.923 326.761 131.317 327.625 131.685L328.971 132.283C329.44 132.492 329.939 132.681 330.448 132.881C331.464 133.318 332.577 133.709 333.737 134.14C336.282 135.038 338.871 135.805 341.493 136.439Z" fill="#516D7B"/>
<path d="M355.93 135.845C357.796 136.031 359.581 136.123 361.208 136.162C362.021 136.162 362.793 136.186 363.516 136.162C364.24 136.138 364.913 136.132 365.529 136.105C367.99 135.998 369.512 135.842 369.53 135.959C369.547 136.076 368.034 136.395 365.568 136.644C364.949 136.703 364.27 136.763 363.54 136.793C362.811 136.823 362.027 136.85 361.205 136.862C359.56 136.862 357.748 136.79 355.856 136.602C353.963 136.413 352.178 136.108 350.566 135.776C349.762 135.597 348.999 135.433 348.294 135.238C347.588 135.044 346.93 134.864 346.338 134.682C343.964 133.941 342.561 133.298 342.594 133.211C342.627 133.124 344.089 133.561 346.482 134.162C347.08 134.311 347.731 134.461 348.44 134.622C349.149 134.784 349.905 134.921 350.701 135.086C352.3 135.379 354.065 135.648 355.93 135.845Z" fill="#516D7B"/>
<path d="M328.807 95.5141C330.373 94.6264 331.988 93.822 333.639 93.1041C334.404 92.7871 335.134 92.4791 335.827 92.2339C336.174 92.1084 336.506 91.9798 336.832 91.8721L337.768 91.5731C340.16 90.8226 341.694 90.5595 341.715 90.6492C341.736 90.7389 340.268 91.2113 337.944 92.0844L337.047 92.4313C336.73 92.5509 336.408 92.6944 336.07 92.832C335.391 93.1011 334.685 93.43 333.935 93.7559C332.44 94.4437 330.84 95.251 329.195 96.1869C327.551 97.1228 326.047 98.1066 324.71 99.0395C324.046 99.5179 323.406 99.9605 322.829 100.409C322.53 100.63 322.255 100.837 321.989 101.049L321.23 101.647C319.298 103.208 318.165 104.254 318.081 104.171C317.997 104.087 319.017 102.921 320.88 101.237L321.618 100.585C321.875 100.361 322.157 100.14 322.441 99.9037C323.006 99.4282 323.637 98.9588 324.3 98.4594C325.751 97.3994 327.255 96.4163 328.807 95.5141Z" fill="#516D7B"/>
<path d="M336.587 94.6615C337.562 94.2306 338.56 93.8515 339.577 93.5253C340.411 93.2618 341.257 93.0412 342.113 92.8644C343.575 92.5654 344.505 92.5236 344.505 92.6193C344.55 92.8495 340.949 93.5163 336.874 95.3612C332.798 97.2061 329.868 99.377 329.727 99.1916C329.668 99.1168 330.325 98.459 331.521 97.5709C332.227 97.0534 332.957 96.5722 333.71 96.1297C334.643 95.5897 335.603 95.0996 336.587 94.6615Z" fill="#516D7B"/>
<path d="M403.456 182.598C401.844 190.125 401.168 197.822 401.443 205.515C401.551 208.466 401.775 210.849 401.931 212.497C402.086 214.144 402.197 215.056 402.143 215.062C402.053 214.857 401.996 214.639 401.973 214.416C401.889 213.989 401.766 213.355 401.638 212.536C401.392 210.894 401.085 208.508 400.908 205.539C400.466 197.792 401.07 190.02 402.702 182.434C403.196 180.218 403.734 178.065 404.347 176.017C404.96 173.969 405.573 172.007 406.141 170.135C406.709 168.264 407.223 166.481 407.636 164.795C407.854 163.955 408.013 163.135 408.186 162.349C408.36 161.563 408.485 160.803 408.569 160.07C408.919 157.772 408.993 155.441 408.793 153.124C408.739 152.302 408.62 151.671 408.563 151.241C408.512 151.021 408.494 150.795 408.512 150.571C408.611 150.771 408.679 150.986 408.715 151.208C408.883 151.825 409.008 152.454 409.089 153.089C409.409 155.427 409.412 157.797 409.104 160.136C409.035 160.881 408.886 161.646 408.766 162.454C408.647 163.261 408.467 164.086 408.252 164.935C407.869 166.646 407.373 168.446 406.823 170.318L405.076 176.208C404.472 178.269 403.946 180.401 403.456 182.598Z" fill="#516D7B"/>
<path d="M407.169 299.836C408.47 303.473 409.983 307.031 411.696 310.493L412.892 312.802C413.266 313.558 413.702 314.255 414.088 314.946C414.474 315.637 414.848 316.307 415.236 316.932L416.361 318.726C417.054 319.883 417.772 320.87 418.367 321.761C418.666 322.203 418.944 322.622 419.207 322.996L419.949 324.009C420.846 325.232 421.309 325.923 421.27 325.956C421.231 325.989 420.672 325.358 419.715 324.189L418.917 323.211C418.633 322.846 418.343 322.439 418.02 322.015C417.389 321.142 416.636 320.17 415.909 319.025L414.737 317.246C414.333 316.624 413.956 315.954 413.541 315.269C413.125 314.584 412.692 313.884 412.303 313.128L411.065 310.816C407.492 303.879 404.893 296.483 403.341 288.836L402.863 286.255C402.693 285.421 402.609 284.599 402.489 283.809C402.37 283.02 402.259 282.257 402.19 281.519L401.993 279.399C401.843 278.05 401.822 276.821 401.772 275.745C401.751 275.206 401.724 274.707 401.718 274.25V272.988C401.739 271.472 401.775 270.635 401.825 270.635C401.876 270.635 401.942 271.472 402.014 272.979L402.068 274.235C402.095 274.692 402.145 275.192 402.184 275.73C402.277 276.797 402.337 278.017 402.516 279.354L402.761 281.447C402.848 282.176 402.989 282.942 403.105 283.713C403.222 284.485 403.332 285.31 403.515 286.135L404.023 288.689C404.854 292.462 405.907 296.184 407.169 299.836Z" fill="#516D7B"/>
<path d="M400.866 285.43C401.279 287.448 401.739 289.356 402.191 291.084C402.427 291.945 402.642 292.765 402.872 293.527C403.103 294.29 403.309 294.998 403.509 295.644C404.314 298.225 404.873 299.807 404.765 299.851C404.657 299.896 403.94 298.371 402.998 295.818C402.765 295.178 402.513 294.478 402.268 293.725C402.023 292.971 401.772 292.146 401.515 291.282C401.021 289.55 400.537 287.628 400.121 285.6C399.706 283.573 399.41 281.606 399.188 279.817C399.09 278.92 398.988 278.074 398.931 277.276C398.875 276.477 398.818 275.736 398.782 275.054C398.653 272.336 398.743 270.653 398.836 270.65C398.928 270.647 399.054 272.321 399.32 275.012C399.389 275.685 399.461 276.421 399.559 277.21C399.658 277.999 399.766 278.84 399.885 279.725C400.139 281.474 400.462 283.409 400.866 285.43Z" fill="#516D7B"/>
<path d="M376.625 317.249C378.15 318.379 379.765 319.38 381.46 320.239C382.256 320.606 383 320.98 383.733 321.249C384.098 321.39 384.442 321.548 384.785 321.659L385.775 321.985C386.4 322.212 386.989 322.341 387.497 322.484C387.755 322.553 387.991 322.625 388.209 322.676L388.807 322.804C389.537 322.966 389.94 323.079 389.934 323.133C389.928 323.187 389.513 323.172 388.759 323.097L388.134 323.031C387.907 322.999 387.662 322.948 387.399 322.9C386.795 322.798 386.197 322.664 385.605 322.502L384.579 322.203C384.223 322.102 383.864 321.958 383.488 321.826C382.728 321.578 381.954 321.228 381.131 320.858C377.594 319.192 374.442 316.8 371.886 313.842C371.318 313.148 370.762 312.499 370.319 311.832C370.092 311.504 369.859 311.199 369.664 310.885L369.114 309.988C368.8 309.467 368.513 308.93 368.253 308.379C368.136 308.137 368.02 307.915 367.927 307.706L367.697 307.108C367.425 306.402 367.299 306.005 367.347 305.987C367.395 305.969 367.616 306.325 367.966 306.982L368.265 307.533C368.375 307.73 368.507 307.939 368.642 308.167C368.917 308.618 369.198 309.15 369.587 309.692L370.167 310.556C370.37 310.855 370.612 311.154 370.845 311.453C371.3 312.087 371.859 312.706 372.43 313.369C373.716 314.78 375.118 316.076 376.625 317.249Z" fill="#516D7B"/>
<path d="M387.67 318.708C389.557 319.494 391.486 320.167 393.453 320.723C394.365 320.959 395.229 321.198 396.052 321.36C396.461 321.447 396.856 321.542 397.248 321.611L398.351 321.802C399.054 321.94 399.697 322.006 400.259 322.101L401.042 322.212L401.706 322.284C402.501 322.373 402.944 322.448 402.944 322.502C402.944 322.556 402.495 322.58 401.688 322.58H401.015C400.77 322.58 400.504 322.55 400.217 322.532C399.646 322.487 398.991 322.46 398.273 322.356L397.146 322.209C396.754 322.155 396.354 322.071 395.932 321.997C395.092 321.859 394.21 321.638 393.277 321.42C389.243 320.388 385.389 318.749 381.849 316.561C381.044 316.043 380.273 315.559 379.591 315.051C379.247 314.799 378.906 314.568 378.598 314.323L377.701 313.614C377.13 313.172 376.655 312.717 376.224 312.341C376.012 312.146 375.811 311.97 375.626 311.799L375.157 311.318C374.597 310.735 374.304 310.397 374.343 310.361C374.382 310.325 374.741 310.588 375.36 311.1L375.871 311.527L376.496 312.015C376.948 312.362 377.441 312.78 378.027 313.187L378.924 313.848C379.238 314.078 379.582 314.293 379.929 314.529C380.617 315.011 381.388 315.466 382.189 315.96C383.96 316.982 385.79 317.9 387.67 318.708Z" fill="#516D7B"/>
<path d="M344.867 262.088C344.768 270.042 338.312 276.674 330.281 276.674C322.249 276.674 315.793 270.042 315.695 262.088C315.665 259.78 312.077 259.774 312.107 262.088C312.142 265.81 313.304 269.433 315.438 272.481C317.573 275.53 320.581 277.86 324.067 279.165C331.1 281.784 339.377 279.548 344.17 273.783C346.906 270.496 348.419 266.364 348.455 262.088C348.485 259.78 344.897 259.777 344.867 262.088Z" fill="#385868"/>
<path d="M289.761 334.056C290.437 340.886 294.109 346.974 299.393 351.279C305.373 356.153 312.83 358.504 320.389 359.505C335.484 361.503 352.453 359.831 365.191 350.834C371.515 346.376 376.553 340.392 379.367 333.15C380.204 330.997 376.736 330.064 375.908 332.196C371.123 344.513 359.067 352.152 346.625 354.996C339.428 356.641 331.928 356.901 324.582 356.339C317.534 355.8 310.319 354.269 304.288 350.415C298.633 346.8 294.022 340.874 293.347 334.041C293.122 331.766 289.531 331.742 289.758 334.041L289.761 334.056Z" fill="#A5FCFC"/>
<path d="M226.167 385.397H446.37C448.613 385.397 450.763 386.288 452.348 387.873C453.933 389.458 454.824 391.608 454.824 393.85V535.302C454.824 536.642 454.291 537.927 453.343 538.878C452.396 539.826 451.107 540.358 449.767 540.358H222.77C221.429 540.358 220.143 539.826 219.195 538.878C218.246 537.927 217.714 536.642 217.714 535.302V393.85C217.714 391.608 218.604 389.458 220.19 387.873C221.775 386.288 223.925 385.397 226.167 385.397Z" fill="#256075"/>
<path d="M446.238 385.056H227.605C222.501 385.056 218.365 388.961 218.365 393.775V398.377C218.365 393.563 222.501 389.658 227.605 389.658H446.238C451.343 389.658 455.478 393.563 455.478 398.377V393.775C455.478 388.958 451.343 385.056 446.238 385.056Z" fill="#347888"/>
<path d="M457.018 541.85H216.864V393.62C216.867 391.042 217.891 388.572 219.712 386.751C221.533 384.93 224.003 383.905 226.579 383.902H447.306C449.883 383.905 452.35 384.93 454.174 386.751C455.995 388.572 457.018 391.042 457.021 393.62L457.018 541.85ZM219.854 538.86H454.028V393.62C454.025 391.835 453.316 390.127 452.057 388.865C450.795 387.604 449.085 386.895 447.303 386.892H226.579C224.796 386.895 223.086 387.604 221.826 388.865C220.565 390.127 219.856 391.835 219.854 393.62V538.86Z" fill="#385868"/>
<path d="M167.969 524.098C164.05 524.086 160.222 522.914 156.969 520.728C153.716 518.542 151.183 515.441 149.691 511.817C148.199 508.193 147.815 504.207 148.586 500.365C149.358 496.523 151.251 492.997 154.026 490.228C156.801 487.463 160.334 485.579 164.179 484.819C168.023 484.057 172.007 484.454 175.627 485.956C179.247 487.46 182.34 490.001 184.516 493.26C186.692 496.52 187.854 500.35 187.854 504.27C187.84 509.533 185.739 514.577 182.011 518.294C178.283 522.011 173.234 524.098 167.969 524.098ZM167.969 489.828C165.115 489.837 162.327 490.695 159.959 492.289C157.591 493.882 155.748 496.143 154.664 498.783C153.579 501.424 153.301 504.327 153.865 507.126C154.429 509.925 155.81 512.493 157.833 514.508C159.855 516.521 162.43 517.893 165.231 518.443C168.031 518.997 170.933 518.707 173.569 517.612C176.205 516.515 178.458 514.664 180.042 512.29C181.627 509.916 182.472 507.123 182.471 504.27C182.459 500.434 180.925 496.756 178.206 494.05C175.488 491.344 171.806 489.825 167.969 489.828Z" fill="#385868"/>
<path d="M176.192 489.544V496.158C174.398 515.995 156.61 531.573 134.928 531.573C113.247 531.573 95.4582 515.995 93.6641 496.158V489.544C93.836 487.618 94.161 485.71 94.6359 483.839C94.8383 483.04 95.3009 482.332 95.9506 481.823C96.6004 481.318 97.4003 481.04 98.224 481.04H171.62C172.444 481.04 173.244 481.318 173.894 481.823C174.543 482.332 175.006 483.04 175.208 483.839C175.687 485.71 176.016 487.618 176.192 489.544Z" fill="#68B9E1"/>
<path d="M176.192 482.535C176.193 483.438 176.1 484.341 175.917 485.226H129.797C129.797 490.51 125.817 494.795 120.907 494.795H120.351C119.167 494.786 117.998 494.534 116.918 494.053C115.837 493.569 114.868 492.869 114.072 491.993C112.381 490.145 111.45 487.729 111.467 485.226H94.238C94.0544 484.341 93.962 483.438 93.9629 482.535H176.192Z" fill="#ACD8F8"/>
<path d="M135.227 533.068C124.423 533.068 114.098 529.292 106.16 522.435C98.2207 515.579 93.3796 506.312 92.4736 496.292V496.158V489.409C92.656 487.406 92.9969 485.42 93.4933 483.471C93.7767 482.349 94.425 481.357 95.3355 480.645C96.2463 479.936 97.3676 479.548 98.5227 479.545H171.919C173.077 479.545 174.202 479.93 175.115 480.642C176.029 481.354 176.679 482.346 176.963 483.471C177.459 485.42 177.799 487.406 177.98 489.409V489.544V496.292C177.083 506.312 172.212 515.597 164.294 522.435C156.376 529.274 146.03 533.068 135.227 533.068ZM95.4578 496.089C96.31 505.308 100.801 513.857 108.115 520.172C115.513 526.559 125.141 530.078 135.227 530.078C145.313 530.078 154.944 526.562 162.338 520.172C169.649 513.857 174.144 505.308 174.996 496.089V489.613C174.826 487.789 174.515 485.982 174.063 484.209C173.942 483.731 173.665 483.309 173.277 483.004C172.889 482.702 172.411 482.538 171.919 482.538H98.5227C98.0305 482.538 97.5524 482.702 97.1643 483.004C96.7762 483.309 96.4996 483.731 96.3788 484.209C95.927 485.982 95.6151 487.789 95.4458 489.613L95.4578 496.089Z" fill="#385868"/>
<path d="M90.6738 527.387H179.182C179.182 530.637 177.89 533.756 175.591 536.056C173.292 538.355 170.174 539.647 166.923 539.647H102.933C99.6819 539.647 96.5638 538.355 94.2647 536.056C91.9656 533.756 90.6738 530.637 90.6738 527.387Z" fill="#68B9E1"/>
<path d="M177.389 527.985C177.385 528.891 177.285 529.791 177.09 530.676H129.14C129.14 535.96 124.998 540.245 119.894 540.245H119.317C118.094 540.242 116.885 539.994 115.761 539.512C114.637 539.031 113.622 538.325 112.778 537.443C111.031 535.625 110.061 533.197 110.071 530.676H92.1545C91.9592 529.791 91.8591 528.891 91.8555 527.985H177.389Z" fill="#ACD8F8"/>
<path d="M167.221 541.142H103.232C99.5854 541.139 96.0894 539.686 93.5107 537.108C90.9319 534.531 89.4814 531.032 89.4775 527.387V525.892H180.976V527.387C180.972 531.032 179.522 534.531 176.943 537.108C174.364 539.686 170.868 541.139 167.221 541.142ZM92.5723 528.882C92.9359 531.451 94.2139 533.804 96.1722 535.505C98.1304 537.21 100.637 538.149 103.232 538.152H167.221C169.816 538.149 172.323 537.207 174.281 535.505C176.239 533.804 177.517 531.451 177.881 528.882H92.5723Z" fill="#385868"/>
<path d="M176.192 489.861H154.364V491.954H176.192V489.861Z" fill="#385868"/>
<g opacity="0.4">
<path opacity="0.4" d="M297.261 239.286C303.663 239.286 308.854 236.474 308.854 233.006C308.854 229.538 303.663 226.727 297.261 226.727C290.858 226.727 285.668 229.538 285.668 233.006C285.668 236.474 290.858 239.286 297.261 239.286Z" fill="white"/>
<path opacity="0.4" d="M363.263 239.286C369.665 239.286 374.856 236.474 374.856 233.006C374.856 229.538 369.665 226.727 363.263 226.727C356.861 226.727 351.67 229.538 351.67 233.006C351.67 236.474 356.861 239.286 363.263 239.286Z" fill="white"/>
</g>
</g>
</g>
<defs>
<clipPath id="clip0_487_24346">
<rect width="607" height="527.163" fill="white" transform="translate(14.5 16)"/>
</clipPath>
</defs>
</svg>
