<svg width="454" height="442" viewBox="0 0 454 442" fill="none" xmlns="http://www.w3.org/2000/svg">
<path d="M408.509 372.203H378.436V372.438H408.509V372.203Z" fill="#EBEBEB"/>
<path d="M300.748 374.765H292.857V375H300.748V374.765Z" fill="#EBEBEB"/>
<path d="M377.528 363.461H360.104V363.696H377.528V363.461Z" fill="#EBEBEB"/>
<path d="M86.8493 365.043H47.6328V365.278H86.8493V365.043Z" fill="#EBEBEB"/>
<path d="M100.689 365.043H94.9414V365.278H100.689V365.043Z" fill="#EBEBEB"/>
<path d="M204.436 369.019H119.375V369.254H204.436V369.019Z" fill="#EBEBEB"/>
<path d="M173.973 314.748H136.001C133.993 314.747 132.007 314.322 130.164 313.499C128.32 312.675 126.657 311.471 125.276 309.96C123.896 308.448 122.827 306.66 122.134 304.706C121.441 302.751 121.138 300.671 121.246 298.592L124.197 241.249C124.401 237.336 126.04 233.652 128.779 230.953C131.517 228.254 135.147 226.744 138.924 226.732H170.986C174.769 226.732 178.409 228.237 181.154 230.938C183.899 233.639 185.541 237.33 185.741 241.249L188.701 298.592C188.807 300.668 188.505 302.746 187.813 304.698C187.121 306.65 186.054 308.435 184.677 309.946C183.299 311.457 181.64 312.662 179.8 313.487C177.96 314.313 175.978 314.742 173.973 314.748Z" fill="#F5F5F5"/>
<path d="M212.854 330.414H126.058C125.368 330.414 124.684 330.273 124.046 329.999C123.408 329.725 122.829 329.323 122.341 328.816C121.852 328.31 121.465 327.709 121.201 327.047C120.937 326.385 120.801 325.676 120.801 324.959C120.813 322.969 121.583 321.064 122.944 319.661C124.305 318.258 126.146 317.47 128.065 317.47H210.938C212.857 317.47 214.697 318.258 216.058 319.661C217.419 321.064 218.19 322.969 218.202 324.959C218.202 325.684 218.063 326.401 217.793 327.069C217.523 327.737 217.128 328.342 216.63 328.85C216.132 329.358 215.542 329.758 214.894 330.026C214.245 330.295 213.552 330.426 212.854 330.414Z" fill="#F5F5F5"/>
<path d="M130.316 298.592L133.267 241.249C133.471 237.334 135.112 233.649 137.852 230.95C140.592 228.25 144.225 226.741 148.004 226.732H138.924C135.14 226.734 131.501 228.24 128.755 230.94C126.008 233.64 124.364 237.33 124.16 241.249L121.209 298.592C121.101 300.671 121.403 302.751 122.096 304.706C122.789 306.66 123.859 308.448 125.239 309.96C126.62 311.471 128.283 312.675 130.127 313.499C131.97 314.322 133.956 314.747 135.964 314.748H145.044C143.039 314.743 141.056 314.315 139.215 313.49C137.374 312.665 135.715 311.461 134.337 309.949C132.96 308.438 131.893 306.652 131.201 304.699C130.51 302.747 130.209 300.669 130.316 298.592Z" fill="#EBEBEB"/>
<path d="M174.254 325.148C174.262 323.142 173.509 321.213 172.159 319.777C170.809 318.34 168.969 317.512 167.035 317.47H128.028C126.109 317.47 124.268 318.258 122.907 319.661C121.546 321.064 120.776 322.969 120.764 324.959C120.764 326.406 121.318 327.793 122.304 328.816C123.289 329.839 124.627 330.414 126.021 330.414L168.96 330.602C169.654 330.607 170.341 330.47 170.983 330.198C171.625 329.926 172.209 329.525 172.701 329.018C173.193 328.511 173.584 327.908 173.85 327.244C174.117 326.58 174.254 325.867 174.254 325.148Z" fill="#EBEBEB"/>
<path d="M97.4186 314.748H59.4551C57.4471 314.748 55.4601 314.324 53.6153 313.501C51.7704 312.679 50.1065 311.475 48.7249 309.963C47.3433 308.451 46.2731 306.663 45.5796 304.708C44.8861 302.753 44.5837 300.672 44.691 298.592L47.6511 241.249C47.8511 237.33 49.4929 233.639 52.2382 230.938C54.9834 228.237 58.6228 226.732 62.4061 226.732H94.4313C98.2146 226.732 101.854 228.237 104.599 230.938C107.344 233.639 108.986 237.33 109.186 241.249L112.146 298.592C112.254 300.669 111.952 302.747 111.261 304.699C110.57 306.652 109.503 308.438 108.125 309.949C106.747 311.461 105.088 312.665 103.247 313.49C101.407 314.315 99.4235 314.743 97.4186 314.748Z" fill="#F5F5F5"/>
<path d="M136.3 330.414H49.5041C48.8141 330.414 48.1309 330.273 47.4936 329.998C46.8563 329.724 46.2773 329.322 45.7898 328.816C45.3024 328.309 44.916 327.708 44.6528 327.046C44.3895 326.384 44.2547 325.675 44.2559 324.959C44.2547 323.976 44.4403 323.003 44.802 322.094C45.1638 321.186 45.6947 320.36 46.3643 319.664C47.0339 318.969 47.829 318.417 48.7043 318.04C49.5796 317.664 50.5179 317.47 51.4654 317.47H134.384C136.303 317.47 138.143 318.258 139.504 319.661C140.865 321.064 141.636 322.969 141.648 324.959C141.648 325.684 141.509 326.401 141.239 327.069C140.969 327.737 140.574 328.342 140.076 328.85C139.578 329.358 138.988 329.758 138.34 330.026C137.691 330.295 136.998 330.426 136.3 330.414Z" fill="#F5F5F5"/>
<path d="M53.7632 298.592L56.7233 241.249C56.9233 237.33 58.5651 233.639 61.3104 230.938C64.0556 228.237 67.695 226.732 71.4783 226.732H62.3983C58.615 226.732 54.9756 228.237 52.2304 230.938C49.4851 233.639 47.8433 237.33 47.6433 241.249L44.6832 298.592C44.5759 300.673 44.8785 302.755 45.5726 304.71C46.2667 306.666 47.3377 308.454 48.7202 309.966C50.1027 311.478 51.7678 312.682 53.6137 313.504C55.4596 314.326 57.4476 314.749 59.4564 314.748H68.5364C66.5276 314.749 64.5396 314.326 62.6937 313.504C60.8478 312.682 59.1827 311.478 57.8002 309.966C56.4177 308.454 55.3467 306.666 54.6526 304.71C53.9585 302.755 53.6559 300.673 53.7632 298.592Z" fill="#EBEBEB"/>
<path d="M97.7006 325.148C97.7082 323.142 96.9558 321.213 95.6056 319.777C94.2553 318.34 92.4153 317.512 90.482 317.47H51.438C50.4905 317.47 49.5523 317.664 48.677 318.04C47.8017 318.417 47.0065 318.969 46.3369 319.664C45.6673 320.36 45.1365 321.186 44.7747 322.094C44.4129 323.003 44.2273 323.976 44.2285 324.959C44.2273 325.675 44.3622 326.384 44.6254 327.046C44.8886 327.708 45.275 328.309 45.7625 328.816C46.2499 329.322 46.8289 329.724 47.4662 329.998C48.1036 330.273 48.7868 330.414 49.4768 330.414L92.4161 330.602C93.1088 330.606 93.7953 330.468 94.4363 330.195C95.0773 329.923 95.6601 329.522 96.1512 329.015C96.6423 328.508 97.0319 327.905 97.2979 327.242C97.5638 326.578 97.7006 325.867 97.7006 325.148Z" fill="#EBEBEB"/>
<path d="M48.1328 94.2809L56.4864 87.1685H183.788L190.353 94.865V203.671L181.227 211.179H55.415L48.1328 203.002V94.2809Z" fill="#F0F0F0"/>
<path d="M183.778 87.1685H172.102C173.468 87.1672 174.821 87.4453 176.083 87.9868C177.345 88.5283 178.493 89.3227 179.459 90.3244C180.425 91.3261 181.192 92.5156 181.715 93.8249C182.238 95.1342 182.507 96.5376 182.507 97.9549V200.383C182.507 203.245 181.412 205.989 179.463 208.014C177.513 210.038 174.869 211.177 172.111 211.179H183.778L190.352 203.643V94.865L183.778 87.1685Z" fill="#FAFAFA"/>
<path d="M180.239 84.4932H58.5034C55.0636 84.5006 51.767 85.9229 49.3364 88.4482C46.9058 90.9735 45.5395 94.3956 45.5371 97.9644V200.383C45.5395 203.949 46.9051 207.368 49.3343 209.89C51.7634 212.412 55.0577 213.831 58.4943 213.836H180.239C180.758 213.836 181.277 213.799 181.792 213.723C184.939 213.335 187.841 211.763 189.946 209.305C192.051 206.846 193.214 203.672 193.214 200.383V154.572V97.9644C193.207 94.3955 191.838 90.9748 189.406 88.4504C186.975 85.9259 183.679 84.5031 180.239 84.4932ZM188.075 166.828V200.383C188.071 202.401 187.345 204.344 186.038 205.838C184.731 207.331 182.936 208.268 181.002 208.466C180.766 208.466 180.502 208.466 180.248 208.466H58.5034C56.4281 208.461 54.4392 207.604 52.9709 206.083C51.5027 204.561 50.6745 202.499 50.6673 200.346V97.9644C50.6697 95.809 51.4961 93.7426 52.9651 92.2185C54.4341 90.6944 56.4258 89.837 58.5034 89.8346H180.248C182.323 89.842 184.311 90.7012 185.778 92.2245C187.244 93.7478 188.07 95.8114 188.075 97.9644V166.828Z" fill="#E0E0E0"/>
<path d="M64.922 116.447C64.922 116.447 111.539 123.861 111.23 111.115C110.921 98.3695 92.3708 98.963 88.0759 104.295C83.7811 109.627 77.7792 101.921 73.775 106.367C69.7707 110.814 63.7779 109.919 64.922 116.447Z" fill="white"/>
<path d="M140.095 152.245C140.095 152.245 170.34 157.049 170.132 148.788C169.923 140.526 157.901 140.903 155.113 144.36C152.326 147.817 148.439 142.825 145.843 145.707C143.246 148.59 139.359 148.025 140.095 152.245Z" fill="white"/>
<path d="M152.271 118.897C152.271 118.897 173.41 122.458 176.842 115.939C180.274 109.42 172.302 105.576 168.27 110.286C164.239 114.997 156.839 109.41 152.271 118.897Z" fill="white"/>
<path d="M91.9995 152.537V144.708H72.7499V152.537H66.748V208.598H98.0014V152.537H91.9995Z" fill="#E6E6E6"/>
<path d="M72.7582 154.619H68.7539V158.773H72.7582V154.619Z" fill="white"/>
<path d="M80.5023 154.619H76.498V158.773H80.5023V154.619Z" fill="white"/>
<path opacity="0.2" d="M88.2484 154.619H84.2441V158.773H88.2484V154.619Z" fill="white"/>
<path d="M96.0023 154.619H91.998V158.773H96.0023V154.619Z" fill="white"/>
<path opacity="0.2" d="M72.7582 162.155H68.7539V166.31H72.7582V162.155Z" fill="white"/>
<path d="M80.5023 162.155H76.498V166.31H80.5023V162.155Z" fill="white"/>
<path d="M88.2484 162.155H84.2441V166.31H88.2484V162.155Z" fill="white"/>
<path opacity="0.2" d="M96.0023 162.155H91.998V166.31H96.0023V162.155Z" fill="white"/>
<path d="M72.7582 169.701H68.7539V173.856H72.7582V169.701Z" fill="white"/>
<path opacity="0.2" d="M80.5023 169.701H76.498V173.856H80.5023V169.701Z" fill="white"/>
<path d="M88.2484 169.701H84.2441V173.856H88.2484V169.701Z" fill="white"/>
<path d="M80.5023 148.1H76.498V152.255H80.5023V148.1Z" fill="white"/>
<path d="M88.2484 148.1H84.2441V152.255H88.2484V148.1Z" fill="white"/>
<path d="M96.0023 169.701H91.998V173.856H96.0023V169.701Z" fill="white"/>
<path d="M72.7582 177.237H68.7539V181.392H72.7582V177.237Z" fill="white"/>
<path opacity="0.2" d="M80.5023 177.237H76.498V181.392H80.5023V177.237Z" fill="white"/>
<path d="M88.2484 177.237H84.2441V181.392H88.2484V177.237Z" fill="white"/>
<path d="M96.0023 177.237H91.998V181.392H96.0023V177.237Z" fill="white"/>
<path d="M72.7582 184.783H68.7539V188.938H72.7582V184.783Z" fill="white"/>
<path d="M80.5023 184.783H76.498V188.938H80.5023V184.783Z" fill="white"/>
<path opacity="0.2" d="M88.2484 184.783H84.2441V188.938H88.2484V184.783Z" fill="white"/>
<path d="M96.0023 184.783H91.998V188.938H96.0023V184.783Z" fill="white"/>
<path d="M72.7582 192.319H68.7539V196.474H72.7582V192.319Z" fill="white"/>
<path opacity="0.2" d="M80.5023 192.319H76.498V196.474H80.5023V192.319Z" fill="white"/>
<path d="M88.2484 192.319H84.2441V196.474H88.2484V192.319Z" fill="white"/>
<path opacity="0.2" d="M96.0023 192.319H91.998V196.474H96.0023V192.319Z" fill="white"/>
<path opacity="0.2" d="M72.7582 199.865H68.7539V204.02H72.7582V199.865Z" fill="white"/>
<path d="M80.5023 199.865H76.498V204.02H80.5023V199.865Z" fill="white"/>
<path d="M88.2484 199.865H84.2441V204.02H88.2484V199.865Z" fill="white"/>
<path d="M96.0023 199.865H91.998V204.02H96.0023V199.865Z" fill="white"/>
<path d="M171.985 178.114V173.846H161.516V178.114H158.256V208.598H175.254V178.114H171.985Z" fill="#E6E6E6"/>
<path d="M161.525 179.235H159.346V181.496H161.525V179.235Z" fill="white"/>
<path d="M165.738 179.235H163.559V181.496H165.738V179.235Z" fill="white"/>
<path d="M169.951 179.235H167.771V181.496H169.951V179.235Z" fill="white"/>
<path d="M174.164 179.235H171.984V181.496H174.164V179.235Z" fill="white"/>
<path d="M161.525 183.342H159.346V185.603H161.525V183.342Z" fill="white"/>
<path d="M165.738 183.342H163.559V185.603H165.738V183.342Z" fill="white"/>
<path d="M169.951 183.342H167.771V185.603H169.951V183.342Z" fill="white"/>
<path opacity="0.2" d="M174.164 183.342H171.984V185.603H174.164V183.342Z" fill="white"/>
<path d="M161.525 187.44H159.346V189.701H161.525V187.44Z" fill="white"/>
<path d="M165.738 187.44H163.559V189.701H165.738V187.44Z" fill="white"/>
<path d="M169.951 187.44H167.771V189.701H169.951V187.44Z" fill="white"/>
<path d="M165.738 175.692H163.559V177.953H165.738V175.692Z" fill="white"/>
<path opacity="0.2" d="M169.951 175.692H167.771V177.953H169.951V175.692Z" fill="white"/>
<path d="M174.164 187.44H171.984V189.701H174.164V187.44Z" fill="white"/>
<path d="M161.525 191.547H159.346V193.808H161.525V191.547Z" fill="white"/>
<path d="M165.738 191.547H163.559V193.808H165.738V191.547Z" fill="white"/>
<path opacity="0.2" d="M169.951 191.547H167.771V193.808H169.951V191.547Z" fill="white"/>
<path d="M174.164 191.547H171.984V193.808H174.164V191.547Z" fill="white"/>
<path d="M161.525 195.645H159.346V197.906H161.525V195.645Z" fill="white"/>
<path d="M165.738 195.645H163.559V197.906H165.738V195.645Z" fill="white"/>
<path d="M169.951 195.645H167.771V197.906H169.951V195.645Z" fill="white"/>
<path d="M174.164 195.645H171.984V197.906H174.164V195.645Z" fill="white"/>
<path d="M161.525 199.743H159.346V202.004H161.525V199.743Z" fill="white"/>
<path d="M165.738 199.743H163.559V202.004H165.738V199.743Z" fill="white"/>
<path d="M169.951 199.743H167.771V202.004H169.951V199.743Z" fill="white"/>
<path opacity="0.2" d="M174.164 199.743H171.984V202.004H174.164V199.743Z" fill="white"/>
<path d="M161.525 203.85H159.346V206.111H161.525V203.85Z" fill="white"/>
<path d="M165.738 203.85H163.559V206.111H165.738V203.85Z" fill="white"/>
<path d="M169.951 203.85H167.771V206.111H169.951V203.85Z" fill="white"/>
<path opacity="0.2" d="M174.164 203.85H171.984V206.111H174.164V203.85Z" fill="white"/>
<path d="M123.679 184.736H100.979V208.588H123.679V184.736Z" fill="#E6E6E6"/>
<path d="M105.337 186.243H102.432V189.258H105.337V186.243Z" fill="white"/>
<path d="M110.966 186.243H108.061V189.258H110.966V186.243Z" fill="white"/>
<path opacity="0.5" d="M116.597 186.243H113.691V189.258H116.597V186.243Z" fill="white"/>
<path d="M122.226 186.243H119.32V189.258H122.226V186.243Z" fill="white"/>
<path d="M105.337 191.726H102.432V194.741H105.337V191.726Z" fill="white"/>
<path opacity="0.5" d="M110.966 191.726H108.061V194.741H110.966V191.726Z" fill="white"/>
<path d="M116.597 191.726H113.691V194.741H116.597V191.726Z" fill="white"/>
<path opacity="0.5" d="M122.226 191.726H119.32V194.741H122.226V191.726Z" fill="white"/>
<path opacity="0.5" d="M105.337 197.209H102.432V200.223H105.337V197.209Z" fill="white"/>
<path d="M110.966 197.209H108.061V200.223H110.966V197.209Z" fill="white"/>
<path opacity="0.5" d="M116.597 197.209H113.691V200.223H116.597V197.209Z" fill="white"/>
<path d="M122.226 197.209H119.32V200.223H122.226V197.209Z" fill="white"/>
<path d="M105.337 202.682H102.432V205.697H105.337V202.682Z" fill="white"/>
<path opacity="0.5" d="M110.966 202.682H108.061V205.697H110.966V202.682Z" fill="white"/>
<path opacity="0.5" d="M116.597 202.682H113.691V205.697H116.597V202.682Z" fill="white"/>
<path d="M122.226 202.682H119.32V205.697H122.226V202.682Z" fill="white"/>
<path d="M399.765 76.2974H240.248C235.419 76.2974 231.504 80.359 231.504 85.3693V348.087C231.504 353.097 235.419 357.158 240.248 357.158H399.765C404.595 357.158 408.509 353.097 408.509 348.087V85.3693C408.509 80.359 404.595 76.2974 399.765 76.2974Z" fill="#F5F5F5"/>
<path d="M408.518 323.942H230.75V342.981H408.518V323.942Z" fill="#E6E6E6"/>
<path d="M324.338 76.2974H316.221V356.848H324.338V76.2974Z" fill="#E0E0E0"/>
<path d="M294.592 87.7244H254.876C253.666 87.7231 252.467 87.9696 251.348 88.4497C250.229 88.9298 249.213 89.634 248.357 90.5222C247.501 91.4103 246.822 92.4649 246.359 93.6255C245.897 94.7862 245.659 96.0301 245.66 97.2861V196.041C245.659 197.297 245.896 198.541 246.359 199.703C246.822 200.864 247.5 201.919 248.356 202.808C249.212 203.697 250.229 204.402 251.347 204.883C252.466 205.364 253.665 205.612 254.876 205.612H294.592C297.037 205.609 299.382 204.6 301.11 202.805C302.838 201.01 303.808 198.577 303.808 196.041V97.2861C303.808 94.7502 302.837 92.3181 301.109 90.5249C299.381 88.7318 297.037 87.7244 294.592 87.7244ZM297.906 193.638C297.906 194.55 297.733 195.453 297.397 196.295C297.061 197.138 296.568 197.903 295.946 198.548C295.325 199.192 294.587 199.704 293.775 200.053C292.964 200.402 292.093 200.581 291.215 200.581H257.936C257.058 200.581 256.188 200.402 255.377 200.053C254.565 199.704 253.828 199.192 253.208 198.547C252.587 197.902 252.095 197.137 251.76 196.295C251.424 195.452 251.252 194.55 251.253 193.638V99.8956C251.253 98.0567 251.958 96.2932 253.211 94.9929C254.464 93.6926 256.164 92.9621 257.936 92.9621H291.215C292.988 92.9621 294.689 93.6923 295.943 94.9923C297.198 96.2923 297.904 98.0558 297.906 99.8956V193.638Z" fill="#E0E0E0"/>
<path d="M297.905 99.8956V193.638C297.905 194.55 297.732 195.453 297.396 196.295C297.059 197.138 296.566 197.903 295.945 198.548C295.324 199.192 294.586 199.704 293.774 200.053C292.962 200.402 292.092 200.581 291.213 200.581H257.935C257.056 200.581 256.187 200.402 255.375 200.053C254.564 199.704 253.827 199.192 253.206 198.547C252.585 197.902 252.093 197.137 251.758 196.295C251.423 195.452 251.251 194.55 251.252 193.638V99.8956C251.252 98.0567 251.956 96.2932 253.209 94.9929C254.463 93.6926 256.162 92.9622 257.935 92.9622H291.213C292.986 92.9622 294.687 93.6923 295.942 94.9923C297.197 96.2924 297.903 98.0559 297.905 99.8956Z" fill="#F0F0F0"/>
<path d="M291.286 166.074H258.189V200.864H291.286V166.074Z" fill="#E6E6E6"/>
<path d="M264.545 168.269H260.305V172.668H264.545V168.269Z" fill="white"/>
<path d="M272.754 168.269H268.514V172.668H272.754V168.269Z" fill="white"/>
<path opacity="0.5" d="M280.963 168.269H276.723V172.668H280.963V168.269Z" fill="white"/>
<path d="M289.17 168.269H284.93V172.668H289.17V168.269Z" fill="white"/>
<path d="M264.545 176.258H260.305V180.657H264.545V176.258Z" fill="white"/>
<path opacity="0.5" d="M272.754 176.258H268.514V180.657H272.754V176.258Z" fill="white"/>
<path d="M280.963 176.258H276.723V180.657H280.963V176.258Z" fill="white"/>
<path opacity="0.5" d="M289.17 176.258H284.93V180.657H289.17V176.258Z" fill="white"/>
<path opacity="0.5" d="M264.545 184.246H260.305V188.645H264.545V184.246Z" fill="white"/>
<path d="M272.754 184.246H268.514V188.645H272.754V184.246Z" fill="white"/>
<path opacity="0.5" d="M280.963 184.246H276.723V188.645H280.963V184.246Z" fill="white"/>
<path d="M289.17 184.246H284.93V188.645H289.17V184.246Z" fill="white"/>
<path d="M264.545 192.235H260.305V196.634H264.545V192.235Z" fill="white"/>
<path opacity="0.5" d="M272.754 192.235H268.514V196.634H272.754V192.235Z" fill="white"/>
<path opacity="0.5" d="M280.963 192.235H276.723V196.634H280.963V192.235Z" fill="white"/>
<path d="M289.17 192.235H284.93V196.634H289.17V192.235Z" fill="white"/>
<path d="M386.444 87.7244H346.728C345.517 87.7231 344.318 87.9696 343.2 88.4497C342.081 88.9298 341.064 89.634 340.208 90.5222C339.352 91.4103 338.674 92.4649 338.211 93.6255C337.748 94.7862 337.511 96.0301 337.512 97.2861V196.041C337.511 197.297 337.748 198.541 338.211 199.703C338.673 200.864 339.352 201.919 340.208 202.808C341.064 203.697 342.08 204.402 343.199 204.883C344.318 205.364 345.517 205.612 346.728 205.612H386.444C388.889 205.609 391.233 204.6 392.961 202.805C394.689 201.01 395.66 198.577 395.66 196.041V97.2861C395.66 94.7502 394.689 92.3181 392.961 90.5249C391.232 88.7318 388.888 87.7244 386.444 87.7244ZM389.758 193.638C389.758 194.55 389.585 195.453 389.249 196.295C388.912 197.138 388.419 197.903 387.798 198.548C387.177 199.192 386.439 199.704 385.627 200.053C384.815 200.402 383.945 200.581 383.066 200.581H349.788C348.91 200.581 348.04 200.402 347.228 200.053C346.417 199.704 345.68 199.192 345.059 198.547C344.438 197.902 343.946 197.137 343.611 196.295C343.276 195.452 343.104 194.55 343.105 193.638V99.8956C343.105 98.0567 343.809 96.2932 345.062 94.9929C346.316 93.6926 348.015 92.9621 349.788 92.9621H383.066C384.839 92.9621 386.54 93.6923 387.795 94.9923C389.05 96.2923 389.756 98.0558 389.758 99.8956V193.638Z" fill="#E0E0E0"/>
<path d="M389.759 99.8956V193.638C389.759 194.55 389.585 195.453 389.249 196.295C388.913 197.138 388.42 197.903 387.798 198.548C387.177 199.192 386.439 199.704 385.627 200.053C384.816 200.402 383.945 200.581 383.067 200.581H349.788C348.91 200.581 348.04 200.402 347.229 200.053C346.417 199.704 345.68 199.192 345.06 198.547C344.439 197.902 343.947 197.137 343.612 196.295C343.276 195.452 343.104 194.55 343.105 193.638V99.8956C343.105 98.0567 343.81 96.2932 345.063 94.9929C346.316 93.6926 348.016 92.9622 349.788 92.9622H383.067C384.84 92.9622 386.541 93.6923 387.795 94.9923C389.05 96.2924 389.756 98.0559 389.759 99.8956Z" fill="#F0F0F0"/>
<path d="M374.341 147.083V200.581H349.825C348.947 200.581 348.077 200.402 347.266 200.053C346.455 199.704 345.717 199.192 345.097 198.547C344.476 197.903 343.984 197.137 343.649 196.295C343.313 195.453 343.141 194.55 343.143 193.639V147.083H349.135V139.254H368.376V147.083H374.341Z" fill="#E6E6E6"/>
<path d="M349.098 149.165H345.094V153.319H349.098V149.165Z" fill="white"/>
<path d="M356.844 149.165H352.84V153.319H356.844V149.165Z" fill="white"/>
<path opacity="0.2" d="M364.588 149.165H360.584V153.319H364.588V149.165Z" fill="white"/>
<path d="M372.344 149.165H368.34V153.319H372.344V149.165Z" fill="white"/>
<path opacity="0.2" d="M349.098 156.701H345.094V160.855H349.098V156.701Z" fill="white"/>
<path d="M356.844 156.701H352.84V160.855H356.844V156.701Z" fill="white"/>
<path d="M364.588 156.701H360.584V160.855H364.588V156.701Z" fill="white"/>
<path opacity="0.2" d="M372.344 156.701H368.34V160.855H372.344V156.701Z" fill="white"/>
<path d="M349.098 164.247H345.094V168.401H349.098V164.247Z" fill="white"/>
<path opacity="0.2" d="M356.844 164.247H352.84V168.401H356.844V164.247Z" fill="white"/>
<path d="M364.588 164.247H360.584V168.401H364.588V164.247Z" fill="white"/>
<path d="M356.844 142.646H352.84V146.8H356.844V142.646Z" fill="white"/>
<path d="M364.588 142.646H360.584V146.8H364.588V142.646Z" fill="white"/>
<path d="M372.344 164.247H368.34V168.401H372.344V164.247Z" fill="white"/>
<path d="M349.098 171.783H345.094V175.937H349.098V171.783Z" fill="white"/>
<path opacity="0.2" d="M356.844 171.783H352.84V175.937H356.844V171.783Z" fill="white"/>
<path d="M364.588 171.783H360.584V175.937H364.588V171.783Z" fill="white"/>
<path d="M372.344 171.783H368.34V175.937H372.344V171.783Z" fill="white"/>
<path d="M349.098 179.329H345.094V183.483H349.098V179.329Z" fill="white"/>
<path d="M356.844 179.329H352.84V183.483H356.844V179.329Z" fill="white"/>
<path opacity="0.2" d="M364.588 179.329H360.584V183.483H364.588V179.329Z" fill="white"/>
<path d="M372.344 179.329H368.34V183.483H372.344V179.329Z" fill="white"/>
<path d="M349.098 186.865H345.094V191.019H349.098V186.865Z" fill="white"/>
<path opacity="0.2" d="M356.844 186.865H352.84V191.019H356.844V186.865Z" fill="white"/>
<path d="M364.588 186.865H360.584V191.019H364.588V186.865Z" fill="white"/>
<path opacity="0.2" d="M372.344 186.865H368.34V191.019H372.344V186.865Z" fill="white"/>
<path opacity="0.2" d="M349.098 194.411H345.094V198.565H349.098V194.411Z" fill="white"/>
<path d="M356.844 194.411H352.84V198.565H356.844V194.411Z" fill="white"/>
<path d="M364.588 194.411H360.584V198.565H364.588V194.411Z" fill="white"/>
<path d="M372.344 194.411H368.34V198.565H372.344V194.411Z" fill="white"/>
<path d="M357.362 120.536C357.362 120.536 387.599 125.34 387.399 117.069C387.199 108.798 375.168 109.193 372.381 112.651C369.593 116.108 365.707 111.115 363.11 113.998C360.513 116.881 356.627 116.306 357.362 120.536Z" fill="white"/>
<path d="M408.509 372.203H378.436V372.438H408.509V372.203Z" fill="#EBEBEB"/>
<path d="M300.748 374.765H292.857V375H300.748V374.765Z" fill="#EBEBEB"/>
<path d="M377.528 363.461H360.104V363.696H377.528V363.461Z" fill="#EBEBEB"/>
<path d="M86.8493 365.043H47.6328V365.278H86.8493V365.043Z" fill="#EBEBEB"/>
<path d="M100.689 365.043H94.9414V365.278H100.689V365.043Z" fill="#EBEBEB"/>
<path d="M204.436 369.019H119.375V369.254H204.436V369.019Z" fill="#EBEBEB"/>
<path d="M216.467 315.03H41.1319C39.7569 315.03 38.4381 314.463 37.4658 313.455C36.4935 312.446 35.9473 311.078 35.9473 309.651V53.9521C35.9592 52.5336 36.5108 51.1775 37.4818 50.1789C38.4528 49.1803 39.7647 48.6201 41.1319 48.6201H216.467C217.148 48.6201 217.822 48.7592 218.451 49.0296C219.08 49.2999 219.651 49.6961 220.133 50.1956C220.614 50.6951 220.996 51.2881 221.257 51.9407C221.517 52.5933 221.651 53.2928 221.651 53.9992V309.651C221.651 310.357 221.517 311.057 221.257 311.71C220.996 312.362 220.614 312.955 220.133 313.455C219.651 313.954 219.08 314.35 218.451 314.621C217.822 314.891 217.148 315.03 216.467 315.03ZM41.1319 48.8085C39.8178 48.811 38.5582 49.3537 37.629 50.3178C36.6998 51.2819 36.1767 52.5887 36.1743 53.9521V309.651C36.1767 311.014 36.6998 312.321 37.629 313.285C38.5582 314.249 39.8178 314.792 41.1319 314.795H216.467C217.781 314.792 219.04 314.249 219.97 313.285C220.899 312.321 221.422 311.014 221.424 309.651V53.9521C221.422 52.5887 220.899 51.2819 219.97 50.3178C219.04 49.3537 217.781 48.811 216.467 48.8085H41.1319Z" fill="#EBEBEB"/>
<path d="M412.867 315.03H237.532C236.157 315.03 234.839 314.463 233.866 313.455C232.894 312.446 232.348 311.078 232.348 309.651V53.9521C232.36 52.5336 232.911 51.1775 233.882 50.1789C234.853 49.1803 236.165 48.6201 237.532 48.6201H412.867C414.242 48.6201 415.561 49.1868 416.533 50.1956C417.506 51.2044 418.052 52.5726 418.052 53.9992V309.651C418.052 311.078 417.506 312.446 416.533 313.455C415.561 314.463 414.242 315.03 412.867 315.03ZM237.532 48.8085C236.218 48.811 234.959 49.3537 234.029 50.3178C233.1 51.2819 232.577 52.5887 232.575 53.9521V309.651C232.577 311.014 233.1 312.321 234.029 313.285C234.959 314.249 236.218 314.792 237.532 314.795H412.867C414.181 314.792 415.441 314.249 416.37 313.285C417.299 312.321 417.822 311.014 417.825 309.651V53.9521C417.822 52.5887 417.299 51.2819 416.37 50.3178C415.441 49.3537 414.181 48.811 412.867 48.8085H237.532Z" fill="#EBEBEB"/>
<path d="M454 357.045H0V357.28H454V357.045Z" fill="#EBEBEB"/>
<path d="M226.999 374.56C324.23 374.56 403.052 370.079 403.052 364.553C403.052 359.026 324.23 354.546 226.999 354.546C129.768 354.546 50.9473 359.026 50.9473 364.553C50.9473 370.079 129.768 374.56 226.999 374.56Z" fill="#F5F5F5"/>
<path d="M335.96 82.5657H261.767C259.895 82.5703 258.101 83.2964 256.777 84.5852C255.454 85.874 254.708 87.6206 254.703 89.4432V127.57C254.71 129.39 255.456 131.133 256.777 132.419C258.099 133.706 259.889 134.432 261.758 134.439H264.482L261.894 139.539C260.678 142.412 262.24 141.431 267.442 139.752L283.251 134.448H335.915C337.782 134.443 339.571 133.719 340.892 132.433C342.212 131.148 342.956 129.406 342.961 127.588V89.4344C342.956 87.6232 342.219 85.8868 340.908 84.6012C339.598 83.3156 337.82 82.5843 335.96 82.5657Z" fill="#67E8F9"/>
<g opacity="0.6">
<path d="M335.96 82.5657H261.767C259.895 82.5703 258.101 83.2964 256.777 84.5852C255.454 85.874 254.708 87.6206 254.703 89.4432V127.57C254.71 129.39 255.456 131.133 256.777 132.419C258.099 133.706 259.889 134.432 261.758 134.439H264.482L261.894 139.539C260.678 142.412 262.24 141.431 267.442 139.752L283.251 134.448H335.915C337.782 134.443 339.571 133.719 340.892 132.433C342.212 131.148 342.956 129.406 342.961 127.588V89.4344C342.956 87.6232 342.219 85.8868 340.908 84.6012C339.598 83.3156 337.82 82.5843 335.96 82.5657Z" fill="white"/>
</g>
<path d="M278.829 106.327V118.703H275.869L270.257 112.118V118.703H266.734V106.327H269.676L275.288 112.922V106.327H278.829Z" fill="#164E63"/>
<path d="M291.567 115.998V118.695H281.361V106.319H291.349V109.024H284.939V111.11H290.559V113.762H284.912V116.025L291.567 115.998Z" fill="#164E63"/>
<path d="M313.304 106.327L309.182 118.703H305.341L302.908 111.181L300.365 118.703H296.516L292.402 106.327H296.098L298.658 114.23L301.382 106.327H304.688L307.248 114.283L309.909 106.327H313.304Z" fill="#164E63"/>
<path d="M313.705 117.572L314.885 115C316.14 115.777 317.593 116.2 319.08 116.22C320.56 116.22 321.142 115.813 321.142 115.212C321.142 113.249 313.923 114.681 313.923 110.085C313.923 107.875 315.739 106.071 319.553 106.071C321.156 106.047 322.74 106.418 324.156 107.15L323.048 109.749C321.976 109.154 320.769 108.826 319.534 108.794C318.027 108.794 317.482 109.289 317.482 109.908C317.482 111.8 324.683 110.385 324.683 114.947C324.683 117.095 322.867 118.933 319.062 118.933C317.18 118.98 315.323 118.508 313.705 117.572Z" fill="#164E63"/>
<path d="M272.908 101.748V102.782H266.742V94.5081H272.735V95.5335H267.959V98.1236H272.217V99.1225H267.959V101.775L272.908 101.748Z" fill="#164E63"/>
<path d="M280.118 102.782L277.566 99.3612L275.051 102.782H273.662L276.849 98.5391L273.853 94.5081H275.233L277.612 97.6816L279.973 94.5081H281.289L278.293 98.5037L281.507 102.782H280.118Z" fill="#164E63"/>
<path d="M281.944 98.6455C281.937 98.0716 282.051 97.5025 282.279 96.9733C282.507 96.4441 282.844 95.9662 283.27 95.5692C283.696 95.1722 284.2 94.8645 284.753 94.6653C285.306 94.4661 285.895 94.3796 286.484 94.4111C287.086 94.3886 287.686 94.4922 288.244 94.7148C288.801 94.9375 289.304 95.274 289.716 95.7017L288.926 96.4443C288.623 96.1248 288.253 95.872 287.841 95.7027C287.429 95.5335 286.985 95.4518 286.538 95.4631C286.095 95.4403 285.652 95.5056 285.235 95.6551C284.819 95.8045 284.438 96.0349 284.116 96.3322C283.794 96.6296 283.538 96.9876 283.363 97.3846C283.187 97.7815 283.097 98.209 283.097 98.641C283.097 99.0731 283.187 99.5006 283.363 99.8975C283.538 100.294 283.794 100.653 284.116 100.95C284.438 101.247 284.819 101.478 285.235 101.627C285.652 101.776 286.095 101.842 286.538 101.819C286.986 101.829 287.43 101.745 287.842 101.575C288.254 101.404 288.623 101.15 288.926 100.829L289.716 101.572C289.304 102.003 288.801 102.342 288.241 102.567C287.682 102.791 287.079 102.895 286.475 102.871C285.887 102.903 285.299 102.816 284.748 102.617C284.196 102.419 283.692 102.112 283.267 101.716C282.842 101.319 282.506 100.842 282.278 100.314C282.05 99.7862 281.937 99.2182 281.944 98.6455Z" fill="#164E63"/>
<path d="M291.414 94.5081H292.631V102.782H291.414V94.5081Z" fill="#164E63"/>
<path d="M296.862 95.5335H293.947V94.5081H300.975V95.5335H298.061V102.782H296.862V95.5335Z" fill="#164E63"/>
<path d="M302.301 94.5081H303.517V102.782H302.301V94.5081Z" fill="#164E63"/>
<path d="M313.369 94.5081V102.782H312.352L307.258 96.5943V102.782H306.041V94.5081H307.04L312.134 100.696V94.5081H313.369Z" fill="#164E63"/>
<path d="M321.803 98.5925H322.965V101.819C322.052 102.523 320.916 102.895 319.751 102.871C319.164 102.897 318.577 102.807 318.027 102.606C317.476 102.406 316.973 102.098 316.548 101.703C316.123 101.308 315.785 100.832 315.553 100.306C315.322 99.7799 315.203 99.2134 315.203 98.6411C315.203 98.0687 315.322 97.5023 315.553 96.9761C315.785 96.4499 316.123 95.9747 316.548 95.5793C316.973 95.184 317.476 94.8766 318.027 94.6758C318.577 94.475 319.164 94.385 319.751 94.4112C320.357 94.386 320.961 94.4874 321.524 94.7085C322.086 94.9296 322.593 95.2652 323.011 95.693L322.257 96.4178C321.934 96.1059 321.549 95.8606 321.127 95.6966C320.704 95.5325 320.252 95.4531 319.797 95.4631C319.353 95.4404 318.91 95.5057 318.494 95.6551C318.077 95.8045 317.697 96.0349 317.375 96.3323C317.053 96.6296 316.796 96.9877 316.621 97.3846C316.446 97.7815 316.355 98.2091 316.355 98.6411C316.355 99.0731 316.446 99.5006 316.621 99.8976C316.796 100.295 317.053 100.653 317.375 100.95C317.697 101.247 318.077 101.478 318.494 101.627C318.91 101.777 319.353 101.842 319.797 101.819C320.498 101.833 321.189 101.649 321.785 101.289L321.803 98.5925Z" fill="#164E63"/>
<path d="M327.017 116.299C327.064 116.013 327.169 115.739 327.328 115.494C327.486 115.249 327.693 115.037 327.937 114.872C328.182 114.707 328.458 114.592 328.749 114.533C329.04 114.474 329.34 114.474 329.632 114.531C330.212 114.623 330.731 114.937 331.074 115.402C331.417 115.867 331.557 116.445 331.462 117.01C331.367 117.575 331.045 118.081 330.567 118.415C330.089 118.749 329.495 118.884 328.915 118.792C328.62 118.753 328.337 118.657 328.081 118.51C327.825 118.363 327.603 118.167 327.426 117.935C327.249 117.703 327.121 117.438 327.051 117.157C326.981 116.876 326.969 116.584 327.017 116.299ZM330.885 94.9856L334.753 95.5956L331.421 111.428L328.824 111.021L330.885 94.9856Z" fill="#164E63"/>
<path d="M331.992 122.982H265.59V125.475H331.992V122.982Z" fill="#67E8F9"/>
<path d="M251.198 139.044C250.199 133.678 245.059 117.21 245.059 117.21C245.059 117.21 241.872 116.449 241.01 117.492L242.771 142.324L251.198 139.044Z" fill="#CE7A63"/>
<path d="M238.575 111.534L246.693 111.782C246.747 112.312 246.502 114.336 245.086 117.598L241 117.457L238.575 112.056L238.484 111.808L238.575 111.534Z" fill="#CE7A63"/>
<path d="M244.296 106.442L240.346 106.663C239.924 106.685 239.524 106.857 239.224 107.147C238.924 107.438 238.745 107.826 238.721 108.237L238.494 111.844L246.666 111.782L246.067 107.848C245.997 107.445 245.779 107.08 245.453 106.821C245.127 106.563 244.716 106.428 244.296 106.442Z" fill="#CE7A63"/>
<path d="M233.828 145.418L242.699 140.37L250.871 137.329L251.207 139.044C251.544 140.758 251.369 142.531 250.703 144.151C250.037 145.771 248.907 147.171 247.448 148.185L236.607 155.708L233.828 145.418Z" fill="#CE7A63"/>
<path d="M225.119 158.74C231.375 160.004 244.251 153.816 244.251 153.816L242.226 140.688C236.587 142.996 229.923 143.447 224.593 146.373C219.817 149.095 218.3 157.352 225.119 158.74Z" fill="#67E8F9"/>
<path opacity="0.4" d="M225.119 158.74C231.375 160.004 244.251 153.816 244.251 153.816L242.226 140.688C236.587 142.996 229.923 143.447 224.593 146.373C219.817 149.095 218.3 157.352 225.119 158.74Z" fill="black"/>
<path d="M194.129 144.401C193.119 144.478 192.181 144.942 191.523 145.691C190.864 146.44 190.537 147.414 190.615 148.397C190.615 148.397 190.615 148.468 190.615 148.503C190.615 148.538 188.853 175.757 188.445 180.106C187.537 190.307 185.721 201.074 185.721 203.735H222.104C229.731 176.871 229.731 159.058 228.415 151.641C228.216 150.485 227.684 149.407 226.88 148.534C226.076 147.66 225.034 147.027 223.875 146.708C222.54 146.355 220.942 145.957 219.244 145.612C218.645 145.533 218.046 145.391 217.428 145.294C212.397 144.637 207.331 144.262 202.255 144.171C201.293 144.171 200.321 144.171 199.368 144.171C197.461 144.189 195.636 144.295 194.129 144.401Z" fill="#67E8F9"/>
<path opacity="0.4" d="M194.129 144.401C193.119 144.478 192.181 144.942 191.523 145.691C190.864 146.44 190.537 147.414 190.615 148.397C190.615 148.397 190.615 148.468 190.615 148.503C190.615 148.538 188.853 175.757 188.445 180.106C187.537 190.307 185.721 201.074 185.721 203.735H222.104C229.731 176.871 229.731 159.058 228.415 151.641C228.216 150.485 227.684 149.407 226.88 148.534C226.076 147.66 225.034 147.027 223.875 146.708C222.54 146.355 220.942 145.957 219.244 145.612C218.645 145.533 218.046 145.391 217.428 145.294C212.397 144.637 207.331 144.262 202.255 144.171C201.293 144.171 200.321 144.171 199.368 144.171C197.461 144.189 195.636 144.295 194.129 144.401Z" fill="black"/>
<path d="M214.904 360.274H222.64L222.967 342.851H215.231L214.904 360.274Z" fill="#CE7A63"/>
<path d="M222.568 359.408H214.106C213.955 359.407 213.809 359.458 213.692 359.552C213.576 359.646 213.498 359.776 213.47 359.92L212.108 366.586C212.052 366.878 212.115 367.181 212.285 367.429C212.454 367.677 212.717 367.85 213.016 367.912H213.234C216.276 367.85 220.68 367.682 224.511 367.682C228.988 367.682 229.351 367.921 234.59 367.921C237.768 367.921 238.567 364.8 237.232 364.517C231.158 363.227 229.714 363.085 224.42 359.938C223.862 359.605 223.223 359.422 222.568 359.408Z" fill="#164E63"/>
<path opacity="0.2" d="M222.968 342.859L222.805 351.841H215.068L215.232 342.859H222.968Z" fill="black"/>
<path d="M223.593 359.16C223.564 359.155 223.537 359.144 223.513 359.127C223.49 359.11 223.471 359.088 223.457 359.063C223.44 359.021 223.439 358.975 223.454 358.933C223.469 358.891 223.499 358.855 223.539 358.833C223.884 358.656 226.917 357.136 227.843 357.649C227.931 357.693 228.005 357.758 228.059 357.839C228.113 357.919 228.145 358.012 228.151 358.108C228.184 358.27 228.171 358.437 228.115 358.592C228.06 358.747 227.962 358.886 227.834 358.992C227.301 359.345 226.659 359.507 226.018 359.452C225.202 359.427 224.39 359.33 223.593 359.16ZM224.156 358.904C225.845 359.187 227.098 359.116 227.552 358.709C227.633 358.638 227.693 358.548 227.728 358.447C227.763 358.347 227.771 358.239 227.752 358.135C227.752 358.097 227.742 358.06 227.723 358.028C227.704 357.995 227.676 357.968 227.643 357.949C227.533 357.907 227.416 357.886 227.298 357.887C226.198 358.047 225.135 358.391 224.156 358.904Z" fill="#67E8F9"/>
<path d="M223.485 359.151C223.439 359.107 223.413 359.047 223.412 358.983C223.412 358.904 223.594 356.906 224.52 356.128C224.655 356.015 224.813 355.931 224.983 355.879C225.153 355.827 225.332 355.81 225.51 355.828C226.009 355.881 226.2 356.128 226.2 356.323C226.354 357.162 224.593 358.762 223.675 359.169H223.594L223.485 359.151ZM224.765 356.411C224.224 357.063 223.907 357.864 223.857 358.701C224.765 358.144 225.982 356.933 225.891 356.393C225.891 356.349 225.891 356.19 225.528 356.19H225.419C225.179 356.177 224.944 356.256 224.765 356.411Z" fill="#67E8F9"/>
<path d="M222.939 200.739L226.19 291.543L225.727 345.414C225.752 346.117 225.495 346.802 225.01 347.323C224.525 347.845 223.851 348.162 223.13 348.208H213.932C213.246 348.174 212.598 347.89 212.118 347.411C211.638 346.933 211.362 346.295 211.344 345.626C210.246 333.542 205.896 314.377 207.812 291.791C207.812 291.791 199.931 237.363 199.531 219.303L201.02 200.739H222.939Z" fill="#67E8F9"/>
<path opacity="0.2" d="M205.37 223.563C205.37 223.563 206.396 238.459 203.817 262.672C203.817 262.672 201.575 244.868 200.34 235.126L205.37 223.563Z" fill="black"/>
<path d="M158.373 354.387L165.755 356.632L171.403 340.092L164.021 337.856L158.373 354.387Z" fill="#CE7A63"/>
<path d="M165.945 355.784L157.873 353.326C157.729 353.284 157.574 353.292 157.435 353.349C157.296 353.405 157.182 353.506 157.11 353.635L153.76 359.602C153.618 359.869 153.588 360.18 153.678 360.467C153.768 360.755 153.97 360.996 154.241 361.141C154.307 361.176 154.377 361.203 154.45 361.22C157.365 362.051 161.623 363.165 165.282 364.279C169.55 365.569 169.822 365.905 174.835 367.426C177.858 368.31 179.583 365.605 178.394 364.942C172.946 361.954 171.657 361.406 167.561 356.862C167.132 356.367 166.574 355.995 165.945 355.784Z" fill="#164E63"/>
<path opacity="0.2" d="M171.401 340.101L168.114 349.71L160.732 347.465L164.019 337.856L171.401 340.101Z" fill="black"/>
<path d="M167.007 355.845C166.98 355.833 166.956 355.815 166.939 355.792C166.921 355.768 166.91 355.741 166.907 355.713C166.903 355.691 166.904 355.668 166.909 355.646C166.914 355.624 166.924 355.604 166.937 355.586C166.951 355.568 166.968 355.552 166.988 355.541C167.007 355.529 167.029 355.521 167.052 355.518C167.433 355.448 170.793 354.882 171.519 355.642C171.59 355.71 171.642 355.794 171.669 355.887C171.696 355.98 171.698 356.079 171.674 356.172C171.65 356.329 171.586 356.478 171.488 356.605C171.389 356.732 171.26 356.832 171.111 356.897C170.482 357.074 169.811 357.039 169.204 356.8C168.444 356.546 167.709 356.226 167.007 355.845ZM167.615 355.766C169.15 356.526 170.339 356.818 170.92 356.561C171.018 356.517 171.103 356.449 171.166 356.364C171.23 356.279 171.27 356.18 171.283 356.075C171.302 356.043 171.313 356.006 171.313 355.969C171.313 355.932 171.302 355.895 171.283 355.863C171.191 355.793 171.086 355.739 170.975 355.704C169.859 355.538 168.723 355.559 167.615 355.766Z" fill="#67E8F9"/>
<path d="M166.908 355.801C166.895 355.773 166.889 355.743 166.889 355.713C166.889 355.682 166.895 355.652 166.908 355.624C166.908 355.554 167.726 353.697 168.843 353.22C169.007 353.148 169.185 353.111 169.365 353.111C169.545 353.111 169.723 353.148 169.887 353.22C170.35 353.405 170.45 353.697 170.386 353.883C170.277 354.767 168.107 355.748 167.099 355.863H167.036C166.987 355.857 166.943 355.835 166.908 355.801ZM168.961 353.556C168.244 354.022 167.693 354.692 167.381 355.474C168.434 355.218 169.968 354.36 170.032 353.865C170.032 353.821 170.032 353.662 169.741 353.573H169.642C169.42 353.496 169.175 353.505 168.961 353.6V353.556Z" fill="#67E8F9"/>
<path d="M211.926 200.836L192.495 293.921L173.763 346.404C173.67 346.719 173.511 347.012 173.297 347.264C173.083 347.517 172.818 347.723 172.518 347.872C172.218 348.02 171.89 348.107 171.555 348.127C171.219 348.146 170.883 348.099 170.567 347.987L160.969 344.557C160.344 344.271 159.842 343.781 159.55 343.172C159.258 342.563 159.195 341.874 159.371 341.224C162.095 329.732 164.429 310.602 173.418 290.836C173.418 290.836 178.784 231.219 185.994 200.668L211.926 200.836Z" fill="#67E8F9"/>
<path d="M206.897 182.528C206.897 182.528 193.649 191.563 187.466 185.737L186.984 190.272C186.984 190.272 193.34 196.018 210.465 185.295L206.897 182.528Z" fill="#164E63"/>
<g opacity="0.1">
<path d="M206.897 182.528C206.897 182.528 193.649 191.563 187.466 185.737L186.984 190.272C186.984 190.272 193.34 196.018 210.465 185.295L206.897 182.528Z" fill="white"/>
</g>
<path d="M220.145 145.657C220.145 145.657 222.869 149.396 220.145 155.549L223.432 157.317C224.953 154.278 225.4 150.834 224.703 147.522C224.65 147.226 224.508 146.951 224.295 146.734C224.081 146.517 223.806 146.366 223.504 146.302L220.145 145.657Z" fill="#164E63"/>
<path opacity="0.1" d="M220.145 145.657C220.145 145.657 222.869 149.396 220.145 155.549L223.432 157.317C224.953 154.278 225.4 150.834 224.703 147.522C224.65 147.226 224.508 146.951 224.295 146.734C224.081 146.517 223.806 146.366 223.504 146.302L220.145 145.657Z" fill="white"/>
<path d="M207.023 183.872C206.666 183.646 206.372 183.337 206.167 182.972C205.963 182.608 205.855 182.201 205.852 181.786C205.852 178.745 206.197 171.178 210.328 164.99C212.689 161.275 215.547 157.883 218.827 154.903C219.109 154.665 219.446 154.496 219.81 154.411C220.174 154.327 220.553 154.329 220.915 154.417L222.731 154.85C223.153 154.951 223.533 155.174 223.822 155.49C224.11 155.805 224.294 156.199 224.348 156.618C224.774 159.509 225.473 166.404 223.803 172.963C222.132 179.523 215.322 184.12 212.389 185.781C211.994 186.004 211.543 186.116 211.086 186.106C210.63 186.095 210.185 185.961 209.801 185.72L207.023 183.872Z" fill="#164E63"/>
<path d="M220.116 158.607L222.54 159.721C223.052 159.956 223.482 160.333 223.774 160.805C224.067 161.277 224.209 161.822 224.184 162.373C224.015 166.152 223.179 169.875 221.714 173.379C220.484 176.053 218.75 178.479 216.602 180.53C216.156 180.955 215.58 181.228 214.961 181.308C214.343 181.387 213.714 181.27 213.17 180.972L210.709 179.62L220.116 158.607Z" fill="#164E63"/>
<path opacity="0.2" d="M220.116 158.607L222.54 159.721C223.052 159.956 223.482 160.333 223.774 160.805C224.067 161.277 224.209 161.822 224.184 162.373C224.015 166.152 223.179 169.875 221.714 173.379C220.484 176.053 218.75 178.479 216.602 180.53C216.156 180.955 215.58 181.228 214.961 181.308C214.343 181.387 213.714 181.27 213.17 180.972L210.709 179.62L220.116 158.607Z" fill="white"/>
<path d="M207.986 179.089C207.986 179.089 215.205 166.811 218.955 157.21L221.307 158.368L219.345 169.86C219.193 170.751 218.791 171.583 218.183 172.265L210.856 180.477L207.986 179.089Z" fill="#164E63"/>
<path opacity="0.1" d="M207.986 179.089C207.986 179.089 215.205 166.811 218.955 157.21L221.307 158.368L219.345 169.86C219.193 170.751 218.791 171.583 218.183 172.265L210.856 180.477L207.986 179.089Z" fill="white"/>
<path d="M218.273 170.046C218.263 170.225 218.182 170.393 218.046 170.514C217.91 170.635 217.73 170.699 217.546 170.691C217.376 170.667 217.22 170.582 217.11 170.453C217 170.323 216.943 170.159 216.95 169.991C216.957 169.824 217.027 169.664 217.147 169.544C217.267 169.423 217.429 169.35 217.601 169.339C217.786 169.348 217.959 169.427 218.085 169.559C218.21 169.691 218.278 169.866 218.273 170.046Z" fill="#164E63"/>
<path d="M204.99 127.641C205.589 132.458 205.898 141.228 202.266 144.163C209.657 150.669 210.002 153.834 215.032 153.595C217.402 153.347 217.756 146.7 216.966 145.082C212.217 143.588 212.517 139.672 213.743 136.047L204.99 127.641Z" fill="#CE7A63"/>
<path opacity="0.2" d="M208.531 131.071L213.698 136.03C213.397 136.872 213.175 137.739 213.035 138.62C210.974 138.187 208.286 135.756 208.232 133.616C208.167 132.757 208.269 131.894 208.531 131.071Z" fill="black"/>
<path d="M223.93 116.582C227.136 117.165 228.116 122.832 224.185 126.872C220.253 130.911 219.608 115.804 223.93 116.582Z" fill="#164E63"/>
<path d="M207.304 119.128C205.978 125.457 204.88 129.099 207.222 133.13C210.754 139.212 219.444 138.434 222.658 132.618C225.573 127.375 227.262 117.899 221.669 113.788C219.759 112.367 217.348 111.742 214.965 112.048C212.583 112.355 210.422 113.569 208.957 115.424C208.115 116.515 207.549 117.784 207.304 119.128Z" fill="#CE7A63"/>
<path d="M220.371 131.955C220.371 131.955 218.455 130.779 212.58 128.914C212.58 130.982 213.334 132.874 216.348 133.837C217.091 134.121 217.918 134.109 218.651 133.805C219.385 133.501 219.966 132.928 220.271 132.211C220.307 132.122 220.343 132.043 220.371 131.955Z" fill="#164E63"/>
<path d="M215.495 131.919C216.678 132.225 217.721 132.91 218.455 133.864C217.772 134.066 217.041 134.051 216.367 133.82C215.184 133.518 214.143 132.832 213.416 131.875C214.095 131.664 214.827 131.679 215.495 131.919Z" fill="#BA4D3C"/>
<path d="M220.125 131.822C219.99 132.023 219.803 132.186 219.583 132.295C219.363 132.403 219.118 132.454 218.872 132.441C217.13 131.877 215.444 131.165 213.832 130.31C213.565 130.189 213.334 130.002 213.162 129.768C212.99 129.534 212.883 129.261 212.852 128.976C215.353 129.726 217.786 130.678 220.125 131.822Z" fill="#FAFAFA"/>
<path d="M213.379 120.401C213.129 121.027 212.701 121.571 212.144 121.968C211.588 122.366 210.926 122.601 210.238 122.646C209.414 123.971 209.153 125.557 209.511 127.066L207.078 127.243C207.147 126.296 206.842 125.36 206.226 124.624C205.611 123.888 204.73 123.408 203.764 123.283C204.284 125.882 204.92 128.451 205.671 130.991C203.156 128.723 201.28 125.865 200.223 122.69C199.667 121.173 199.456 119.556 199.605 117.952C199.683 117.152 199.924 116.374 200.314 115.666C200.703 114.957 201.234 114.331 201.875 113.824C202.777 113.249 203.805 112.89 204.877 112.776C205.949 112.662 207.033 112.797 208.04 113.17C211.709 114.319 215.195 116.352 213.379 120.401Z" fill="#164E63"/>
<path d="M202.547 123.875C202.597 125.499 203.301 127.039 204.508 128.162C206.124 129.63 207.949 128.472 208.349 126.465C208.712 124.697 208.303 121.727 206.278 121.02C204.254 120.312 202.483 121.886 202.547 123.875Z" fill="#CE7A63"/>
<path d="M216.04 123.707C215.895 124.211 216.04 124.697 216.403 124.785C216.766 124.874 217.13 124.538 217.311 124.025C217.493 123.512 217.311 123.035 216.948 122.947C216.585 122.858 216.176 123.203 216.04 123.707Z" fill="#164E63"/>
<path d="M222.769 124.953C222.623 125.466 222.769 125.943 223.132 126.041C223.495 126.138 223.858 125.784 224.04 125.272C224.221 124.759 224.04 124.29 223.677 124.202C223.313 124.113 222.923 124.449 222.769 124.953Z" fill="#164E63"/>
<path d="M220.471 124.706C220.67 126.417 221.107 128.094 221.769 129.692C221.345 129.845 220.89 129.906 220.439 129.871C219.987 129.836 219.549 129.705 219.154 129.488L220.471 124.706Z" fill="#BA4D3C"/>
<path d="M215.84 120.922C215.889 120.953 215.945 120.97 216.003 120.97C216.061 120.97 216.118 120.953 216.167 120.922C216.475 120.678 216.837 120.508 217.225 120.425C217.613 120.342 218.016 120.349 218.4 120.445C218.443 120.46 218.489 120.466 218.534 120.463C218.58 120.46 218.624 120.447 218.664 120.426C218.704 120.405 218.739 120.377 218.768 120.342C218.796 120.307 218.816 120.267 218.827 120.224V120.162C218.854 120.087 218.85 120.005 218.816 119.932C218.783 119.86 218.721 119.803 218.646 119.773C218.162 119.638 217.653 119.619 217.16 119.72C216.668 119.82 216.209 120.035 215.822 120.348C215.789 120.371 215.761 120.401 215.74 120.435C215.718 120.469 215.704 120.507 215.699 120.547C215.693 120.586 215.695 120.627 215.705 120.665C215.715 120.704 215.733 120.74 215.758 120.772C215.77 120.829 215.798 120.881 215.84 120.922Z" fill="#164E63"/>
<path d="M225.82 122.876C225.881 122.898 225.949 122.898 226.01 122.876C226.087 122.843 226.148 122.782 226.18 122.706C226.212 122.631 226.213 122.546 226.183 122.469C226.005 122.012 225.716 121.603 225.342 121.276C224.967 120.95 224.518 120.717 224.031 120.595C223.99 120.586 223.948 120.585 223.907 120.592C223.866 120.6 223.827 120.615 223.792 120.637C223.758 120.659 223.728 120.688 223.705 120.722C223.682 120.756 223.666 120.794 223.659 120.834C223.642 120.911 223.658 120.992 223.702 121.058C223.746 121.124 223.816 121.17 223.895 121.187C224.275 121.287 224.626 121.473 224.92 121.73C225.213 121.986 225.441 122.306 225.584 122.664C225.599 122.717 225.629 122.765 225.671 122.802C225.713 122.839 225.764 122.865 225.82 122.876Z" fill="#164E63"/>
<path opacity="0.1" d="M195.692 147.937C198.661 147.672 199.824 148.759 201.649 152.79C203.337 156.503 203.801 166.987 203.801 166.987C203.855 172.716 204.636 172.106 199.061 172.238C195.492 172.318 190.952 172.813 190.952 172.813C190.952 172.813 186.812 148.742 195.692 147.937Z" fill="black"/>
<path d="M239.393 167.076L233.174 166.378C232.85 166.347 232.537 166.249 232.256 166.091C231.974 165.933 231.73 165.719 231.541 165.462C231.351 165.205 231.219 164.912 231.155 164.602C231.09 164.292 231.095 163.972 231.167 163.664L234.645 147.151C234.714 146.875 234.883 146.633 235.122 146.47C235.361 146.307 235.653 146.235 235.943 146.267L243.607 147.151C243.93 147.18 244.242 147.277 244.524 147.434C244.806 147.591 245.05 147.804 245.24 148.06C245.429 148.317 245.561 148.609 245.626 148.919C245.69 149.228 245.686 149.548 245.613 149.856L242.435 164.919C242.289 165.58 241.898 166.165 241.337 166.563C240.776 166.96 240.084 167.143 239.393 167.076Z" fill="#67E8F9"/>
<path opacity="0.8" d="M239.393 167.076L233.174 166.378C232.85 166.347 232.537 166.249 232.256 166.091C231.974 165.933 231.73 165.719 231.541 165.462C231.351 165.205 231.219 164.912 231.155 164.602C231.09 164.292 231.095 163.972 231.167 163.664L234.645 147.151C234.714 146.875 234.883 146.633 235.122 146.47C235.361 146.307 235.653 146.235 235.943 146.267L243.607 147.151C243.93 147.18 244.242 147.277 244.524 147.434C244.806 147.591 245.05 147.804 245.24 148.06C245.429 148.317 245.561 148.609 245.626 148.919C245.69 149.228 245.686 149.548 245.613 149.856L242.435 164.919C242.289 165.58 241.898 166.165 241.337 166.563C240.776 166.96 240.084 167.143 239.393 167.076Z" fill="white"/>
<path d="M239.712 167.403L233.492 166.705C233.169 166.675 232.856 166.578 232.575 166.421C232.293 166.265 232.049 166.051 231.859 165.795C231.669 165.539 231.538 165.246 231.473 164.937C231.409 164.627 231.413 164.308 231.485 164L234.963 147.478C235.037 147.205 235.208 146.966 235.446 146.804C235.684 146.642 235.973 146.568 236.262 146.594L243.925 147.478C244.247 147.509 244.559 147.606 244.84 147.764C245.121 147.921 245.364 148.135 245.554 148.39C245.744 148.646 245.876 148.938 245.941 149.247C246.006 149.556 246.003 149.875 245.932 150.183L242.717 165.308C242.56 165.952 242.17 166.518 241.617 166.903C241.065 167.288 240.388 167.466 239.712 167.403Z" fill="#164E63"/>
<path d="M239.902 157.449C239.826 157.779 239.629 158.07 239.348 158.269C239.068 158.467 238.722 158.559 238.376 158.528C238.214 158.511 238.057 158.462 237.916 158.383C237.775 158.303 237.652 158.196 237.556 158.068C237.46 157.939 237.393 157.793 237.359 157.637C237.325 157.482 237.326 157.321 237.36 157.166C237.434 156.835 237.63 156.543 237.911 156.344C238.192 156.145 238.539 156.054 238.885 156.088C239.047 156.104 239.204 156.153 239.345 156.233C239.487 156.312 239.609 156.419 239.705 156.548C239.801 156.676 239.868 156.823 239.902 156.978C239.936 157.133 239.936 157.294 239.902 157.449Z" fill="white"/>
<path opacity="0.3" d="M238.05 151.783L235.326 151.473C235.173 151.46 235.025 151.414 234.891 151.34C234.757 151.266 234.641 151.164 234.551 151.043C234.461 150.922 234.398 150.783 234.367 150.636C234.337 150.489 234.339 150.338 234.373 150.192L234.945 147.54C235.01 147.253 235.181 146.999 235.425 146.826C235.669 146.654 235.97 146.574 236.271 146.603L239.094 146.921C239.243 146.939 239.387 146.988 239.515 147.064C239.643 147.139 239.754 147.241 239.839 147.361C239.925 147.481 239.984 147.617 240.012 147.76C240.04 147.904 240.037 148.052 240.002 148.194L239.458 150.846C239.372 151.137 239.185 151.391 238.928 151.562C238.671 151.733 238.36 151.811 238.05 151.783Z" fill="white"/>
<path opacity="0.1" d="M237.841 151.535L235.362 151.252C235.214 151.233 235.071 151.183 234.944 151.107C234.816 151.031 234.706 150.93 234.621 150.81C234.535 150.69 234.476 150.555 234.448 150.412C234.419 150.269 234.421 150.122 234.454 149.979L234.963 147.584C235.034 147.274 235.219 147.001 235.484 146.815C235.748 146.63 236.073 146.545 236.397 146.576L238.876 146.85C239.025 146.87 239.169 146.919 239.297 146.996C239.425 147.073 239.536 147.175 239.621 147.295C239.707 147.416 239.765 147.553 239.793 147.697C239.821 147.841 239.818 147.989 239.784 148.132L239.285 150.519C239.213 150.831 239.027 151.106 238.761 151.293C238.495 151.481 238.168 151.567 237.841 151.535Z" fill="white"/>
<path d="M224.075 157.918L230.749 155.699L229.841 163.973C229.841 163.973 223.948 164.557 223.285 161.56V159.023C223.282 158.781 223.357 158.545 223.498 158.347C223.64 158.149 223.842 157.999 224.075 157.918Z" fill="#CE7A63"/>
<path d="M236.015 157.502L234.908 164.3L229.805 163.964L230.749 155.699L236.015 157.502Z" fill="#CE7A63"/>
<path d="M197.407 152.048C197.643 157.078 197.625 162.241 197.789 167.191C197.789 168.429 197.861 169.648 197.943 170.842C198.025 172.035 198.125 173.184 198.252 174.183C198.315 174.67 198.406 175.138 198.461 175.403C198.461 175.536 198.515 175.598 198.461 175.527C198.406 175.456 198.461 175.483 198.388 175.43C198.346 175.361 198.297 175.296 198.243 175.235C198.149 175.122 198.049 175.012 197.943 174.908C197.863 174.827 197.778 174.75 197.689 174.678L197.371 174.431C197.059 174.231 196.728 174.062 196.381 173.927C195.943 173.761 195.48 173.663 195.01 173.635C194.784 173.618 194.556 173.618 194.329 173.635L193.993 173.68H193.857C193.783 173.689 193.709 173.707 193.639 173.733H193.557C193.403 173.803 193.603 173.733 193.784 173.688C194.184 173.538 194.692 173.308 195.255 173.061C197.426 172.026 199.732 170.745 202.029 169.525L208.975 165.75C213.624 163.222 218.31 160.676 223.122 158.316C223.617 158.067 224.187 158.001 224.728 158.129C225.269 158.257 225.744 158.57 226.068 159.011C226.391 159.452 226.54 159.992 226.487 160.532C226.435 161.071 226.185 161.574 225.782 161.949C221.887 165.635 217.819 169.074 213.642 172.415L210.483 174.899L207.25 177.322C205.071 178.939 202.874 180.477 200.395 182.007C199.759 182.387 199.105 182.776 198.306 183.183C197.778 183.446 197.232 183.674 196.672 183.863L196.345 183.96L195.891 184.067L195.628 184.111L195.165 184.164C194.862 184.18 194.559 184.18 194.257 184.164C193.634 184.121 193.022 183.986 192.441 183.766C192.167 183.661 191.9 183.54 191.642 183.404C191.422 183.285 191.21 183.156 191.006 183.015L190.715 182.802L190.488 182.617L190.062 182.228C189.837 182.005 189.628 181.769 189.435 181.521C189.281 181.317 189.145 181.123 189.008 180.919C188.872 180.716 188.8 180.575 188.7 180.398C188.407 179.855 188.152 179.294 187.937 178.718C187.638 177.876 187.389 177.017 187.192 176.146C186.862 174.688 186.622 173.212 186.475 171.726C186.321 170.32 186.203 168.95 186.121 167.58C185.985 164.857 185.948 162.179 186.021 159.509C186.094 156.839 186.239 154.205 186.575 151.5C186.629 150.093 187.255 148.765 188.315 147.808C188.84 147.334 189.456 146.965 190.127 146.722C190.798 146.48 191.512 146.369 192.227 146.395C192.943 146.421 193.646 146.584 194.297 146.875C194.947 147.165 195.533 147.578 196.02 148.089C196.507 148.6 196.885 149.199 197.134 149.853C197.383 150.506 197.498 151.201 197.471 151.898L197.407 152.048Z" fill="#CE7A63"/>
<path d="M187.291 148.167C183.269 153.003 183.578 170.02 183.578 170.02L198.178 169.419C199.841 163.706 200.528 157.766 200.212 151.836C197.87 143.42 192.158 142.324 187.291 148.167Z" fill="#67E8F9"/>
<g opacity="0.3">
<path d="M187.291 148.167C183.269 153.003 183.578 170.02 183.578 170.02L198.178 169.419C199.841 163.706 200.528 157.766 200.212 151.836C197.87 143.42 192.158 142.324 187.291 148.167Z" fill="black"/>
</g>
<path d="M226.091 119.685C226.39 119.726 226.695 119.677 226.966 119.546C227.237 119.415 227.46 119.208 227.608 118.951C227.73 118.572 227.705 118.163 227.537 117.801C227.37 117.44 227.072 117.15 226.7 116.989C227.608 116.847 229.124 116.29 229.033 115.388C228.942 114.487 228.252 113.435 227.326 113.444C227.639 113.109 227.819 112.676 227.832 112.224C227.846 111.771 227.692 111.329 227.399 110.977C227.082 110.637 226.653 110.417 226.186 110.356C225.719 110.294 225.245 110.395 224.847 110.641C224.995 110.09 224.957 109.507 224.738 108.978C224.519 108.449 224.13 108.003 223.63 107.707C223.11 107.424 222.511 107.309 221.919 107.377C221.328 107.446 220.773 107.694 220.334 108.087C220.463 107.714 220.512 107.319 220.479 106.927C220.447 106.535 220.333 106.154 220.144 105.806C219.956 105.458 219.697 105.151 219.383 104.903C219.069 104.656 218.707 104.473 218.319 104.365C217.928 104.301 217.527 104.317 217.143 104.412C216.759 104.506 216.399 104.677 216.086 104.914C215.772 105.151 215.513 105.448 215.324 105.787C215.135 106.126 215.02 106.5 214.986 106.884C214.991 106.055 214.687 105.252 214.132 104.623C213.576 103.995 212.806 103.583 211.963 103.463C211.102 103.424 210.254 103.685 209.572 104.198C208.89 104.711 208.418 105.444 208.24 106.266C207.779 105.941 207.221 105.772 206.652 105.785C206.083 105.797 205.534 105.991 205.089 106.336C204.635 106.714 204.312 107.219 204.164 107.782C204.016 108.346 204.051 108.94 204.263 109.483C203.916 109.402 203.554 109.406 203.208 109.494C202.863 109.582 202.545 109.751 202.283 109.987C202.053 110.292 201.896 110.643 201.826 111.016C201.755 111.388 201.772 111.771 201.875 112.135C201.43 112.319 201.053 112.629 200.79 113.024C200.528 113.419 200.394 113.882 200.405 114.352C200.416 114.822 200.571 115.278 200.851 115.662C201.131 116.045 201.522 116.338 201.975 116.502C205.266 117.596 208.86 117.448 212.044 116.087C212.589 115.866 212.807 116.299 212.88 116.874C212.894 117.022 212.937 117.166 213.007 117.298C213.227 117.566 213.519 117.771 213.85 117.889C214.182 118.007 214.54 118.035 214.886 117.97C215.118 117.9 215.318 117.757 215.455 117.563C215.592 117.369 215.657 117.135 215.64 116.9C215.776 117.404 215.64 117.413 215.985 117.784C216.164 117.972 216.38 118.123 216.62 118.228C216.861 118.333 217.12 118.389 217.383 118.394C217.535 118.404 217.686 118.376 217.824 118.314C217.962 118.252 218.081 118.157 218.171 118.038C218.262 117.919 218.32 117.781 218.341 117.634C218.362 117.488 218.345 117.339 218.291 117.201C218.555 117.749 218.464 118.129 218.945 118.518C219.18 118.718 219.464 118.855 219.769 118.917C220.075 118.979 220.391 118.963 220.689 118.871C221.27 118.65 221.115 117.431 221.115 117.431C221.115 117.431 221.188 119.022 222.668 119.075C224.148 119.128 223.921 117.607 223.921 117.607C224.086 118.093 224.332 118.55 224.647 118.96C224.826 119.169 225.046 119.341 225.294 119.465C225.542 119.59 225.813 119.664 226.091 119.685Z" fill="#164E63"/>
<path d="M214.779 95.6931C214.538 95.6931 214.307 95.5999 214.137 95.4341C213.967 95.2684 213.871 95.0435 213.871 94.8091V88.789C213.871 88.5546 213.967 88.3297 214.137 88.1639C214.307 87.9982 214.538 87.905 214.779 87.905C215.02 87.905 215.251 87.9982 215.421 88.1639C215.591 88.3297 215.687 88.5546 215.687 88.789V94.8091C215.687 95.0435 215.591 95.2684 215.421 95.4341C215.251 95.5999 215.02 95.6931 214.779 95.6931Z" fill="#67E8F9"/>
<path d="M214.779 99.0081C214.538 99.0081 214.307 98.915 214.137 98.7492C213.967 98.5834 213.871 98.3585 213.871 98.1241V97.4699C213.871 97.2355 213.967 97.0106 214.137 96.8449C214.307 96.6791 214.538 96.5859 214.779 96.5859C215.02 96.5859 215.251 96.6791 215.421 96.8449C215.591 97.0106 215.687 97.2355 215.687 97.4699V98.1241C215.687 98.3585 215.591 98.5834 215.421 98.7492C215.251 98.915 215.02 99.0081 214.779 99.0081Z" fill="#67E8F9"/>
<path d="M210.81 100.14C210.652 100.139 210.496 100.097 210.359 100.02C210.222 99.9423 210.109 99.8312 210.029 99.6976L206.588 93.9074C206.468 93.7034 206.435 93.4613 206.498 93.2341C206.561 93.007 206.714 92.8136 206.924 92.6963C207.133 92.5791 207.382 92.5477 207.615 92.6091C207.849 92.6704 208.047 92.8194 208.168 93.0234L211.6 98.8136C211.68 98.9483 211.722 99.101 211.722 99.2565C211.722 99.412 211.679 99.5647 211.599 99.6991C211.519 99.8336 211.404 99.9452 211.265 100.023C211.127 100.1 210.97 100.14 210.81 100.14Z" fill="#67E8F9"/>
<path d="M218.746 100.14C218.587 100.139 218.431 100.097 218.294 100.019C218.157 99.9412 218.043 99.8295 217.964 99.6953C217.885 99.5611 217.844 99.409 217.844 99.2543C217.844 99.0996 217.886 98.9476 217.965 98.8136L221.416 93.0234C221.536 92.8212 221.733 92.6733 221.964 92.6121C222.195 92.5508 222.442 92.5811 222.651 92.6963C222.755 92.7541 222.846 92.8313 222.919 92.9235C222.993 93.0158 223.046 93.1212 223.078 93.2338C223.109 93.3464 223.117 93.4638 223.101 93.5794C223.086 93.695 223.047 93.8065 222.987 93.9074L219.536 99.7064C219.455 99.8397 219.339 99.9499 219.201 100.026C219.062 100.102 218.905 100.141 218.746 100.14Z" fill="#67E8F9"/>
<path d="M409.534 59.8469H44.1274L44.082 65.3366H409.516L409.534 59.8469Z" fill="#164E63"/>
<path opacity="0.5" d="M409.961 59.8469H44.0371L44.1552 65.3366H409.743L409.961 59.8469Z" fill="white"/>
<path d="M84.4432 68.3952V59.2281C84.4432 56.417 79.9668 56.4082 79.9668 59.2281V68.3952C79.9668 71.2063 84.4432 71.2063 84.4432 68.3952Z" fill="#67E8F9"/>
<g opacity="0.4">
<path d="M84.4432 68.3952V59.2281C84.4432 56.417 79.9668 56.4082 79.9668 59.2281V68.3952C79.9668 71.2063 84.4432 71.2063 84.4432 68.3952Z" fill="black"/>
</g>
<path d="M93.0787 106.266L84.6978 93.0057C84.4956 92.6686 84.2039 92.3907 83.8534 92.2012C83.371 91.9004 82.8101 91.7405 82.2372 91.7405C81.6643 91.7405 81.1034 91.9004 80.6209 92.2012C80.277 92.3813 79.9911 92.6506 79.7946 92.9792L71.4138 106.239C71.1443 106.662 70.9962 107.148 70.9851 107.646C70.9739 108.144 71.1001 108.635 71.3505 109.07C71.6008 109.504 71.9662 109.865 72.4085 110.115C72.8508 110.365 73.3539 110.495 73.8654 110.491H90.6271C91.1363 110.489 91.6358 110.356 92.0747 110.104C92.5136 109.853 92.8762 109.493 93.1254 109.061C93.3747 108.628 93.5017 108.139 93.4935 107.644C93.4852 107.148 93.3421 106.663 93.0787 106.239V106.266ZM91.3353 108.113C91.2712 108.242 91.1704 108.351 91.0449 108.426C90.9194 108.501 90.7744 108.54 90.6271 108.538H73.8654C73.7149 108.538 73.5671 108.499 73.4377 108.424C73.3082 108.349 73.2019 108.242 73.1299 108.113C73.0574 107.991 73.0192 107.852 73.0192 107.711C73.0192 107.57 73.0574 107.431 73.1299 107.309L81.5108 94.0488C81.5812 93.9279 81.6846 93.8283 81.8097 93.7612C81.9347 93.6941 82.0764 93.6621 82.219 93.6687C82.3613 93.664 82.5022 93.6969 82.6269 93.7638C82.7516 93.8307 82.8553 93.9292 82.9272 94.0488L91.3081 107.309C91.3895 107.427 91.4352 107.565 91.44 107.707C91.4448 107.849 91.4086 107.99 91.3353 108.113Z" fill="#67E8F9"/>
<path d="M87.8941 107.937H76.5895C76.156 107.937 75.7403 108.104 75.4338 108.403C75.1273 108.701 74.9551 109.106 74.9551 109.528C74.9551 109.95 75.1273 110.354 75.4338 110.653C75.7403 110.951 76.156 111.119 76.5895 111.119H87.8941C88.3275 111.119 88.7433 110.951 89.0498 110.653C89.3563 110.354 89.5285 109.95 89.5285 109.528C89.5285 109.106 89.3563 108.701 89.0498 108.403C88.7433 108.104 88.3275 107.937 87.8941 107.937Z" fill="#67E8F9"/>
<g opacity="0.2">
<path d="M87.8941 107.937H76.5895C76.156 107.937 75.7403 108.104 75.4338 108.403C75.1273 108.701 74.9551 109.106 74.9551 109.528C74.9551 109.95 75.1273 110.354 75.4338 110.653C75.7403 110.951 76.156 111.119 76.5895 111.119H87.8941C88.3275 111.119 88.7433 110.951 89.0498 110.653C89.3563 110.354 89.5285 109.95 89.5285 109.528C89.5285 109.106 89.3563 108.701 89.0498 108.403C88.7433 108.104 88.3275 107.937 87.8941 107.937Z" fill="black"/>
</g>
<path d="M83.8794 92.0423V68.8196C83.8486 68.4169 83.6626 68.0405 83.3586 67.7658C83.0547 67.491 82.6552 67.3384 82.2405 67.3384C81.8258 67.3384 81.4264 67.491 81.1224 67.7658C80.8184 68.0405 80.6324 68.4169 80.6016 68.8196V92.0423C80.6324 92.4449 80.8184 92.8214 81.1224 93.0961C81.4264 93.3708 81.8258 93.5234 82.2405 93.5234C82.6552 93.5234 83.0547 93.3708 83.3586 93.0961C83.6626 92.8214 83.8486 92.4449 83.8794 92.0423Z" fill="#67E8F9"/>
<g opacity="0.2">
<path d="M83.8794 92.0423V68.8196C83.8486 68.4169 83.6626 68.0405 83.3586 67.7658C83.0547 67.491 82.6552 67.3384 82.2405 67.3384C81.8258 67.3384 81.4264 67.491 81.1224 67.7658C80.8184 68.0405 80.6324 68.4169 80.6016 68.8196V92.0423C80.6324 92.4449 80.8184 92.8214 81.1224 93.0961C81.4264 93.3708 81.8258 93.5234 82.2405 93.5234C82.6552 93.5234 83.0547 93.3708 83.3586 93.0961C83.6626 92.8214 83.8486 92.4449 83.8794 92.0423Z" fill="black"/>
</g>
<path d="M136.363 68.3952V59.2281C136.363 56.417 131.887 56.4082 131.887 59.2281V68.3952C131.887 71.2063 136.363 71.2063 136.363 68.3952Z" fill="#67E8F9"/>
<g opacity="0.4">
<path d="M136.363 68.3952V59.2281C136.363 56.417 131.887 56.4082 131.887 59.2281V68.3952C131.887 71.2063 136.363 71.2063 136.363 68.3952Z" fill="black"/>
</g>
<path d="M144.961 106.266L136.581 93.0057C136.378 92.6686 136.087 92.3907 135.736 92.2012C135.254 91.9004 134.693 91.7405 134.12 91.7405C133.547 91.7405 132.986 91.9004 132.504 92.2012C132.16 92.3813 131.874 92.6506 131.677 92.9792L123.297 106.239C123.027 106.662 122.879 107.148 122.868 107.646C122.857 108.144 122.983 108.635 123.233 109.07C123.484 109.504 123.849 109.865 124.291 110.115C124.734 110.365 125.237 110.495 125.748 110.491H142.555C143.064 110.489 143.564 110.356 144.003 110.104C144.442 109.853 144.804 109.493 145.054 109.061C145.303 108.628 145.43 108.139 145.422 107.644C145.413 107.148 145.27 106.663 145.007 106.239L144.961 106.266ZM143.218 108.113C143.154 108.242 143.053 108.351 142.928 108.426C142.802 108.501 142.657 108.54 142.51 108.538H125.748C125.602 108.536 125.458 108.497 125.332 108.424C125.206 108.351 125.101 108.247 125.03 108.122C124.958 107.998 124.921 107.857 124.923 107.714C124.925 107.571 124.965 107.432 125.04 107.309L133.421 94.0488C133.496 93.9319 133.6 93.8355 133.724 93.7687C133.848 93.7018 133.987 93.6668 134.129 93.6668C134.271 93.6668 134.41 93.7018 134.534 93.7687C134.658 93.8355 134.762 93.9319 134.837 94.0488L143.218 107.309C143.302 107.427 143.347 107.567 143.347 107.711C143.347 107.855 143.302 107.995 143.218 108.113Z" fill="#67E8F9"/>
<path d="M139.777 107.937H128.472C128.039 107.937 127.623 108.104 127.317 108.403C127.01 108.701 126.838 109.106 126.838 109.528C126.838 109.95 127.01 110.354 127.317 110.653C127.623 110.951 128.039 111.119 128.472 111.119H139.777C140.21 111.119 140.626 110.951 140.933 110.653C141.239 110.354 141.411 109.95 141.411 109.528C141.411 109.106 141.239 108.701 140.933 108.403C140.626 108.104 140.21 107.937 139.777 107.937Z" fill="#67E8F9"/>
<g opacity="0.2">
<path d="M139.777 107.937H128.472C128.039 107.937 127.623 108.104 127.317 108.403C127.01 108.701 126.838 109.106 126.838 109.528C126.838 109.95 127.01 110.354 127.317 110.653C127.623 110.951 128.039 111.119 128.472 111.119H139.777C140.21 111.119 140.626 110.951 140.933 110.653C141.239 110.354 141.411 109.95 141.411 109.528C141.411 109.106 141.239 108.701 140.933 108.403C140.626 108.104 140.21 107.937 139.777 107.937Z" fill="black"/>
</g>
<path d="M135.764 92.0423V68.8196C135.733 68.4169 135.547 68.0405 135.243 67.7658C134.939 67.491 134.54 67.3384 134.125 67.3384C133.711 67.3384 133.311 67.491 133.007 67.7658C132.703 68.0405 132.517 68.4169 132.486 68.8196V92.0423C132.517 92.4449 132.703 92.8214 133.007 93.0961C133.311 93.3708 133.711 93.5234 134.125 93.5234C134.54 93.5234 134.939 93.3708 135.243 93.0961C135.547 92.8214 135.733 92.4449 135.764 92.0423Z" fill="#67E8F9"/>
<g opacity="0.2">
<path d="M135.764 92.0423V68.8196C135.733 68.4169 135.547 68.0405 135.243 67.7658C134.939 67.491 134.54 67.3384 134.125 67.3384C133.711 67.3384 133.311 67.491 133.007 67.7658C132.703 68.0405 132.517 68.4169 132.486 68.8196V92.0423C132.517 92.4449 132.703 92.8214 133.007 93.0961C133.311 93.3708 133.711 93.5234 134.125 93.5234C134.54 93.5234 134.939 93.3708 135.243 93.0961C135.547 92.8214 135.733 92.4449 135.764 92.0423Z" fill="black"/>
</g>
<path d="M242.661 68.3952V59.2281C242.661 56.417 238.176 56.4082 238.176 59.2281V68.3952C238.176 71.2063 242.661 71.2063 242.661 68.3952Z" fill="#67E8F9"/>
<g opacity="0.4">
<path d="M242.661 68.3952V59.2281C242.661 56.417 238.176 56.4082 238.176 59.2281V68.3952C238.176 71.2063 242.661 71.2063 242.661 68.3952Z" fill="black"/>
</g>
<path d="M251.253 106.266L242.872 93.0057C242.675 92.6646 242.382 92.3855 242.027 92.2012C241.545 91.9004 240.984 91.7405 240.411 91.7405C239.838 91.7405 239.277 91.9004 238.795 92.2012C238.451 92.3813 238.165 92.6506 237.969 92.9792L229.597 106.239C229.325 106.661 229.174 107.147 229.161 107.645C229.148 108.143 229.273 108.635 229.523 109.07C229.773 109.505 230.138 109.867 230.581 110.117C231.024 110.367 231.528 110.496 232.039 110.491H248.792C249.305 110.498 249.81 110.37 250.254 110.12C250.698 109.871 251.065 109.51 251.316 109.074C251.566 108.639 251.692 108.146 251.68 107.647C251.667 107.148 251.516 106.662 251.244 106.239L251.253 106.266ZM249.537 108.113C249.463 108.241 249.356 108.347 249.227 108.422C249.098 108.496 248.951 108.536 248.801 108.538H232.039C231.89 108.538 231.743 108.499 231.615 108.424C231.487 108.349 231.383 108.242 231.313 108.113C231.237 107.992 231.196 107.853 231.196 107.711C231.196 107.569 231.237 107.43 231.313 107.309L239.694 94.0488C239.766 93.9292 239.87 93.8307 239.994 93.7638C240.119 93.6969 240.26 93.664 240.402 93.6687C240.546 93.6643 240.688 93.6972 240.814 93.764C240.94 93.8308 241.045 93.9291 241.119 94.0488L249.491 107.309C249.575 107.425 249.624 107.562 249.632 107.705C249.64 107.847 249.607 107.988 249.537 108.113Z" fill="#67E8F9"/>
<path d="M246.067 107.937H234.771C234.338 107.937 233.922 108.104 233.615 108.403C233.309 108.701 233.137 109.106 233.137 109.528C233.137 109.95 233.309 110.354 233.615 110.653C233.922 110.951 234.338 111.119 234.771 111.119H246.067C246.5 111.119 246.916 110.951 247.222 110.653C247.529 110.354 247.701 109.95 247.701 109.528C247.701 109.106 247.529 108.701 247.222 108.403C246.916 108.104 246.5 107.937 246.067 107.937Z" fill="#67E8F9"/>
<g opacity="0.2">
<path d="M246.067 107.937H234.771C234.338 107.937 233.922 108.104 233.615 108.403C233.309 108.701 233.137 109.106 233.137 109.528C233.137 109.95 233.309 110.354 233.615 110.653C233.922 110.951 234.338 111.119 234.771 111.119H246.067C246.5 111.119 246.916 110.951 247.222 110.653C247.529 110.354 247.701 109.95 247.701 109.528C247.701 109.106 247.529 108.701 247.222 108.403C246.916 108.104 246.5 107.937 246.067 107.937Z" fill="black"/>
</g>
<path d="M242.063 92.0423V68.8196C242.032 68.4169 241.846 68.0405 241.542 67.7658C241.238 67.491 240.839 67.3384 240.424 67.3384C240.009 67.3384 239.61 67.491 239.306 67.7658C239.002 68.0405 238.816 68.4169 238.785 68.8196V92.0423C238.816 92.4449 239.002 92.8214 239.306 93.0961C239.61 93.3708 240.009 93.5234 240.424 93.5234C240.839 93.5234 241.238 93.3708 241.542 93.0961C241.846 92.8214 242.032 92.4449 242.063 92.0423Z" fill="#67E8F9"/>
<g opacity="0.2">
<path d="M242.063 92.0423V68.8196C242.032 68.4169 241.846 68.0405 241.542 67.7658C241.238 67.491 240.839 67.3384 240.424 67.3384C240.009 67.3384 239.61 67.491 239.306 67.7658C239.002 68.0405 238.816 68.4169 238.785 68.8196V92.0423C238.816 92.4449 239.002 92.8214 239.306 93.0961C239.61 93.3708 240.009 93.5234 240.424 93.5234C240.839 93.5234 241.238 93.3708 241.542 93.0961C241.846 92.8214 242.032 92.4449 242.063 92.0423Z" fill="black"/>
</g>
</svg>
