<svg width="636" height="536" viewBox="0 0 636 536" fill="none" xmlns="http://www.w3.org/2000/svg">
<path d="M636 455.882H0V456.2H636V455.882Z" fill="#EBEBEB"/>
<path d="M301.482 399.154H55.8602C51.8572 399.154 48.5996 395.896 48.5996 391.893V46.6317C48.5996 42.6287 51.8572 39.3711 55.8602 39.3711H301.482C305.484 39.3711 308.741 42.6287 308.741 46.6317V391.893C308.741 395.896 305.484 399.154 301.482 399.154ZM55.8602 39.6904C52.0315 39.6904 48.9176 42.8042 48.9176 46.6329V391.895C48.9176 395.723 52.0315 398.837 55.8602 398.837H301.482C305.31 398.837 308.423 395.723 308.423 391.895V46.6317C308.423 42.8042 305.31 39.6891 301.482 39.6891L55.8602 39.6904Z" fill="#EBEBEB"/>
<path d="M576.61 399.154H330.99C326.987 399.154 323.73 395.896 323.73 391.893V46.6317C323.73 42.6287 326.988 39.3711 330.99 39.3711H576.61C580.615 39.3711 583.871 42.6287 583.871 46.6317V391.893C583.872 395.896 580.615 399.154 576.61 399.154ZM330.99 39.6904C327.162 39.6904 324.048 42.8042 324.048 46.6329V391.895C324.048 395.723 327.162 398.837 330.99 398.837H576.61C580.439 398.837 583.553 395.723 583.553 391.895V46.6317C583.553 42.8042 580.439 39.6891 576.61 39.6891L330.99 39.6904Z" fill="#EBEBEB"/>
<path d="M98.2948 467.997H65.2266V468.315H98.2948V467.997Z" fill="#EBEBEB"/>
<path d="M241.909 464.545H184.635V464.863H241.909V464.545Z" fill="#EBEBEB"/>
<path d="M176.896 479.809H99.5684V480.127H176.896V479.809Z" fill="#EBEBEB"/>
<path d="M570.774 477.672H546.307V477.99H570.774V477.672Z" fill="#EBEBEB"/>
<path d="M534.982 477.672H464.65V477.99H534.982V477.672Z" fill="#EBEBEB"/>
<path d="M421.686 472.301H326.964V472.619H421.686V472.301Z" fill="#EBEBEB"/>
<path d="M336.907 318.649H283.421V455.884H336.907V318.649Z" fill="#F0F0F0"/>
<path d="M92.0284 455.883H283.42V318.648H92.0284L92.0284 455.883Z" fill="#F5F5F5"/>
<path d="M103.758 442.515H135.704V414.572H103.758V442.515Z" fill="white"/>
<path d="M103.758 404.314H135.704V376.37H103.758V404.314Z" fill="#EBEBEB"/>
<path opacity="0.7" d="M336.907 336.364H91.4707V341.874H336.907V336.364Z" fill="#E6E6E6"/>
<path d="M339.86 315.988H283.421V338.216H339.86V315.988Z" fill="#F0F0F0"/>
<path d="M89.0784 338.214H283.421V315.986H89.0784V338.214Z" fill="#F5F5F5"/>
<path d="M316.63 274.035H275.064V316.332H316.63V274.035Z" fill="#F0F0F0"/>
<path d="M130.327 316.332H275.065V274.034H130.327V316.332Z" fill="#F5F5F5"/>
<path opacity="0.7" d="M316.63 280.411H129.893V283.828H316.63V280.411Z" fill="#E6E6E6"/>
<path d="M318.923 271.966H275.064V281.85H318.923V271.966Z" fill="#F0F0F0"/>
<path d="M128.034 281.85H275.065V271.967H128.034V281.85Z" fill="#F5F5F5"/>
<path d="M365.584 455.883H406.276V249.977H365.584V455.883Z" fill="#E6E6E6"/>
<path d="M374.297 455.882H365.585V441.282H383.432L374.297 455.882Z" fill="#F0F0F0"/>
<path d="M501.324 455.883H542.018V249.977H501.324V455.883Z" fill="#E6E6E6"/>
<path d="M365.583 452.935H508.928V249.977L365.583 249.977V452.935Z" fill="#F0F0F0"/>
<path d="M372.343 314.631H502.17V258.972H372.343V314.631Z" fill="#E6E6E6"/>
<path d="M445.79 285.616C445.79 290.329 441.97 294.149 437.257 294.149C432.544 294.149 428.725 290.329 428.725 285.616C428.725 280.904 432.544 277.084 437.257 277.084C441.97 277.084 445.79 280.905 445.79 285.616Z" fill="#FAFAFA"/>
<path d="M500.216 455.882H508.929V441.282H491.08L500.216 455.882Z" fill="#F0F0F0"/>
<path d="M502.169 323.626H372.343V443.94H502.169V323.626Z" fill="#E6E6E6"/>
<path d="M484.24 350.09C488.952 350.09 492.772 346.27 492.772 341.557C492.772 336.845 488.952 333.025 484.24 333.025C479.527 333.025 475.707 336.845 475.707 341.557C475.707 346.27 479.527 350.09 484.24 350.09Z" fill="#FAFAFA"/>
<path d="M528.195 227.055V60.4519L109.654 60.4519L109.654 227.055L528.195 227.055Z" fill="#E6E6E6"/>
<path d="M526.346 227.056V60.4529L107.804 60.4529L107.804 227.056L526.346 227.056Z" fill="#F0F0F0"/>
<path d="M515.697 71.1023H118.456V216.404H515.697V71.1023Z" fill="white"/>
<path d="M164.78 131.648L150.804 155.858H178.758L164.78 131.648Z" fill="#E6E6E6"/>
<path d="M237.294 132.342H214.468V155.168H237.294V132.342Z" fill="#E6E6E6"/>
<path d="M286.982 129.155L271.633 140.307L277.495 158.353H296.47L302.333 140.307L286.982 129.155Z" fill="#E6E6E6"/>
<path d="M356.153 129.776H340.013L331.943 143.754L340.013 157.732H356.153L364.223 143.754L356.153 129.776Z" fill="#E6E6E6"/>
<path d="M409.185 128.412L396.567 134.49L393.449 148.145L402.183 159.094H416.189L424.921 148.145L421.805 134.49L409.185 128.412Z" fill="#E6E6E6"/>
<path d="M476.462 128.842H464.11L455.375 137.577V149.931L464.11 158.666H476.462L485.197 149.931V137.577L476.462 128.842Z" fill="#E6E6E6"/>
<path d="M318 513.33C454.208 513.33 564.627 506.881 564.627 498.927C564.627 490.972 454.208 484.524 318 484.524C181.792 484.524 71.373 490.972 71.373 498.927C71.373 506.881 181.792 513.33 318 513.33Z" fill="#F5F5F5"/>
<path d="M304.527 134.204H513.965C518.434 134.204 521.863 137.859 521.586 142.328L504.512 417.501C504.234 421.969 500.351 425.625 495.882 425.625H286.444C281.975 425.625 278.546 421.969 278.823 417.501L295.899 142.328C296.175 137.859 300.058 134.204 304.527 134.204Z" fill="#22D3EE"/>
<path opacity="0.4" d="M304.527 134.204H513.965C518.434 134.204 521.863 137.859 521.586 142.328L504.512 417.501C504.234 421.969 500.351 425.625 495.882 425.625H286.444C281.975 425.625 278.546 421.969 278.823 417.501L295.899 142.328C296.175 137.859 300.058 134.204 304.527 134.204Z" fill="black"/>
<path d="M299.716 134.204H509.156C513.625 134.204 517.054 137.859 516.777 142.328L499.703 417.501C499.425 421.969 495.542 425.625 491.074 425.625H281.632C277.164 425.625 273.734 421.969 274.012 417.501L291.087 142.328C291.364 137.859 295.248 134.204 299.716 134.204Z" fill="#22D3EE"/>
<path opacity="0.4" d="M285.364 410.767L489.218 413.212L505.755 146.701H301.75L285.364 410.767Z" fill="black"/>
<path d="M279.409 408.07C348.224 408.07 417.038 408.07 485.852 408.07C497.23 303.886 500.721 247.639 502.273 143.455C433.459 143.455 364.643 143.455 295.829 143.455C294.278 247.639 290.787 303.885 279.409 408.07Z" fill="white"/>
<path opacity="0.3" d="M477.617 215.926H442.071C441.347 215.926 440.655 215.627 440.159 215.099C439.661 214.571 439.406 213.861 439.45 213.139L441.656 177.594C441.742 176.21 442.89 175.132 444.276 175.132H479.822C480.546 175.132 481.238 175.431 481.734 175.958C482.231 176.486 482.487 177.196 482.443 177.919L480.237 213.463C480.15 214.847 479.003 215.926 477.617 215.926ZM444.863 210.676H475.149L477.03 180.381H446.743L444.863 210.676Z" fill="#22D3EE"/>
<path opacity="0.3" d="M474.258 270.07H438.713C437.989 270.07 437.297 269.771 436.801 269.243C436.304 268.715 436.048 268.005 436.093 267.283L438.297 231.737C438.384 230.353 439.531 229.274 440.918 229.274H476.464C477.187 229.274 477.879 229.573 478.375 230.101C478.873 230.629 479.128 231.339 479.084 232.061L476.878 267.607C476.791 268.992 475.644 270.07 474.258 270.07ZM441.505 264.82H471.792L473.673 234.524H443.385L441.505 264.82Z" fill="#22D3EE"/>
<path opacity="0.3" d="M470.898 324.214H435.352C434.628 324.214 433.936 323.915 433.44 323.387C432.943 322.859 432.687 322.149 432.732 321.427L434.937 285.881C435.024 284.497 436.171 283.418 437.558 283.418H473.102C473.826 283.418 474.518 283.717 475.014 284.245C475.511 284.773 475.767 285.483 475.723 286.205L473.518 321.751C473.43 323.135 472.284 324.214 470.898 324.214ZM438.144 318.964H468.432L470.312 288.668H440.025L438.144 318.964Z" fill="#22D3EE"/>
<path opacity="0.3" d="M467.537 378.356H431.992C431.269 378.356 430.577 378.057 430.081 377.53C429.583 377.002 429.328 376.292 429.372 375.569L431.577 340.023C431.663 338.639 432.81 337.561 434.197 337.561H469.743C470.467 337.561 471.159 337.86 471.655 338.388C472.152 338.916 472.408 339.625 472.363 340.348L470.158 375.894C470.071 377.279 468.924 378.356 467.537 378.356ZM434.786 373.107H465.072L466.952 342.81H436.665L434.786 373.107Z" fill="#22D3EE"/>
<path opacity="0.3" d="M330.57 190.879H411.074C413.517 190.879 415.642 188.879 415.793 186.436C415.944 183.992 414.069 181.993 411.626 181.993H331.122C328.679 181.993 326.555 183.992 326.403 186.436C326.251 188.879 328.127 190.879 330.57 190.879Z" fill="#22D3EE"/>
<path opacity="0.3" d="M344.751 209.065H409.946C412.39 209.065 414.514 207.065 414.665 204.622C414.817 202.178 412.942 200.178 410.498 200.178H345.303C342.859 200.178 340.735 202.178 340.584 204.622C340.431 207.065 342.306 209.065 344.751 209.065Z" fill="#22D3EE"/>
<path opacity="0.3" d="M326.633 254.321H407.137C409.58 254.321 411.456 256.321 411.304 258.764C411.152 261.208 409.028 263.207 406.585 263.207H326.081C323.638 263.207 321.761 261.208 321.914 258.764C322.067 256.321 324.19 254.321 326.633 254.321Z" fill="#22D3EE"/>
<path opacity="0.3" d="M343.071 236.135H408.266C410.709 236.135 412.585 238.135 412.433 240.579C412.281 243.022 410.157 245.022 407.714 245.022H342.519C340.075 245.022 338.199 243.022 338.351 240.579C338.503 238.135 340.627 236.135 343.071 236.135Z" fill="#22D3EE"/>
<path opacity="0.3" d="M323.852 299.165H404.355C406.799 299.165 408.923 297.166 409.074 294.722C409.226 292.279 407.351 290.279 404.907 290.279H324.404C321.96 290.279 319.836 292.279 319.684 294.722C319.532 297.166 321.407 299.165 323.852 299.165Z" fill="#22D3EE"/>
<path opacity="0.3" d="M370.834 317.351H403.225C405.669 317.351 407.793 315.352 407.944 312.908C408.096 310.465 406.221 308.465 403.777 308.465H371.386C368.942 308.465 366.818 310.465 366.667 312.908C366.515 315.352 368.39 317.351 370.834 317.351Z" fill="#22D3EE"/>
<path opacity="0.3" d="M338.031 317.351H355.114C357.558 317.351 359.682 315.352 359.833 312.908C359.985 310.465 358.11 308.465 355.666 308.465H338.583C336.14 308.465 334.015 310.465 333.864 312.908C333.713 315.352 335.588 317.351 338.031 317.351Z" fill="#22D3EE"/>
<path opacity="0.3" d="M320.491 353.31H400.995C403.438 353.31 405.562 351.31 405.714 348.866C405.865 346.423 403.99 344.423 401.547 344.423H321.043C318.6 344.423 316.475 346.423 316.324 348.866C316.173 351.31 318.048 353.31 320.491 353.31Z" fill="#22D3EE"/>
<path opacity="0.3" d="M334.671 371.494H399.866C402.309 371.494 404.434 369.495 404.585 367.051C404.736 364.608 402.862 362.608 400.418 362.608H335.223C332.779 362.608 330.655 364.608 330.504 367.051C330.351 369.495 332.227 371.494 334.671 371.494Z" fill="#22D3EE"/>
<path d="M458.065 206.198C457.555 206.198 457.038 206.049 456.587 205.74L442.89 196.384C441.694 195.566 441.385 193.934 442.204 192.737C443.021 191.542 444.65 191.231 445.851 192.052L457.552 200.045C461.822 194.892 474.012 180.919 484.15 176.399C485.468 175.81 487.025 176.402 487.616 177.728C488.206 179.051 487.611 180.604 486.287 181.194C475.219 186.127 460.28 205.007 460.128 205.197C459.614 205.85 458.846 206.198 458.065 206.198Z" fill="#22D3EE"/>
<path d="M451.684 259.29C451.026 259.29 450.371 259.044 449.862 258.555L437.94 247.062C436.897 246.056 436.865 244.395 437.871 243.352C438.879 242.309 440.54 242.279 441.582 243.283L451.731 253.066C456.749 248.578 470.833 236.613 481.441 233.711C482.839 233.327 484.281 234.154 484.664 235.55C485.047 236.948 484.223 238.391 482.825 238.774C471.222 241.946 453.658 258.408 453.483 258.574C452.978 259.051 452.33 259.29 451.684 259.29Z" fill="#22D3EE"/>
<path opacity="0.4" d="M429.39 149.759L433.262 149.797C437.551 149.839 441.083 146.368 441.114 142.082L441.164 134.99C441.167 134.548 440.824 134.204 440.381 134.204H429.597C429.12 134.204 428.716 134.604 428.712 135.081L428.615 148.973C428.613 149.41 428.951 149.754 429.39 149.759Z" fill="black"/>
<path d="M370.853 121.333H435.804C439.834 121.333 442.685 124.631 442.141 128.659L440.187 143.13C439.643 147.16 435.902 150.457 431.872 150.457H366.921C362.892 150.457 360.04 147.16 360.584 143.13L362.538 128.659C363.081 124.631 366.823 121.333 370.853 121.333Z" fill="#22D3EE"/>
<path opacity="0.6" d="M370.853 121.333H435.804C439.834 121.333 442.685 124.631 442.141 128.659L440.187 143.13C439.643 147.16 435.902 150.457 431.872 150.457H366.921C362.892 150.457 360.04 147.16 360.584 143.13L362.538 128.659C363.081 124.631 366.823 121.333 370.853 121.333Z" fill="white"/>
<path opacity="0.5" d="M434.117 128.332H404.922C403.836 128.332 402.954 127.452 402.954 126.364C402.954 125.278 403.834 124.396 404.922 124.396H434.117C435.203 124.396 436.085 125.277 436.085 126.364C436.085 127.451 435.204 128.332 434.117 128.332Z" fill="white"/>
<path opacity="0.5" d="M395.136 128.332H392.056C390.969 128.332 390.088 127.452 390.088 126.364C390.088 125.278 390.968 124.396 392.056 124.396H395.136C396.223 124.396 397.104 125.277 397.104 126.364C397.104 127.451 396.223 128.332 395.136 128.332Z" fill="white"/>
<path d="M215.556 410.416L228.109 412.811L257.786 273.246L239.355 269.729L215.556 410.416Z" fill="#22D3EE"/>
<path d="M259.682 176.345L274.712 171.408L275.753 165.948L261.747 165.516L259.682 176.345Z" fill="#263238"/>
<path d="M259.302 173.169L276.422 167.6L258.829 267.785L240.396 264.268L259.302 173.169Z" fill="#22D3EE"/>
<path d="M240.087 269.874L257.021 273.104L258.063 267.644L241.129 264.414L240.087 269.874Z" fill="#263238"/>
<path d="M217.813 426.935C217.655 427.762 218.001 428.524 218.585 428.635C219.17 428.747 219.771 428.167 219.929 427.34C220.087 426.513 219.741 425.751 219.157 425.64C218.572 425.527 217.97 426.108 217.813 426.935Z" fill="#22D3EE"/>
<path d="M216.952 427.04L220.689 427.753L228.109 412.811L215.556 410.416L216.952 427.04Z" fill="#263238"/>
<path d="M239.567 238.903C239.343 238.903 239.115 238.855 238.899 238.754C238.107 238.386 237.763 237.443 238.133 236.651C246.015 219.753 252.415 184.444 253.275 176.046C253.528 173.569 255.109 171.416 257.4 170.43L261.56 168.638C262.364 168.292 263.295 168.661 263.641 169.463C263.987 170.267 263.617 171.198 262.814 171.544L258.653 173.338C257.416 173.871 256.562 175.032 256.426 176.369C255.523 185.188 249.167 220.487 241.004 237.989C240.735 238.565 240.163 238.903 239.567 238.903Z" fill="#263238"/>
<path d="M180.971 171.455C177.801 176.88 174.598 182.641 171.595 188.292C170.103 191.138 168.657 193.998 167.264 196.86C165.925 199.733 164.588 202.605 163.443 205.483L163.227 206.004C163.228 206.013 163.208 205.982 163.2 206.017C163.172 206.046 163.138 206.145 163.108 206.284C163.042 206.56 163.018 207.006 163.023 207.528C163.038 208.582 163.247 209.907 163.56 211.263C164.218 213.995 165.189 216.948 166.353 219.857C167.487 222.792 168.785 225.733 170.132 228.675C171.448 231.621 172.923 234.585 174.32 237.454L168.279 241.581C163.777 236.298 159.808 230.813 156.299 224.703C154.591 221.627 152.932 218.456 151.664 214.825C151.032 213 150.461 211.079 150.137 208.827C149.975 207.697 149.901 206.475 149.985 205.097C150.03 204.409 150.116 203.684 150.288 202.907C150.358 202.533 150.488 202.113 150.6 201.721L150.806 201.071C152.888 194.289 155.562 187.915 158.51 181.722C161.497 175.514 164.691 169.617 168.413 163.682L180.971 171.455Z" fill="#FFC3BD"/>
<path d="M173.438 235.639L179.119 240.063L170.439 247.232C170.439 247.232 166.477 243.402 167.089 238.722L173.438 235.639Z" fill="#FFC3BD"/>
<path d="M181.435 246.525L175.652 253.967L170.438 247.233L179.12 240.063L181.435 246.525Z" fill="#FFC3BD"/>
<path d="M213.749 118.433C213.906 119.203 214.441 119.745 214.944 119.643C215.447 119.541 215.729 118.834 215.572 118.063C215.416 117.292 214.88 116.752 214.378 116.854C213.874 116.957 213.593 117.664 213.749 118.433Z" fill="#263238"/>
<path d="M214.37 119.759C214.37 119.759 217.025 123.846 219.388 125.597C218.284 127.145 215.849 127.036 215.849 127.036L214.37 119.759Z" fill="#ED847E"/>
<path d="M210.061 114.73C209.949 114.73 209.835 114.69 209.748 114.608C209.561 114.435 209.549 114.143 209.722 113.956C211.456 112.08 213.559 112.413 213.649 112.428C213.899 112.471 214.069 112.709 214.027 112.96C213.983 113.21 213.742 113.378 213.496 113.338C213.428 113.326 211.783 113.086 210.4 114.582C210.309 114.68 210.185 114.73 210.061 114.73Z" fill="#263238"/>
<path d="M191.811 129.266C193.209 136.394 194.603 149.454 189.615 154.211C189.615 154.211 191.564 161.442 204.809 161.442C219.374 161.442 211.77 154.212 211.77 154.212C203.821 152.314 204.026 146.416 205.411 140.878L191.811 129.266Z" fill="#FFC3BD"/>
<path d="M186.798 154.748C185.738 152.232 188.007 144.602 190.422 143.855C193.079 143.034 203.179 143.493 208.192 145.59C211.757 149.203 212.786 156.705 212.786 156.705L186.798 154.748Z" fill="#263238"/>
<path d="M145.195 487.844C146.172 488.055 147.15 488.111 147.621 487.71C147.818 487.542 148.018 487.219 147.845 486.638C147.753 486.333 147.555 486.104 147.251 485.959C145.935 485.33 142.912 486.563 142.783 486.616C142.699 486.651 142.643 486.732 142.641 486.822C142.637 486.914 142.689 486.998 142.771 487.037C143.234 487.26 144.214 487.631 145.195 487.844ZM146.781 486.287C146.88 486.309 146.972 486.338 147.052 486.376C147.235 486.464 147.35 486.592 147.403 486.77C147.527 487.186 147.373 487.316 147.322 487.359C146.798 487.804 144.853 487.395 143.482 486.845C144.411 486.517 145.915 486.099 146.781 486.287Z" fill="#22D3EE"/>
<path d="M142.822 487.055C142.859 487.063 142.898 487.061 142.935 487.051C144.037 486.729 146.394 485.055 146.422 483.95C146.427 483.749 146.357 483.387 145.832 483.203C145.491 483.084 145.147 483.113 144.809 483.286C143.506 483.95 142.683 486.649 142.65 486.764C142.626 486.845 142.648 486.933 142.708 486.993C142.739 487.025 142.779 487.046 142.822 487.055ZM145.58 483.611C145.613 483.618 145.647 483.627 145.68 483.638C145.965 483.738 145.961 483.878 145.96 483.937C145.944 484.591 144.389 485.904 143.248 486.436C143.533 485.657 144.184 484.121 145.019 483.694C145.21 483.599 145.394 483.57 145.58 483.611Z" fill="#22D3EE"/>
<path d="M215.531 489.478C216.782 489.478 217.99 489.307 218.395 488.744C218.536 488.548 218.648 488.213 218.376 487.736C218.223 487.469 217.976 487.287 217.644 487.196C216.022 486.755 212.617 488.696 212.474 488.779C212.391 488.827 212.345 488.921 212.36 489.017C212.376 489.112 212.449 489.187 212.543 489.206C213.164 489.328 214.366 489.478 215.531 489.478ZM217.077 487.588C217.24 487.588 217.39 487.605 217.523 487.642C217.736 487.699 217.885 487.804 217.975 487.965C218.138 488.251 218.078 488.393 218.019 488.475C217.567 489.104 215.103 489.12 213.291 488.863C214.196 488.398 215.938 487.588 217.077 487.588Z" fill="#22D3EE"/>
<path d="M212.588 489.209C212.619 489.209 212.651 489.202 212.682 489.188C213.858 488.66 216.187 486.553 216.009 485.451C215.967 485.193 215.784 484.871 215.15 484.806C214.676 484.758 214.248 484.892 213.87 485.202C212.631 486.219 212.368 488.845 212.357 488.956C212.35 489.037 212.385 489.117 212.453 489.164C212.494 489.195 212.541 489.209 212.588 489.209ZM214.965 485.259C215.011 485.259 215.057 485.262 215.104 485.267C215.518 485.309 215.545 485.473 215.554 485.526C215.661 486.188 214.078 487.844 212.878 488.565C213.002 487.798 213.35 486.228 214.164 485.561C214.409 485.358 214.673 485.259 214.965 485.259Z" fill="#22D3EE"/>
<path d="M201.874 488.978H211.618L212.588 466.414H202.845L201.874 488.978Z" fill="#FFC3BD"/>
<path d="M131.558 484.468L141.342 486.529L148.245 465.513L138.462 463.451L131.558 484.468Z" fill="#FFC3BD"/>
<path d="M142.399 485.573L131.7 483.257C131.311 483.173 130.915 483.37 130.748 483.731L127.034 491.79C126.649 492.625 127.159 493.606 128.062 493.785C131.811 494.529 133.673 494.704 138.378 495.723C141.273 496.35 147.807 497.941 151.804 498.806C155.714 499.652 157.179 495.832 155.62 495.12C148.63 491.926 145.71 489.115 143.818 486.494C143.477 486.021 142.969 485.697 142.399 485.573Z" fill="#263238"/>
<path d="M211.553 487.85H200.913C200.515 487.85 200.17 488.127 200.083 488.515L198.159 497.176C197.959 498.074 198.641 498.925 199.561 498.91C203.4 498.845 208.946 498.62 213.77 498.62C219.412 498.62 217.22 498.928 223.836 498.928C227.836 498.928 228.946 494.884 227.271 494.518C219.649 492.85 220.488 492.672 213.901 488.611C213.184 488.168 212.394 487.85 211.553 487.85Z" fill="#263238"/>
<path d="M172.17 156.414C163.038 158.508 155.508 181.821 155.508 181.821L173.846 195.799C173.846 195.799 180.576 189.453 183.572 177.791C186.713 165.572 181.507 154.273 172.17 156.414Z" fill="#263238"/>
<path opacity="0.2" d="M179.996 173.558C175.035 178.465 173.417 187.405 173.033 195.177L173.842 195.8C173.842 195.8 180.58 189.447 183.578 177.789C183.764 177.06 183.923 176.33 184.055 175.614L179.996 173.558Z" fill="black"/>
<path d="M226.756 156.916C226.756 156.916 237.127 168.63 227.334 241.134C211.631 241.134 182.86 241.134 175.219 241.134C174.86 233.135 179.886 194.108 172.171 156.414C172.171 156.414 181.104 154.622 189.616 154.211C196.275 153.89 205.916 153.678 211.77 154.212C219.487 154.916 226.756 156.916 226.756 156.916Z" fill="#263238"/>
<path opacity="0.2" d="M212.585 466.421L212.087 478.051H202.339L202.837 466.421H212.585Z" fill="black"/>
<path opacity="0.2" d="M138.456 463.456L148.244 465.519L144.682 476.35L134.894 474.288L138.456 463.456Z" fill="black"/>
<path d="M187.73 122.022C190.233 131.362 191.224 136.956 196.987 140.84C205.657 146.682 216.452 139.977 216.79 130.077C217.094 121.166 212.95 107.389 202.925 105.506C193.051 103.651 185.227 112.681 187.73 122.022Z" fill="#FFC3BD"/>
<path d="M197.041 139.758C196.999 139.758 196.958 139.758 196.916 139.758C193.86 139.762 190.984 138.315 189.2 135.833C186.27 131.755 182.165 124.672 181.694 116.493C185.405 112.572 199.365 109.991 205.58 111.405C210.761 112.585 210.007 127.332 205.108 135.297C203.392 138.087 200.314 139.746 197.041 139.758Z" fill="#FFC3BD"/>
<path opacity="0.8" d="M197.041 139.758C196.999 139.758 196.958 139.758 196.916 139.758C193.86 139.762 190.984 138.315 189.2 135.833C186.27 131.755 182.165 124.672 181.694 116.493C185.405 112.572 199.365 109.991 205.58 111.405C210.761 112.585 210.007 127.332 205.108 135.297C203.392 138.087 200.314 139.746 197.041 139.758Z" fill="#263238"/>
<path d="M187.347 119.815C182.957 119.501 180.475 116.739 179.68 114.373C178.569 111.07 179.751 104.092 186.393 103.879C193.036 103.667 193.743 99.8863 191.694 99.1091C196.04 99.4271 194.661 102.466 194.661 102.466C195.828 102.536 196.923 99.3559 203.53 99.6039C210.136 99.8507 213.423 98.4375 212.575 96.9543C215.719 97.5903 214.836 101.406 212.185 102.432C212.185 102.432 218.474 107.202 219.959 104.586C221.018 106.494 218.933 108.776 210.983 107.741C214.155 112.174 206.648 111.179 203.451 113.193C200.254 115.208 191.737 120.129 187.347 119.815Z" fill="#263238"/>
<path d="M203.623 121.584C204.259 124.037 205.869 126.144 207.555 127.398C210.09 129.285 211.984 127.428 211.805 124.559C211.642 121.976 210.128 117.883 207.331 117.117C204.574 116.363 202.895 118.781 203.623 121.584Z" fill="#FFC3BD"/>
<path d="M208.846 241.133C208.846 241.133 197.789 315.595 191.719 343.491C185.071 374.039 149.426 475.11 149.426 475.11L131.984 471.333C131.984 471.333 156.91 388.969 162.489 346.26C166.775 313.455 175.22 241.133 175.22 241.133H208.846Z" fill="#263238"/>
<path d="M153.601 469.288C153.675 469.304 150.35 475.596 150.35 475.596L130.727 471.347L132.38 465.448L153.601 469.288Z" fill="#22D3EE"/>
<path opacity="0.3" d="M201.858 267.664C189.072 270.172 190.426 317.852 191.963 342.375C195.651 325.041 201.048 291.684 204.736 268.009C203.887 267.584 202.932 267.452 201.858 267.664Z" fill="black"/>
<path d="M227.332 241.133C227.332 241.133 228.674 313.983 227.615 343.697C226.512 374.603 215.718 475.799 215.718 475.799H199.212C199.212 475.799 198.607 376.409 197.872 346.057C197.072 312.967 193.076 241.134 193.076 241.134L227.332 241.133Z" fill="#263238"/>
<path d="M218.895 469.224C218.971 469.224 217.963 476.076 217.963 476.076H197.885L197.342 469.961L218.895 469.224Z" fill="#22D3EE"/>
<path d="M226.994 155.624C229.552 156.69 232.005 158.584 232.741 164.875C233.45 170.922 232.077 223.873 230.417 240.782C230.303 241.955 229.448 243.051 228.273 243.102C217.85 243.554 185.579 239.193 174.69 241.11C173.441 241.33 172.322 239.941 172.389 238.668C173.245 222.19 172.012 195.615 169.997 178.725C168.682 167.702 168.673 156.166 177.931 154.205C184.774 152.755 217.047 151.48 226.994 155.624Z" fill="#22D3EE"/>
<path d="M231.032 170.262C231.613 173.054 232.245 176.101 232.941 179.001C233.655 181.924 234.364 184.839 235.175 187.696C235.968 190.556 236.827 193.371 237.805 196.053C238.759 198.726 239.843 201.327 241.05 203.419C241.634 204.45 242.263 205.377 242.751 205.913C242.987 206.183 243.179 206.351 243.225 206.41C243.231 206.425 243.208 206.521 243.477 206.603C243.927 206.798 244.921 206.964 246.055 206.926C247.198 206.891 248.489 206.743 249.822 206.522C255.177 205.546 261.092 203.568 266.69 201.557L270.392 207.866C265.098 211.971 259.615 215.376 252.932 217.839C251.251 218.446 249.477 218.966 247.514 219.303C245.549 219.625 243.371 219.851 240.756 219.408C239.484 219.209 237.993 218.72 236.622 218.004C235.311 217.285 234.271 216.469 233.382 215.657C231.612 214.022 230.396 212.393 229.306 210.788C225.211 204.373 223.05 198.164 221.024 191.875C220.066 188.733 219.188 185.596 218.459 182.434C217.716 179.246 217.029 176.177 216.486 172.818L231.032 170.262Z" fill="#FFC3BD"/>
<path d="M209.599 166.444C201.684 182.359 220.488 200.345 220.488 200.345L241.451 189.399C241.451 189.399 239.236 175.813 234.291 164.823C228.18 151.246 214.151 157.289 209.599 166.444Z" fill="#263238"/>
<path d="M264.752 202.497L271.862 197.825L274.82 208.462C274.82 208.462 271.628 212.184 265.808 208.126L264.752 202.497Z" fill="#FFC3BD"/>
<path d="M278.057 202.125L277.83 204.356C277.721 205.433 277.201 206.427 276.378 207.13L274.821 208.461L271.863 197.824L272.773 197.589C275.632 196.85 278.354 199.186 278.057 202.125Z" fill="#FFC3BD"/>
</svg>
